#N canvas -9 -9 1920 976 12;
#N canvas -9 -9 1920 976 Bend_wheel 0;
#X obj 323 52 bendin 1;
#X floatatom 322 94 5 0 0 0 - - -;
#X obj 366 141 clip 8192 16383;
#X obj 366 167 - 8192;
#X obj 366 195 / 8191;
#X obj 368 249 *;
#X obj 233 143 clip 0 8191;
#X obj 347 396 +;
#X obj 384 323 t b f;
#X obj 233 169 - 8191;
#X obj 234 249 *;
#X obj 233 197 / 8191;
#X obj 350 441 s BEND;
#X obj 386 223 r BEND_up;
#X obj 252 222 r BEND_down;
#X obj 120 278 vradio 20 1 0 7 empty empty empty 0 -8 0 10 -262144
-1 -1 1;
#X obj 119 129 vradio 20 1 0 7 empty empty empty 0 -8 0 10 -262144
-1 -1 4;
#X obj 27 151 s BEND_up;
#X obj 8 450 s BEND_down;
#X floatatom 146 339 5 -24 -1 0 - - -;
#X floatatom 145 190 5 1 24 0 - - -;
#X obj 68 195 - 7;
#X obj 67 231 abs;
#X obj 64 361 + 1;
#X obj 56 328 * -1;
#X msg 25 285 1;
#X obj 54 395 abs;
#X floatatom 54 421 5 0 0 0 - - -;
#X text 109 103 Bend Width;
#X msg 24 112 4;
#X obj -33 177 loadbang;
#X connect 0 0 1 0;
#X connect 1 0 2 0;
#X connect 1 0 6 0;
#X connect 2 0 3 0;
#X connect 3 0 4 0;
#X connect 4 0 5 0;
#X connect 5 0 8 0;
#X connect 6 0 9 0;
#X connect 7 0 12 0;
#X connect 8 0 7 0;
#X connect 8 1 7 1;
#X connect 9 0 11 0;
#X connect 10 0 7 0;
#X connect 11 0 10 0;
#X connect 13 0 5 1;
#X connect 14 0 10 1;
#X connect 15 0 23 0;
#X connect 16 0 21 0;
#X connect 19 0 26 0;
#X connect 20 0 17 0;
#X connect 21 0 22 0;
#X connect 22 0 20 0;
#X connect 23 0 24 0;
#X connect 24 0 19 0;
#X connect 25 0 15 0;
#X connect 26 0 27 0;
#X connect 27 0 18 0;
#X connect 29 0 16 0;
#X connect 30 0 25 0;
#X connect 30 0 29 0;
#X coords 0 -1 1 1 103 338 2 100 100;
#X restore 189 491 pd Bend_wheel;
#N canvas -9 -9 1920 976 Square_Oscillator 0;
#X obj 340 504 tgl 30 0 empty empty Hold_sustain 32 7 0 10 -66577 -4034
-1 1 1;
#N canvas -9 -9 1920 976 Pulse1_Unison 0;
#X obj 313 388 vsl 15 96 0.01 1.01 1 0 empty empty Detune 0 -9 0 10
-262144 -1 -1 3313 1;
#X obj 403 388 vsl 15 96 0 1 0 0 empty empty Stereo_level 0 -9 0 10
-262144 -1 -1 4750 1;
#X obj 358 388 vsl 15 96 0 0.5 0 0 empty empty Phase 0 -9 0 10 -262144
-1 -1 4750 1;
#X obj 315 319 hradio 15 1 0 9 empty empty Voice_Number 0 -8 0 10 -262144
-1 -1 0;
#X obj 313 550 s Detune;
#X obj 403 550 s Unison_stereo;
#X obj 358 584 s Uni_Phase;
#X obj 315 339 s Unison_Voices;
#X obj 62 269 r Visual_Pulse1_Detune;
#X obj 616 166 r Visual_Pulse1_Phase;
#X obj 159 82 r Visual_Pulse1_Unison;
#X obj 616 196 r Visual_Pulse2_Phase;
#X obj 159 112 r Visual_Pulse2_Unison;
#X obj 62 299 r Visual_Pulse2_Detune;
#X obj 569 441 r Visual_Pulse2_Unison_stereo;
#X obj 569 411 r Visual_Pulse1_Unison_stereo;
#X obj 62 329 r Visual_Saw1_Detune;
#X obj 569 471 r Visual_Saw1_Unison_stereo;
#X obj 616 226 r Visual_Saw1_Phase;
#X obj 159 142 r Visual_Saw1_Unison;
#X obj 159 172 r Visual_Saw2_Unison;
#X obj 62 359 r Visual_Saw2_Detune;
#X obj 616 256 r Visual_Saw2_Phase;
#X obj 569 501 r Visual_Saw2_Unison_stereo;
#X obj 62 389 r Visual_Sine_Detune;
#X obj 569 531 r Visual_Sine_Unison_stereo;
#X obj 616 286 r Visual_Sine_Phase;
#X obj 159 202 r Visual_Sine_Unison;
#X connect 0 0 4 0;
#X connect 1 0 5 0;
#X connect 2 0 6 0;
#X connect 3 0 7 0;
#X connect 8 0 0 0;
#X connect 9 0 2 0;
#X connect 10 0 3 0;
#X connect 11 0 2 0;
#X connect 12 0 3 0;
#X connect 13 0 0 0;
#X connect 14 0 1 0;
#X connect 15 0 1 0;
#X connect 16 0 0 0;
#X connect 17 0 1 0;
#X connect 18 0 2 0;
#X connect 19 0 3 0;
#X connect 20 0 3 0;
#X connect 21 0 0 0;
#X connect 22 0 2 0;
#X connect 23 0 1 0;
#X connect 24 0 0 0;
#X connect 25 0 1 0;
#X connect 26 0 2 0;
#X connect 27 0 3 0;
#X coords 0 -1 1 1 172 200 2 300 300;
#X restore 299 200 pd Pulse1_Unison;
#X obj 238 235 vsl 15 128 0 1 0 0 empty empty Volume -20 -15 0 18 -262144
-1 -1 12100 1;
#X floatatom 238 372 5 0 0 0 - - -;
#X obj 323 418 hsl 128 30 0 1 0 0 empty empty Modulation_Value -2 -8
0 10 -162280 -1 -1 0 1;
#X obj 469 504 tgl 30 0 empty empty Invert_Phase 32 7 0 10 -66577 -4034
-1 0 1;
#X obj 63 395 s Osc_Mod_Value;
#X obj 469 561 s Osc_Inv_Phase;
#X obj 340 545 s Hold_Sustain;
#X obj 35 208 s Osc_Master_Volume;
#X obj 607 721 r Visual_Pulse1_Hold_Sustain;
#X obj 392 15 r Visual_Pulse1_Master;
#X obj 797 15 r Visual_Pulse1_Value;
#X obj 879 703 r Visual_Pulse2_Inv_Pha;
#X obj 879 675 r Visual_Pulse1_Inv_Pha;
#X obj 607 751 r Visual_Pulse2_Hold_Sustain;
#X obj 797 45 r Visual_Pulse2_Value;
#X obj 392 45 r Visual_Pulse2_Master;
#N canvas -9 -9 1920 976 ADSR_Volume 0;
#X obj 408 430 vsl 15 128 5 1000 1 0 empty empty A 0 -15 0 18 -262144
-1 -1 3323 1;
#X obj 456 430 vsl 15 128 5 1000 1 0 empty empty D 0 -15 0 18 -262144
-1 -1 7181 1;
#X floatatom 408 567 5 0 0 0 - - -;
#X floatatom 456 567 5 0 0 0 - - -;
#X obj 479 449 vsl 15 64 0 1 0 0 empty empty D_vol 0 -10 0 12 -262144
-1 -1 4410 1;
#X floatatom 479 521 5 0 0 0 - - -;
#X obj 537 430 vsl 15 128 5 1000 1 0 empty empty S 0 -15 0 18 -262144
-1 -1 8842 1;
#X obj 591 430 vsl 15 128 5 1000 1 0 empty empty R 0 -15 0 18 -262144
-1 -1 7181 1;
#X floatatom 537 566 5 0 0 0 - - -;
#X floatatom 591 566 5 0 0 0 - - -;
#X obj 408 704 s ADSR_Attack;
#X obj 456 730 s ADSR_Decay;
#X obj 479 757 s ADSR_Decay_Volume;
#X obj 537 783 s ADSR_Sustain;
#X obj 591 809 s ADSR_Release;
#X obj 697 399 r Visual_Pulse1_Release;
#X obj 928 166 r Visual_Pulse1_Sustain;
#X obj 382 162 r Visual_Pulse1_Decay;
#X obj 171 301 r Visual_Pulse1_Attack;
#X obj 581 202 r Visual_Pulse1_Decay_Volume;
#X obj 697 429 r Visual_Pulse2_Release;
#X obj 928 196 r Visual_Pulse2_Sustain;
#X obj 581 232 r Visual_Pulse2_Decay_Volume;
#X obj 382 192 r Visual_Pulse2_Decay;
#X obj 171 331 r Visual_Pulse2_Attack;
#X obj 171 361 r Visual_Saw1_Attack;
#X obj 382 222 r Visual_Saw1_Decay;
#X obj 581 262 r Visual_Saw1_Decay_Volume;
#X obj 928 226 r Visual_Saw1_Sustain;
#X obj 697 459 r Visual_Saw1_Release;
#X obj 697 489 r Visual_Saw2_Release;
#X obj 581 292 r Visual_Saw2_Decay_Volume;
#X obj 171 391 r Visual_Saw2_Attack;
#X obj 928 256 r Visual_Saw2_Sustain;
#X obj 382 252 r Visual_Saw2_Decay;
#X obj 382 282 r Visual_Sine_Decay;
#X obj 171 421 r Visual_Sine_Attack;
#X obj 697 519 r Visual_Sine_Release;
#X obj 928 286 r Visual_Sine_Sustain;
#X obj 581 322 r Visual_Sine_Decay_Volume;
#X connect 0 0 2 0;
#X connect 1 0 3 0;
#X connect 2 0 10 0;
#X connect 3 0 11 0;
#X connect 4 0 5 0;
#X connect 5 0 12 0;
#X connect 6 0 8 0;
#X connect 7 0 9 0;
#X connect 8 0 13 0;
#X connect 9 0 14 0;
#X connect 15 0 7 0;
#X connect 16 0 6 0;
#X connect 17 0 1 0;
#X connect 18 0 0 0;
#X connect 19 0 4 0;
#X connect 20 0 7 0;
#X connect 21 0 6 0;
#X connect 22 0 4 0;
#X connect 23 0 1 0;
#X connect 24 0 0 0;
#X connect 25 0 0 0;
#X connect 26 0 1 0;
#X connect 27 0 4 0;
#X connect 28 0 6 0;
#X connect 29 0 7 0;
#X connect 30 0 7 0;
#X connect 31 0 4 0;
#X connect 32 0 0 0;
#X connect 33 0 6 0;
#X connect 34 0 1 0;
#X connect 35 0 1 0;
#X connect 36 0 0 0;
#X connect 37 0 7 0;
#X connect 38 0 6 0;
#X connect 39 0 4 0;
#X coords 0 -1 1 1 247 200 2 400 400;
#X restore 471 200 pd ADSR_Volume;
#N canvas -9 -9 1920 976 Note_Offset 0;
#X obj 514 532 bng 25 250 50 0 empty empty _ 6 -18 0 20 -262144 -1
-1;
#X obj 596 532 bng 25 250 50 0 empty empty + 6 -10 0 20 -262144 -1
-1;
#X obj 353 267 int;
#X floatatom 549 537 5 -48 48 0 - - -;
#X msg 371 214 0;
#X obj 764 267 int;
#X msg 782 214 0;
#X obj 517 565 bng 15 250 50 0 empty empty empty 17 7 0 10 -262144
-1 -1;
#X obj 602 565 bng 15 250 50 0 empty empty empty 17 7 0 10 -262144
-1 -1;
#X obj 353 407 int;
#X msg 371 354 0;
#X obj 764 406 int;
#X msg 782 353 0;
#X obj 764 293 + 12;
#X obj 764 432 + 1;
#X obj 353 293 - 12;
#X obj 353 433 - 1;
#X obj 560 565 bng 15 250 50 0 empty empty 0 17 7 0 10 -262144 -1 -1
;
#X msg 592 610 0;
#X obj 559 454 clip -48 48;
#X text 553 503 Detune;
#X obj 648 539 hsl 64 15 -0.5 0.5 0 0 empty empty empty -2 -8 0 10
-262144 -1 -1 3150 1;
#X text 665 503 Coarse;
#X obj 720 540 bng 15 250 50 0 empty empty 0 17 7 0 10 -262144 -1 -1
;
#X msg 706 606 0;
#X floatatom 665 559 5 0 0 0 - - -;
#X obj 505 646 s Note_Detune;
#X obj 792 241 r Note_Detune;
#X obj 381 241 r Note_Detune;
#X obj 381 381 r Note_Detune;
#X obj 792 380 r Note_Detune;
#X obj 668 646 s Coarse;
#X obj 1012 333 r Visual_Pulse1_Coarse;
#X obj 1012 363 r Visual_Pulse2_Coarse;
#X obj 136 697 r Visual_Pulse1_Note_Detune;
#X obj 136 727 r Visual_Pulse2_Note_Detune;
#X obj 1012 393 r Visual_Saw1_Coarse;
#X obj 136 757 r Visual_Saw1_Note_Detune;
#X obj 1012 423 r Visual_Saw2_Coarse;
#X obj 136 787 r Visual_Saw2_Note_Detune;
#X obj 136 817 r Visual_Sine_Note_Detune;
#X obj 1012 453 r Visual_Sine_Coarse;
#X connect 0 0 2 0;
#X connect 1 0 5 0;
#X connect 2 0 15 0;
#X connect 3 0 26 0;
#X connect 4 0 2 1;
#X connect 5 0 13 0;
#X connect 6 0 5 1;
#X connect 7 0 9 0;
#X connect 8 0 11 0;
#X connect 9 0 16 0;
#X connect 10 0 9 1;
#X connect 11 0 14 0;
#X connect 12 0 11 1;
#X connect 13 0 19 0;
#X connect 14 0 19 0;
#X connect 15 0 19 0;
#X connect 16 0 19 0;
#X connect 17 0 18 0;
#X connect 18 0 3 0;
#X connect 19 0 3 0;
#X connect 21 0 25 0;
#X connect 21 0 31 0;
#X connect 23 0 24 0;
#X connect 24 0 21 0;
#X connect 27 0 5 1;
#X connect 28 0 2 1;
#X connect 29 0 9 1;
#X connect 30 0 11 1;
#X connect 32 0 21 0;
#X connect 33 0 21 0;
#X connect 34 0 3 0;
#X connect 35 0 3 0;
#X connect 36 0 21 0;
#X connect 37 0 3 0;
#X connect 38 0 21 0;
#X connect 39 0 3 0;
#X connect 40 0 3 0;
#X connect 41 0 21 0;
#X coords 0 -1 1 1 247 90 2 500 500;
#X restore 471 400 pd Note_Offset;
#X obj 599 504 tgl 30 0 empty empty Max_Velocity 32 7 0 10 -66577 -4034
-1 0 1;
#X obj 599 545 s Max_Velocity;
#X obj 1067 514 r Visual_Pulse1_Max_Velocity;
#X obj 1067 544 r Visual_Pulse2_Max_Velocity;
#N canvas -9 -9 1920 976 Pan_module 0;
#X obj 360 219 hsl 64 15 -1 1 0 0 empty empty Pan -2 -8 0 10 -262144
-1 -1 3150 1;
#X msg 405 239 0;
#X obj 385 240 bng 15 250 50 0 empty empty empty 17 7 0 10 -262144
-1 -1;
#X obj 357 279 s Panning_Value;
#X obj 449 127 loadbang;
#X obj 149 35 r Visual_Pulse1_Panning_Value;
#X obj 149 65 r Visual_Pulse2_Panning_Value;
#X obj 149 95 r Visual_Saw1_Panning_Value;
#X obj 149 125 r Visual_Saw2_Panning_Value;
#X obj 149 155 r Visual_Sine_Panning_Value;
#X connect 0 0 3 0;
#X connect 1 0 0 0;
#X connect 2 0 1 0;
#X connect 4 0 1 0;
#X connect 5 0 0 0;
#X connect 6 0 0 0;
#X connect 7 0 0 0;
#X connect 8 0 0 0;
#X coords 0 -1 1 1 99 64 2 350 200;
#X restore 200 400 pd Pan_module;
#X obj 392 75 r Visual_Saw1_Master;
#X obj 797 75 r Visual_Saw1_Value;
#X obj 1067 574 r Visual_Saw1_Max_Velocity;
#X obj 607 781 r Visual_Saw1_Hold_Sustain;
#X obj 879 733 r Visual_Saw1_Inv_Pha;
#X obj 1067 604 r Visual_Saw2_Max_Velocity;
#X obj 879 763 r Visual_Saw2_Inv_Pha;
#X obj 607 811 r Visual_Saw2_Hold_Sustain;
#X obj 797 105 r Visual_Saw2_Value;
#X obj 392 105 r Visual_Saw2_Master;
#X obj 392 135 r Visual_Sine_Master;
#X obj 797 135 r Visual_Sine_Value;
#X obj 607 841 r Visual_Sine_Hold_Sustain;
#X obj 879 793 r Visual_Sine_Inv_Pha;
#X obj 1067 634 r Visual_Sine_Max_Velocity;
#X obj 378 455 bng 20 250 50 0 empty empty empty 17 7 0 10 -262144
-1 -1;
#X msg 321 461 0.5;
#X obj 209 473 vradio 30 1 0 2 empty empty empty 0 -8 0 10 -262144
-1 -1 1;
#X text 247 477 Polyphony;
#X text 247 508 Legato;
#X obj 65 758 s Mode;
#X obj 37 608 r Visual_Sine_Mode;
#X obj 37 578 r Visual_Saw2_Mode;
#X obj 37 548 r Visual_Saw1_Mode;
#X obj 37 518 r Visual_Pulse2_Mode;
#X obj 37 488 r Visual_Pulse1_Mode;
#X connect 0 0 8 0;
#X connect 2 0 3 0;
#X connect 3 0 9 0;
#X connect 4 0 6 0;
#X connect 5 0 7 0;
#X connect 10 0 0 0;
#X connect 11 0 2 0;
#X connect 12 0 4 0;
#X connect 13 0 5 0;
#X connect 14 0 5 0;
#X connect 15 0 0 0;
#X connect 16 0 4 0;
#X connect 17 0 2 0;
#X connect 20 0 21 0;
#X connect 22 0 20 0;
#X connect 23 0 20 0;
#X connect 25 0 2 0;
#X connect 26 0 4 0;
#X connect 27 0 20 0;
#X connect 28 0 0 0;
#X connect 29 0 5 0;
#X connect 30 0 20 0;
#X connect 31 0 5 0;
#X connect 32 0 0 0;
#X connect 33 0 4 0;
#X connect 34 0 2 0;
#X connect 35 0 2 0;
#X connect 36 0 4 0;
#X connect 37 0 0 0;
#X connect 38 0 5 0;
#X connect 39 0 20 0;
#X connect 40 0 41 0;
#X connect 41 0 4 0;
#X connect 42 0 45 0;
#X connect 46 0 42 0;
#X connect 47 0 42 0;
#X connect 48 0 42 0;
#X connect 49 0 42 0;
#X connect 50 0 42 0;
#X coords 0 -1 1 1 518 342 2 200 200;
#X restore 549 136 pd Square_Oscillator;
#X obj 549 478 FX_Filter_User_Interface;
#N canvas -9 -9 1920 976 Distortion 0;
#N canvas 33 50 1442 852 Dual_Distortion 0;
#X obj 401 401 cnv 30 232 134 empty empty empty 20 12 0 14 -256098
-66577 0;
#X obj 409 439 vsl 15 86 20 20000 1 0 empty empty Split_Freq 18 5 0
10 -262144 -1 -1 2833 1;
#X obj 484 439 vsl 15 86 1 16 0 0 empty empty Low_Gain 18 5 0 10 -262144
-1 -1 0 1;
#X obj 559 439 vsl 15 86 1 16 0 0 empty empty High_Gain 18 5 0 10 -262144
-1 -1 0 1;
#X obj 594 499 tgl 30 0 empty empty empty 17 7 0 10 -66577 -4034 -1
0 1;
#X obj 594 534 spigot;
#X msg 643 491 1;
#X obj 643 394 t b f b;
#X msg 726 493 0;
#X obj 642 112 r Visual_Saw2_Dist3_High_Gain;
#X obj 642 82 r Visual_Saw1_Dist3_High_Gain;
#X obj 642 52 r Visual_Pulse2_Dist3_High_Gain;
#X obj 642 22 r Visual_Pulse1_Dist3_High_Gain;
#X obj 405 55 r Visual_Pulse2_Dist3_Low_Gain;
#X obj 405 25 r Visual_Pulse1_Dist3_Low_Gain;
#X obj 50 340 r Visual_Saw2_Dist3_Freq_Split;
#X obj 50 310 r Visual_Saw1_Dist3_Freq_Split;
#X obj 50 280 r Visual_Pulse2_Dist3_Freq_Split;
#X obj 50 250 r Visual_Pulse1_Dist3_Freq_Split;
#X obj 484 593 s Dist3_Low_Gain;
#X obj 594 560 s Dist3_Trigger;
#X obj 559 653 s Dist3_High_Gain;
#X obj 409 623 s Dist3_Freq_Split;
#X obj 651 336 r Dist3_Switch;
#X text 406 402 Dual_Clipping_Distortion;
#X obj 50 370 r Visual_Sine_Dist3_Freq_Split;
#X obj 405 145 r Visual_Sine_Dist3_Low_Gain;
#X obj 405 115 r Visual_Saw2_Dist3_Low_Gain;
#X obj 405 85 r Visual_Saw1_Dist3_Low_Gain;
#X obj 642 142 r Visual_Sine_Dist3_High_Gain;
#X connect 1 0 22 0;
#X connect 2 0 19 0;
#X connect 3 0 21 0;
#X connect 4 0 5 0;
#X connect 5 0 20 0;
#X connect 6 0 5 1;
#X connect 7 0 6 0;
#X connect 7 1 4 0;
#X connect 7 2 8 0;
#X connect 8 0 5 1;
#X connect 9 0 3 0;
#X connect 10 0 3 0;
#X connect 11 0 3 0;
#X connect 12 0 3 0;
#X connect 13 0 2 0;
#X connect 14 0 2 0;
#X connect 15 0 1 0;
#X connect 16 0 1 0;
#X connect 17 0 1 0;
#X connect 18 0 1 0;
#X connect 23 0 7 0;
#X connect 27 0 2 0;
#X connect 28 0 2 0;
#X coords 0 -1 1 1 234 136 2 400 400;
#X restore 310 300 pd Dual_Distortion;
#N canvas -9 -9 1920 976 Dist1_Visual_Interface 0;
#X obj 301 301 cnv 30 78 134 empty empty empty 20 12 0 14 -261234 -66577
0;
#X obj 309 339 vsl 15 86 1 16 0 0 empty empty Drive 20 5 0 10 -262144
-1 -1 0 1;
#X obj 309 503 s Dist1_Gain;
#X obj 339 399 tgl 30 0 empty empty empty 17 7 0 10 -66577 -4034 -1
1 1;
#X obj 339 434 spigot;
#X msg 377 391 1;
#X obj 339 353 t b f b;
#X msg 471 393 0;
#X obj 339 460 s Dist1_Trigger;
#X obj 136 102 r Visual_Pulse1_Dist1_Gain;
#X obj 136 132 r Visual_Pulse2_Dist1_Gain;
#X obj 136 162 r Visual_Saw1_Dist1_Gain;
#X obj 136 192 r Visual_Saw2_Dist1_Gain;
#X obj 379 257 r Dist1_Switch;
#X text 306 300 Clip_Dist;
#X obj 136 222 r Visual_Sine_Dist1_Gain;
#X connect 1 0 2 0;
#X connect 3 0 4 0;
#X connect 4 0 8 0;
#X connect 5 0 4 1;
#X connect 6 0 5 0;
#X connect 6 1 3 0;
#X connect 6 2 7 0;
#X connect 7 0 4 1;
#X connect 9 0 1 0;
#X connect 10 0 1 0;
#X connect 11 0 1 0;
#X connect 12 0 1 0;
#X connect 13 0 6 0;
#X connect 15 0 1 0;
#X coords 0 -1 1 1 80 136 2 300 300;
#X restore 150 300 pd Dist1_Visual_Interface;
#N canvas -9 -9 1920 976 Dist1_Visual_Interface 0;
#X obj 301 301 cnv 30 78 134 empty empty empty 20 12 0 14 -260779 -66577
0;
#X obj 309 339 vsl 15 86 1 0.125 0 0 empty empty Drive 20 5 0 10 -262144
-1 -1 0 1;
#X obj 339 399 tgl 30 0 empty empty empty 17 7 0 10 -66577 -4034 -1
0 1;
#X obj 339 434 spigot;
#X msg 377 391 1;
#X obj 339 353 t b f b;
#X msg 471 393 0;
#X text 307 300 Sqrt_Dist;
#X obj 136 192 r Visual_Saw2_Dist2_Gain;
#X obj 136 162 r Visual_Saw1_Dist2_Gain;
#X obj 136 132 r Visual_Pulse2_Dist2_Gain;
#X obj 136 102 r Visual_Pulse1_Dist2_Gain;
#X obj 339 460 s Dist2_Trigger;
#X obj 309 503 s Dist2_Gain;
#X obj 379 257 r Dist2_Switch;
#X obj 136 222 r Visual_Sine_Dist2_Gain;
#X connect 1 0 13 0;
#X connect 2 0 3 0;
#X connect 3 0 12 0;
#X connect 4 0 3 1;
#X connect 5 0 4 0;
#X connect 5 1 2 0;
#X connect 5 2 6 0;
#X connect 6 0 3 1;
#X connect 8 0 1 0;
#X connect 9 0 1 0;
#X connect 10 0 1 0;
#X connect 11 0 1 0;
#X connect 14 0 5 0;
#X connect 15 0 1 0;
#X coords 0 -1 1 1 80 136 2 300 300;
#X restore 230 300 pd Dist1_Visual_Interface;
#X obj 1190 671 t f b;
#X msg 1222 702 0;
#X obj 985 671 t f b;
#X msg 1017 702 0;
#X obj 1400 671 t f b;
#X msg 1432 702 0;
#X obj 1675 734 == 0;
#X obj 1400 384 t f f;
#X obj 1190 384 t f f;
#X obj 985 384 t f f;
#X obj 1675 646 +;
#X obj 1695 615 t b f;
#X obj 1675 708 +;
#X obj 1695 677 t b f;
#X obj 1061 640 spigot;
#X obj 1266 640 spigot;
#X obj 1476 640 spigot;
#X obj 985 640 spigot;
#X obj 1190 640 spigot;
#X obj 1400 640 spigot;
#X obj 1229 543 * -1;
#X obj 1229 569 + 1;
#X msg 1061 702 1;
#X msg 1266 702 1;
#X msg 1476 702 1;
#X obj 968 307 loadbang;
#X msg 968 333 1;
#X obj 986 176 t f f;
#X obj 1190 176 t f f;
#X obj 1400 176 t f f;
#X obj 986 238 spigot;
#X obj 1190 238 spigot;
#X obj 1400 238 spigot;
#X obj 1018 207 == 1;
#X obj 1222 207 == 1;
#X obj 1432 207 == 1;
#X obj 985 923 s Dist1_Switch;
#X obj 1190 923 s Dist2_Switch;
#X obj 1400 923 s Dist3_Switch;
#X obj 1675 760 s Dist_Switch_Sum;
#X obj 1400 358 r Dist3_Trigger;
#X obj 1190 358 r Dist2_Trigger;
#X obj 985 358 r Dist1_Trigger;
#X obj 1229 517 r Dist_Switch_Sum;
#X obj 956 15 r Visual_Pulse1_Dist1_Switch;
#X obj 956 45 r Visual_Pulse2_Dist1_Switch;
#X obj 956 75 r Visual_Saw1_Dist1_Switch;
#X obj 956 105 r Visual_Saw2_Dist1_Switch;
#X obj 956 135 r Visual_Sine_Dist1_Switch;
#X obj 1170 15 r Visual_Pulse1_Dist2_Switch;
#X obj 1170 45 r Visual_Pulse2_Dist2_Switch;
#X obj 1170 75 r Visual_Saw1_Dist2_Switch;
#X obj 1170 105 r Visual_Saw2_Dist2_Switch;
#X obj 1170 135 r Visual_Sine_Dist2_Switch;
#X obj 1380 15 r Visual_Pulse1_Dist3_Switch;
#X obj 1380 45 r Visual_Pulse2_Dist3_Switch;
#X obj 1380 75 r Visual_Saw1_Dist3_Switch;
#X obj 1380 105 r Visual_Saw2_Dist3_Switch;
#X obj 1380 135 r Visual_Sine_Dist3_Switch;
#X obj 545 301 cnv 15 122 134 empty empty empty 20 12 0 14 -261494
-66577 0;
#X obj 561 377 tgl 30 0 empty empty Bypass 34 15 0 16 -66577 -258113
-1 1 1;
#X obj 561 412 s Dist_Bypass;
#X obj 592 564 r Visual_Pulse1_Dist_Bypass;
#X obj 592 594 r Visual_Pulse2_Dist_Bypass;
#X obj 592 624 r Visual_Saw1_Dist_Bypass;
#X obj 592 654 r Visual_Saw2_Dist_Bypass;
#X obj 592 684 r Visual_Sine_Dist_Bypass;
#X obj 557 333 hsl 96 15 1 4 0 0 empty empty Out_gain -2 -8 0 10 -262144
-1 -1 0 1;
#X obj 547 116 r Visual_Pulse1_Out_Gain;
#X obj 547 146 r Visual_Pulse2_Out_Gain;
#X obj 547 176 r Visual_Saw1_Out_Gain;
#X obj 547 206 r Visual_Saw2_Out_Gain;
#X obj 547 236 r Visual_Sine_Out_Gain;
#X obj 702 370 s Out_Gain;
#X connect 3 0 40 0;
#X connect 3 1 4 0;
#X connect 4 0 13 0;
#X connect 4 0 16 0;
#X connect 4 0 39 0;
#X connect 4 0 41 0;
#X connect 5 0 39 0;
#X connect 5 1 6 0;
#X connect 6 0 16 0;
#X connect 6 0 14 0;
#X connect 6 0 40 0;
#X connect 6 0 41 0;
#X connect 7 0 41 0;
#X connect 7 1 8 0;
#X connect 8 0 13 0;
#X connect 8 0 14 0;
#X connect 8 0 39 0;
#X connect 8 0 40 0;
#X connect 9 0 42 0;
#X connect 10 0 22 0;
#X connect 10 0 19 0;
#X connect 10 1 16 0;
#X connect 11 0 21 0;
#X connect 11 0 18 0;
#X connect 11 1 14 0;
#X connect 12 0 20 0;
#X connect 12 0 17 0;
#X connect 12 1 13 0;
#X connect 13 0 15 0;
#X connect 14 0 13 0;
#X connect 14 1 13 1;
#X connect 15 0 9 0;
#X connect 16 0 15 0;
#X connect 16 1 15 1;
#X connect 17 0 25 0;
#X connect 18 0 26 0;
#X connect 19 0 27 0;
#X connect 20 0 5 0;
#X connect 21 0 3 0;
#X connect 22 0 7 0;
#X connect 23 0 24 0;
#X connect 24 0 21 1;
#X connect 24 0 20 1;
#X connect 24 0 22 1;
#X connect 25 0 39 0;
#X connect 26 0 40 0;
#X connect 27 0 41 0;
#X connect 28 0 29 0;
#X connect 29 0 12 0;
#X connect 30 0 33 0;
#X connect 30 1 36 0;
#X connect 31 0 34 0;
#X connect 31 1 37 0;
#X connect 32 0 35 0;
#X connect 32 1 38 0;
#X connect 33 0 12 0;
#X connect 34 0 11 0;
#X connect 35 0 10 0;
#X connect 36 0 33 1;
#X connect 37 0 34 1;
#X connect 38 0 35 1;
#X connect 43 0 10 0;
#X connect 44 0 11 0;
#X connect 45 0 12 0;
#X connect 46 0 17 1;
#X connect 46 0 18 1;
#X connect 46 0 19 1;
#X connect 46 0 23 0;
#X connect 47 0 30 0;
#X connect 48 0 30 0;
#X connect 49 0 30 0;
#X connect 50 0 30 0;
#X connect 51 0 30 0;
#X connect 52 0 31 0;
#X connect 53 0 31 0;
#X connect 54 0 31 0;
#X connect 55 0 31 0;
#X connect 56 0 31 0;
#X connect 57 0 32 0;
#X connect 58 0 32 0;
#X connect 59 0 32 0;
#X connect 60 0 32 0;
#X connect 61 0 32 0;
#X connect 63 0 64 0;
#X connect 65 0 63 0;
#X connect 66 0 63 0;
#X connect 67 0 63 0;
#X connect 68 0 63 0;
#X connect 69 0 63 0;
#X connect 70 0 76 0;
#X connect 71 0 70 0;
#X connect 72 0 70 0;
#X connect 73 0 70 0;
#X connect 74 0 70 0;
#X connect 75 0 70 0;
#X coords 0 -1 1 1 518 136 2 150 300;
#X restore 548 718 pd Distortion;
#N canvas -9 -9 1920 976 Operator_selector 0;
#X obj 201 201 cnv 15 516 120 empty empty empty 20 12 0 14 -233017
-66577 0;
#X obj 229 221 bng 60 250 50 0 empty empty Pulse_1 0 -10 0 15 -262144
-1 -1;
#X obj 329 221 bng 60 250 50 0 empty empty Pulse_2 0 -10 0 15 -262144
-1 -1;
#X msg 158 544 1;
#X obj 229 494 t b b b;
#X obj 489 903 s Pulse2_Osc_Spigot;
#X obj 252 710 s Init_Pulse1;
#X obj 211 111 loadbang;
#X obj 429 221 bng 60 250 50 0 empty empty Saw_1 0 -10 0 15 -262144
-1 -1;
#X obj 252 683 spigot;
#X obj 158 572 s Pulse1_1;
#X obj 275 549 s Pulse1_0;
#X msg 275 521 0;
#X obj 428 859 r Pulse1_0;
#X msg 197 544 0;
#X msg 392 547 1;
#X obj 463 497 t b b b;
#X obj 486 689 spigot;
#X msg 509 524 0;
#X msg 431 547 0;
#X obj 392 575 s Pulse2_1;
#X obj 486 716 s Init_Pulse2;
#X obj 509 552 s Pulse2_0;
#X obj 525 598 r Pulse1_1;
#X obj 535 628 r Saw1_1;
#X obj 428 828 r Saw1_0;
#X obj 508 859 r Pulse2_1;
#X obj 188 828 r Saw1_0;
#X obj 249 903 s Pulse1_Osc_Spigot;
#X obj 188 859 r Pulse2_0;
#X obj 268 859 r Pulse1_1;
#X obj 301 638 r Saw1_1;
#X obj 698 859 r Pulse1_0;
#X msg 662 547 1;
#X obj 733 497 t b b b;
#X obj 756 689 spigot;
#X msg 779 524 0;
#X msg 701 547 0;
#X obj 795 598 r Pulse1_1;
#X obj 662 575 s Saw1_1;
#X obj 698 828 r Pulse2_0;
#X obj 778 859 r Saw1_1;
#X obj 756 716 s Init_Saw1;
#X obj 805 628 r Pulse2_1;
#X obj 779 552 s Saw1_0;
#X obj 291 608 r Pulse2_1;
#X obj 211 137 t b b;
#X msg 344 146 1;
#X obj 759 903 s Saw1_Osc_Spigot;
#X obj 968 859 r Pulse1_0;
#X msg 932 547 1;
#X obj 1003 497 t b b b;
#X obj 1026 689 spigot;
#X msg 1049 524 0;
#X msg 971 547 0;
#X obj 1065 598 r Pulse1_1;
#X obj 968 828 r Pulse2_0;
#X obj 1075 628 r Pulse2_1;
#X obj 529 221 bng 60 250 50 0 empty empty Saw_2 0 -10 0 15 -262144
-1 -1;
#X obj 932 575 s Saw2_1;
#X obj 1049 552 s Saw2_0;
#X obj 605 628 r Saw2_1;
#X obj 371 638 r Saw2_1;
#X obj 885 628 r Saw2_1;
#X obj 1155 628 r Saw1_1;
#X obj 1027 716 s Init_Saw2;
#X obj 1048 859 r Saw2_1;
#X obj 968 797 r Saw1_0;
#X obj 428 797 r Saw2_0;
#X obj 698 797 r Saw2_0;
#X obj 188 797 r Saw2_0;
#X obj 1029 903 s Saw2_Osc_Spigot;
#X text 987 30 Ce patch gère le fonctionnement de l'interface utilisateur.
En cliquant sur le bouton Saw2 par exemple: Premièrement \, on bloque
l'envoi d'info depuis l'interface dans les autres opérateurs. Ce que
l'utilisateur fera plus tard ne sera donc pas pris en compte dans les
mémoires de ces opérateur. En 2eme étape \, on envoie les données
relatives à l'opérateur Saw2 vers l'interface pour les afficher.
Et 3èmement \, on ouvre les entrée de Saw2 à l'arrivée d'informations
\, pour que ce que modifie l'utilisateur soit gardé en mémoire.;
#X obj 228 291 tgl 25 0 empty empty Mute 27 7 0 10 -1 -258113 -1 0
1;
#X obj 328 291 tgl 25 0 empty empty Mute 27 7 0 10 -1 -258113 -1 0
1;
#X obj 428 291 tgl 25 0 empty empty Mute 27 7 0 10 -1 -258113 -1 0
1;
#X obj 528 291 tgl 25 0 empty empty Mute 27 7 0 10 -1 -258113 -1 0
1;
#X obj 547 48 loadbang;
#X msg 547 74 0;
#X obj 228 321 s Pulse1_Mute;
#X obj 328 351 s Pulse2_Mute;
#X obj 428 321 s Saw1_Mute;
#X obj 528 351 s Saw2_Mute;
#X obj 629 221 bng 60 250 50 0 empty empty Sine 0 -10 0 15 -262144
-1 -1;
#X obj 628 291 tgl 25 0 empty empty Mute 27 7 0 10 -1 -258113 -1 0
1;
#X obj 628 321 s Sine_Mute;
#X msg 1212 547 1;
#X obj 1283 497 t b b b;
#X obj 1306 689 spigot;
#X msg 1329 524 0;
#X msg 1251 547 0;
#X obj 1345 598 r Pulse1_1;
#X obj 1355 628 r Pulse2_1;
#X obj 1307 716 s Init_Sine;
#X obj 1248 859 r Pulse1_0;
#X obj 1248 828 r Pulse2_0;
#X obj 1248 797 r Saw1_0;
#X obj 1309 903 s Sine_Osc_Spigot;
#X obj 1425 598 r Saw1_1;
#X obj 1435 628 r Saw2_1;
#X obj 1145 598 r Sine_1;
#X obj 875 598 r Sine_1;
#X obj 605 598 r Sine_1;
#X obj 371 608 r Sine_1;
#X obj 1329 552 s Sine_0;
#X obj 1212 575 s Sine_1;
#X obj 1328 859 r Sine_1;
#X obj 968 766 r Sine_0;
#X obj 698 766 r Sine_0;
#X obj 428 766 r Sine_0;
#X obj 188 766 r Sine_0;
#X obj 1248 766 r Saw2_0;
#X connect 1 0 4 0;
#X connect 2 0 16 0;
#X connect 3 0 10 0;
#X connect 4 0 3 0;
#X connect 4 0 14 0;
#X connect 4 1 9 0;
#X connect 4 2 12 0;
#X connect 7 0 46 0;
#X connect 8 0 34 0;
#X connect 9 0 6 0;
#X connect 12 0 11 0;
#X connect 13 0 5 0;
#X connect 14 0 9 1;
#X connect 15 0 20 0;
#X connect 16 0 15 0;
#X connect 16 0 19 0;
#X connect 16 1 17 0;
#X connect 16 2 18 0;
#X connect 17 0 21 0;
#X connect 18 0 22 0;
#X connect 19 0 17 1;
#X connect 23 0 17 1;
#X connect 24 0 17 1;
#X connect 25 0 5 0;
#X connect 26 0 5 0;
#X connect 27 0 28 0;
#X connect 29 0 28 0;
#X connect 30 0 28 0;
#X connect 31 0 9 1;
#X connect 32 0 48 0;
#X connect 33 0 39 0;
#X connect 34 0 33 0;
#X connect 34 0 37 0;
#X connect 34 1 35 0;
#X connect 34 2 36 0;
#X connect 35 0 42 0;
#X connect 36 0 44 0;
#X connect 37 0 35 1;
#X connect 38 0 35 1;
#X connect 40 0 48 0;
#X connect 41 0 48 0;
#X connect 43 0 35 1;
#X connect 45 0 9 1;
#X connect 46 0 1 0;
#X connect 46 1 47 0;
#X connect 47 0 9 1;
#X connect 49 0 71 0;
#X connect 50 0 59 0;
#X connect 51 0 50 0;
#X connect 51 0 54 0;
#X connect 51 1 52 0;
#X connect 51 2 53 0;
#X connect 52 0 65 0;
#X connect 53 0 60 0;
#X connect 54 0 52 1;
#X connect 55 0 52 1;
#X connect 56 0 71 0;
#X connect 57 0 52 1;
#X connect 58 0 51 0;
#X connect 61 0 17 1;
#X connect 62 0 9 1;
#X connect 63 0 35 1;
#X connect 64 0 52 1;
#X connect 66 0 71 0;
#X connect 67 0 71 0;
#X connect 68 0 5 0;
#X connect 69 0 48 0;
#X connect 70 0 28 0;
#X connect 73 0 79 0;
#X connect 74 0 80 0;
#X connect 75 0 81 0;
#X connect 76 0 82 0;
#X connect 77 0 78 0;
#X connect 78 0 73 0;
#X connect 78 0 74 0;
#X connect 78 0 75 0;
#X connect 78 0 76 0;
#X connect 78 0 84 0;
#X connect 83 0 87 0;
#X connect 84 0 85 0;
#X connect 86 0 105 0;
#X connect 87 0 86 0;
#X connect 87 0 90 0;
#X connect 87 1 88 0;
#X connect 87 2 89 0;
#X connect 88 0 93 0;
#X connect 89 0 104 0;
#X connect 90 0 88 1;
#X connect 91 0 88 1;
#X connect 92 0 88 1;
#X connect 94 0 97 0;
#X connect 95 0 97 0;
#X connect 96 0 97 0;
#X connect 98 0 88 1;
#X connect 99 0 88 1;
#X connect 100 0 52 1;
#X connect 101 0 35 1;
#X connect 102 0 17 1;
#X connect 103 0 9 1;
#X connect 106 0 97 0;
#X connect 107 0 71 0;
#X connect 108 0 48 0;
#X connect 109 0 5 0;
#X connect 110 0 28 0;
#X connect 111 0 97 0;
#X coords 0 -1 1 1 518 122 2 200 200;
#X restore 549 14 pd Operator_selector;
#N canvas -9 -9 1920 976 Central_Interface 0;
#X obj 101 101 cnv 15 401 250 empty empty empty 20 12 0 14 -233017
-66577 0;
#X obj 116 132 tgl 60 0 empty empty empty 17 7 0 10 -1 -258113 -1 0
1;
#X msg 12 84 \; pd dsp \$1;
#X obj 568 190 env~;
#X obj 568 214 - 100;
#X obj 437 203 vu 15 120 empty empty -1 -8 0 10 -66577 -1 1 0;
#X obj 685 199 metro;
#X obj 685 228 tabwrite~ oscil;
#X obj 729 199 r~ SCOP;
#X obj 685 116 r SWITCH;
#X obj 57 20 s SWITCH;
#X obj 568 166 r~ SCOP;
#X obj 213 193 cnv 15 200 140 empty empty empty 20 12 0 14 -262144
-66577 0;
#N canvas 0 50 450 250 (subpatch) 0;
#X array oscil 2048 float 2;
#X coords 0 1 2048 -1 200 140 1 0 0;
#X restore 213 193 graph;
#X obj 117 103 cnv 15 220 20 empty empty DEMARRER_LE_PATCH 20 12 0
14 -262144 -66577 0;
#N canvas 0 0 1223 966 control 0;
#X obj 100 138 s Do_Midi;
#X obj 100 100 tgl 30 0 empty empty empty 17 7 0 10 -1 -4034 -1 1 1
;
#X msg 100 72 1;
#X obj 192 100 tgl 30 0 empty empty empty 17 7 0 10 -1 -4034 -1 0 1
;
#X obj 192 138 s Do_KB;
#X text 133 104 MIDI;
#X text 227 103 PC keyboard;
#X msg 192 72 0;
#X obj 100 45 loadbang;
#X obj 192 45 loadbang;
#X connect 1 0 0 0;
#X connect 2 0 1 0;
#X connect 3 0 4 0;
#X connect 7 0 3 0;
#X connect 8 0 2 0;
#X connect 9 0 7 0;
#X coords 0 -1 1 1 208 30 2 100 100;
#X restore 211 132 pd control;
#X obj 717 147 loadbang;
#X msg 717 166 50;
#X obj 80 566 notein 1;
#N canvas -9 -9 1920 976 Keyboard-play 0;
#X obj 211 41 key;
#X msg 262 590 60, f 2;
#X msg 285 590 61, f 2;
#X msg 311 590 62, f 2;
#X msg 338 590 63, f 2;
#X msg 362 590 64, f 2;
#X msg 390 590 65, f 2;
#X msg 416 590 66, f 2;
#X msg 439 590 67, f 2;
#X msg 465 590 68, f 2;
#X floatatom 543 705 5 0 0 0 - - -;
#X msg 489 590 69, f 2;
#X msg 515 590 70, f 2;
#X msg 543 590 71, f 2;
#X msg 571 590 72, f 2;
#X obj 325 41 keyup;
#X obj 773 250 outlet;
#X msg 773 201 111;
#X msg 598 590 73, f 2;
#X msg 628 590 74, f 2;
#X msg 656 590 75, f 2;
#X msg 680 590 76, f 2;
#X msg 703 590 77, f 2;
#X msg 726 590 78, f 2;
#X msg 750 590 79, f 2;
#X msg 774 590 80, f 2;
#X msg 798 590 59, f 2;
#X msg 823 590 58, f 2;
#X msg 846 590 57, f 2;
#X msg 870 590 56, f 2;
#X msg 894 590 55, f 2;
#X msg 919 590 54, f 2;
#X msg 944 590 53, f 2;
#X msg 967 590 52, f 2;
#X msg 992 590 51, f 2;
#X msg 1017 590 50, f 2;
#X msg 1040 590 49, f 2;
#X msg 1069 590 48, f 2;
#X obj 211 509 sel 97 233 122 34 101 114 40 116 45 121 232 117 105
231 111 224 112 0 61 31 36 59 44 106 110 104 98 103 118 99 100 120
115 119 108 58 109 33, f 145;
#X obj 543 731 outlet;
#X obj 211 67 spigot;
#X obj 272 299 !=;
#X obj 211 299 spigot;
#X obj 211 268 t f f;
#X obj 325 99 t f f;
#X obj 325 70 spigot;
#X obj 218 329 s KB-play_bang_vel;
#X obj 773 152 r KB-play_bang_vel;
#X msg 676 152 0;
#X msg 290 272 0;
#X floatatom 211 458 5 0 0 0 - - -;
#X obj 290 162 ==;
#X obj 290 189 t b f;
#X obj 290 216 spigot;
#X obj 371 41 r Do_KB;
#X obj 250 41 r Do_KB;
#X obj 320 242 loadbang;
#X connect 0 0 40 0;
#X connect 1 0 10 0;
#X connect 2 0 10 0;
#X connect 3 0 10 0;
#X connect 4 0 10 0;
#X connect 5 0 10 0;
#X connect 6 0 10 0;
#X connect 7 0 10 0;
#X connect 8 0 10 0;
#X connect 9 0 10 0;
#X connect 10 0 39 0;
#X connect 11 0 10 0;
#X connect 12 0 10 0;
#X connect 13 0 10 0;
#X connect 14 0 10 0;
#X connect 15 0 45 0;
#X connect 17 0 16 0;
#X connect 18 0 10 0;
#X connect 19 0 10 0;
#X connect 20 0 10 0;
#X connect 21 0 10 0;
#X connect 22 0 10 0;
#X connect 23 0 10 0;
#X connect 24 0 10 0;
#X connect 25 0 10 0;
#X connect 26 0 10 0;
#X connect 27 0 10 0;
#X connect 28 0 10 0;
#X connect 29 0 10 0;
#X connect 30 0 10 0;
#X connect 31 0 10 0;
#X connect 32 0 10 0;
#X connect 33 0 10 0;
#X connect 34 0 10 0;
#X connect 35 0 10 0;
#X connect 36 0 10 0;
#X connect 37 0 10 0;
#X connect 38 0 1 0;
#X connect 38 1 2 0;
#X connect 38 2 3 0;
#X connect 38 3 4 0;
#X connect 38 4 5 0;
#X connect 38 5 6 0;
#X connect 38 6 7 0;
#X connect 38 7 8 0;
#X connect 38 8 9 0;
#X connect 38 9 11 0;
#X connect 38 10 12 0;
#X connect 38 11 13 0;
#X connect 38 12 14 0;
#X connect 38 13 18 0;
#X connect 38 14 19 0;
#X connect 38 15 20 0;
#X connect 38 16 21 0;
#X connect 38 20 25 0;
#X connect 38 21 1 0;
#X connect 38 22 26 0;
#X connect 38 23 27 0;
#X connect 38 24 28 0;
#X connect 38 25 29 0;
#X connect 38 26 30 0;
#X connect 38 27 31 0;
#X connect 38 28 32 0;
#X connect 38 29 33 0;
#X connect 38 30 34 0;
#X connect 38 31 35 0;
#X connect 38 32 36 0;
#X connect 38 33 37 0;
#X connect 38 34 2 0;
#X connect 38 35 3 0;
#X connect 38 36 4 0;
#X connect 38 37 5 0;
#X connect 40 0 43 0;
#X connect 40 0 51 1;
#X connect 41 0 42 1;
#X connect 42 0 41 1;
#X connect 42 0 46 0;
#X connect 42 0 50 0;
#X connect 43 0 42 0;
#X connect 43 1 41 0;
#X connect 44 0 50 0;
#X connect 44 0 51 0;
#X connect 44 1 48 0;
#X connect 45 0 44 0;
#X connect 47 0 17 0;
#X connect 48 0 16 0;
#X connect 49 0 41 1;
#X connect 50 0 38 0;
#X connect 51 0 52 0;
#X connect 52 0 53 0;
#X connect 52 1 53 1;
#X connect 53 0 49 0;
#X connect 54 0 45 1;
#X connect 55 0 40 1;
#X connect 56 0 49 0;
#X restore 103 652 pd Keyboard-play;
#X obj 80 628 spigot;
#X obj 119 601 r Do_Midi;
#X obj 244 636 spigot;
#X obj 283 609 r Do_Midi;
#X obj 80 783 pack \$1 \$2;
#X obj 80 811 s Note_On;
#X text 79 525 Ensemble de patch reçevant les info MIDI \, et les
transformant en une liste d'une note MIDI et d'une vélocité;
#X text 685 88 Fait fontionner l'oscilloscope;
#X obj 1242 104 Pulse1_Patch;
#X obj 1242 135 Saw1_Patch;
#X obj 1342 104 Pulse2_Patch;
#X obj 1342 135 Saw2_Patch;
#X obj 1242 166 Sine_Patch;
#N canvas -9 -9 1920 976 FM_Matrix 0;
#X text 36 3 1;
#X text 77 3 2;
#X text 117 3 3;
#X text 157 3 4;
#X text 196 3 5;
#X text 7 39 1;
#X text 7 80 2;
#X text 7 126 3;
#X text 7 170 4;
#X text 7 216 5;
#X obj 28 77 vsl 30 30 0 1 0 0 empty empty empty 0 -9 0 10 -262144
-1 -1 0 1;
#X obj 28 122 vsl 30 30 0 1 0 0 empty empty empty 0 -9 0 10 -262144
-1 -1 0 1;
#X obj 28 167 vsl 30 30 0 1 0 0 empty empty empty 0 -9 0 10 -262144
-1 -1 0 1;
#X obj 28 212 vsl 30 30 0 1 0 0 empty empty empty 0 -9 0 10 -262144
-1 -1 0 1;
#X obj 68 32 vsl 30 30 0 1 0 0 empty empty empty 0 -9 0 10 -262144
-1 -1 0 1;
#X obj 68 122 vsl 30 30 0 1 0 0 empty empty empty 0 -9 0 10 -262144
-1 -1 0 1;
#X obj 68 167 vsl 30 30 0 1 0 0 empty empty empty 0 -9 0 10 -262144
-1 -1 0 1;
#X obj 68 212 vsl 30 30 0 1 0 0 empty empty empty 0 -9 0 10 -262144
-1 -1 0 1;
#X obj 108 32 vsl 30 30 0 1 0 0 empty empty empty 0 -9 0 10 -262144
-1 -1 0 1;
#X obj 108 77 vsl 30 30 0 1 0 0 empty empty empty 0 -9 0 10 -262144
-1 -1 0 1;
#X obj 108 167 vsl 30 30 0 1 0 0 empty empty empty 0 -9 0 10 -262144
-1 -1 0 1;
#X obj 108 212 vsl 30 30 0 1 0 0 empty empty empty 0 -9 0 10 -262144
-1 -1 0 1;
#X obj 148 32 vsl 30 30 0 1 0 0 empty empty empty 0 -9 0 10 -262144
-1 -1 0 1;
#X obj 148 77 vsl 30 30 0 1 0 0 empty empty empty 0 -9 0 10 -262144
-1 -1 0 1;
#X obj 148 122 vsl 30 30 0 1 0 0 empty empty empty 0 -9 0 10 -262144
-1 -1 0 1;
#X obj 148 212 vsl 30 30 0 1 0 0 empty empty empty 0 -9 0 10 -262144
-1 -1 0 1;
#X obj 188 32 vsl 30 30 0 1 0 0 empty empty empty 0 -9 0 10 -262144
-1 -1 0 1;
#X obj 188 77 vsl 30 30 0 1 0 0 empty empty empty 0 -9 0 10 -262144
-1 -1 0 1;
#X obj 188 122 vsl 30 30 0 1 0 0 empty empty empty 0 -9 0 10 -262144
-1 -1 0 1;
#X obj 188 167 vsl 30 30 0 1 0 0 empty empty empty 0 -9 0 10 -262144
-1 -1 0 1;
#X obj 28 618 s Op1_Moding_Op5;
#X obj 68 588 s Op2_Moding_Op5;
#X obj 108 558 s Op3_Moding_Op5;
#X obj 148 528 s Op4_Moding_Op5;
#X obj 438 528 s Op5_Moding_Op4;
#X obj 358 558 s Op3_Moding_Op4;
#X obj 318 587 s Op2_Moding_Op4;
#X obj 278 618 s Op1_Moding_Op4;
#X obj 588 508 s Op1_Moding_Op3;
#X obj 628 477 s Op2_Moding_Op3;
#X obj 628 348 s Op1_Moding_Op2;
#X obj 708 448 s Op4_Moding_Op3;
#X obj 748 418 s Op5_Moding_Op3;
#X obj 668 317 s Op3_Moding_Op2;
#X obj 788 258 s Op5_Moding_Op2;
#X obj 748 288 s Op4_Moding_Op2;
#X obj 628 238 s Op2_Moding_Op1;
#X obj 668 207 s Op3_Moding_Op1;
#X obj 748 178 s Op4_Moding_Op1;
#X obj 788 148 s Op5_Moding_Op1;
#X text 226 37 -> Mod_Out;
#X text 226 82 -> Mod_Out;
#X text 226 127 -> Mod_Out;
#X text 226 171 -> Mod_Out;
#X text 226 214 -> Mod_Out;
#X text 1147 90 Objet pour le moment non utilisé;
#X connect 10 0 40 0;
#X connect 11 0 38 0;
#X connect 12 0 37 0;
#X connect 13 0 30 0;
#X connect 14 0 46 0;
#X connect 15 0 39 0;
#X connect 16 0 36 0;
#X connect 17 0 31 0;
#X connect 18 0 47 0;
#X connect 19 0 43 0;
#X connect 20 0 35 0;
#X connect 21 0 32 0;
#X connect 22 0 48 0;
#X connect 23 0 45 0;
#X connect 24 0 41 0;
#X connect 25 0 33 0;
#X connect 26 0 49 0;
#X connect 27 0 44 0;
#X connect 28 0 42 0;
#X connect 29 0 34 0;
#X coords 0 976 1 975 310 259 0;
#X restore 1342 166 pd FM_Matrix;
#X text 1234 59 Esnemble des patchs contenant les opérateurs;
#X obj 1270 487 r Note_On;
#N canvas -9 -9 1920 976 Legato_Memory_Patch 0;
#N canvas 0 22 450 300 (subpatch) 0;
#X array Legato_Memory 20 float 3;
#A 0 0 0 0 0 0 0 0 0 0 0 0 0 0 0 0 0 0 0 0 0;
#X coords 0 109 20 0 250 200 2 0 0;
#X restore 1584 72 graph;
#X obj 60 34 unpack;
#X obj 99 114 == 0;
#X obj 60 150 spigot;
#X obj 540 224 * -1;
#X obj 540 250 + 1;
#X obj 501 276 spigot;
#X obj 947 80 int;
#X obj 987 132 int;
#X obj 987 158 + 1;
#X obj 947 106 - 1;
#X obj 947 198 clip 0 20;
#X obj 106 335 int;
#X obj 106 361 + 1;
#X obj 162 337 f;
#X obj 106 309 until;
#X msg 106 258 20;
#X msg 180 309 -1;
#X obj 162 532 ==;
#X obj 162 558 sel 1;
#X obj 106 203 t b f;
#X obj 185 689 list split;
#X obj 185 741 list;
#X obj 185 715 list split;
#X obj 185 767 t list b;
#X obj 266 689 + 1;
#X text 448 626 x number of points \, [onset \; x[ \, or -1 for end
of array, f 30;
#X obj 1330 45 loadbang;
#N canvas 0 22 450 300 (subpatch) 0;
#X array Legato_Vel_Memory 20 float 2;
#X coords 0 127 20 0 250 200 2 0 0;
#X restore 1586 336 graph;
#X obj 1330 309 loadbang;
#X obj 99 60 t f f;
#X obj 1026 132 loadbang;
#X msg 1026 158 0;
#X obj 162 584 t b b b;
#X text 1411 307 The graph contains Velocity Datas;
#X text 695 217 This indicates the number of notes;
#X obj 60 8 inlet;
#X obj 293 330 loadbang;
#X obj 501 302 t b b b f;
#X obj 60 176 t b b f;
#X obj 1222 517 cnv 40 690 440 empty empty empty 20 12 0 14 -228856
-66577 0;
#X obj 1249 632 f;
#X obj 1579 632 f;
#X obj 1249 727 list split;
#X obj 1249 779 list;
#X obj 1249 753 list split;
#X obj 1249 805 t list b;
#X obj 1331 727 + 1;
#X text 1248 528 removes the corresponding Velocity from the graph
, f 35;
#X text 1576 535 adds the velocity o the graph;
#X text 108 31 the right outlet always bangs first;
#X obj 247 385 == 19;
#X obj 208 410 spigot;
#X obj 162 364 t f f f f;
#X text 1400 45 The graph contains MIDI_note datas;
#X msg 1330 72 \; Legato_Memory const 0;
#X msg 1330 336 \; Legato_Vel_Memory const 0;
#X obj 1249 579 r Legato_Vel_Remove;
#X obj 1267 605 r Legato_Velocity;
#X obj 1342 632 r Legato_Size_List;
#X obj 1579 580 r Legato_Vel_Add;
#X obj 1597 606 r Legato_Velocity;
#X obj 1758 623 r Legato_Size_List;
#X obj 1361 727 r Legato_Array_Position;
#X obj 1331 753 r Legato_Array_Position;
#X msg 1302 831 \; Legato_Vel_Memory const 0;
#X obj 1249 873 array set Legato_Vel_Memory, f 24;
#X obj 1579 659 tabwrite Legato_Vel_Memory;
#X obj 947 224 s Legato_Size_List;
#X obj 1005 106 r Legato_Size_List;
#X obj 987 80 r Legato_Size_List_Up;
#X obj 965 54 r Legato_Size_List;
#X obj 947 28 r Legato_Size_List_Down;
#X obj 561 409 tabwrite Legato_Memory;
#X obj 541 446 s Legato_Vel_Add;
#X obj 521 476 s Legato_Size_List_Up;
#X obj 501 506 s Legato_List_Up;
#X obj 138 283 r Legato_Remove_Stop_Until;
#X obj 138 230 s Legato_Note_To_Remove;
#X obj 131 87 s Legato_Velocity;
#X obj 182 450 s Legato_Array_Position;
#X obj 162 480 tabread Legato_Memory;
#X obj 180 506 r Legato_Note_To_Remove;
#X obj 208 610 s Legato_Remove_Stop_Until;
#X obj 264 636 r Legato_Size_List;
#X obj 185 663 array get Legato_Memory;
#X obj 296 689 r Legato_Array_Position;
#X obj 266 715 r Legato_Array_Position;
#X msg 238 793 \; Legato_Memory const 0;
#X obj 185 835 array set Legato_Memory, f 20;
#X obj 162 877 s Legato_Vel_Remove;
#X obj 83 904 s Legato_Size_List_Down;
#X obj 60 934 s Legato_List_Down;
#X obj 1249 659 array get Legato_Vel_Memory;
#X obj 712 381 r Legato_Size_List;
#X connect 1 0 3 0;
#X connect 1 0 6 0;
#X connect 1 1 30 0;
#X connect 2 0 4 0;
#X connect 2 0 3 1;
#X connect 3 0 39 0;
#X connect 4 0 5 0;
#X connect 5 0 6 1;
#X connect 6 0 38 0;
#X connect 7 0 10 0;
#X connect 8 0 9 0;
#X connect 9 0 11 0;
#X connect 10 0 11 0;
#X connect 11 0 68 0;
#X connect 12 0 13 0;
#X connect 13 0 14 0;
#X connect 14 0 12 1;
#X connect 14 0 53 0;
#X connect 15 0 12 0;
#X connect 16 0 15 0;
#X connect 17 0 14 1;
#X connect 17 0 12 1;
#X connect 18 0 19 0;
#X connect 19 0 33 0;
#X connect 20 0 16 0;
#X connect 20 1 78 0;
#X connect 21 0 23 0;
#X connect 21 1 22 1;
#X connect 22 0 24 0;
#X connect 23 0 22 0;
#X connect 24 0 89 0;
#X connect 24 1 88 0;
#X connect 25 0 21 1;
#X connect 27 0 55 0;
#X connect 29 0 56 0;
#X connect 30 0 2 0;
#X connect 30 1 79 0;
#X connect 31 0 32 0;
#X connect 32 0 11 0;
#X connect 33 0 90 0;
#X connect 33 1 85 0;
#X connect 33 2 83 0;
#X connect 36 0 1 0;
#X connect 37 0 17 0;
#X connect 38 0 76 0;
#X connect 38 1 75 0;
#X connect 38 2 74 0;
#X connect 38 3 73 0;
#X connect 39 0 92 0;
#X connect 39 1 91 0;
#X connect 39 2 20 0;
#X connect 41 0 93 0;
#X connect 42 0 67 0;
#X connect 43 0 45 0;
#X connect 43 1 44 1;
#X connect 44 0 46 0;
#X connect 45 0 44 0;
#X connect 46 0 66 0;
#X connect 46 1 65 0;
#X connect 47 0 43 1;
#X connect 51 0 52 1;
#X connect 52 0 17 0;
#X connect 53 0 81 0;
#X connect 53 1 80 0;
#X connect 53 2 52 0;
#X connect 53 3 51 0;
#X connect 57 0 41 0;
#X connect 58 0 41 1;
#X connect 59 0 93 1;
#X connect 60 0 42 0;
#X connect 61 0 42 1;
#X connect 62 0 67 1;
#X connect 63 0 47 0;
#X connect 64 0 45 1;
#X connect 69 0 8 1;
#X connect 70 0 8 0;
#X connect 71 0 7 1;
#X connect 72 0 7 0;
#X connect 77 0 15 1;
#X connect 77 0 17 0;
#X connect 81 0 18 0;
#X connect 82 0 18 1;
#X connect 84 0 85 1;
#X connect 85 0 21 0;
#X connect 86 0 25 0;
#X connect 87 0 23 1;
#X connect 93 0 43 0;
#X connect 94 0 73 1;
#X restore 1270 516 pd Legato_Memory_Patch;
#N canvas -9 -9 1920 976 Legato_Note_Velocity_Live_Calcul_Patch 0;
#X obj 621 636 line, f 8;
#X msg 621 570 1 \$2;
#X obj 621 542 pack f f;
#X obj 621 688 pow;
#X obj 621 741 *;
#X obj 621 279 t f b b b, f 12;
#X msg 702 599 stop;
#X msg 675 570 set 0;
#X obj 648 336 f;
#X obj 621 413 -;
#X obj 621 439 t b f;
#X obj 621 793 +;
#X msg 767 266 60;
#X obj 767 240 loadbang;
#X obj 1104 84 != 0;
#X obj 1065 110 spigot;
#X obj 979 84 - 1;
#X obj 979 110 clip 0 20;
#X obj 961 141 f;
#X obj 1261 636 line, f 8;
#X msg 1261 570 1 \$2;
#X obj 1261 542 pack f f;
#X obj 1261 688 pow;
#X obj 1261 741 *;
#X obj 1261 279 t f b b b, f 12;
#X msg 1342 599 stop;
#X msg 1315 570 set 0;
#X obj 1288 336 f;
#X obj 1261 413 -;
#X obj 1261 439 t b f;
#X obj 1261 793 +;
#X obj 1407 240 loadbang;
#X msg 1407 266 0;
#X obj 1065 5 inlet;
#X obj 621 939 outlet;
#X obj 1261 849 outlet;
#X obj 964 476 r Legato_Slide_Time;
#X obj 957 625 r Legato_Curve_Ratio;
#X obj 979 57 r Legato_Size_List;
#X obj 621 219 tabread Legato_Memory;
#X obj 1261 219 tabread Legato_Vel_Memory;
#X obj 1306 310 r Legato_Final_Vel;
#X obj 1288 362 s Legato_Starting_Vel;
#X obj 1293 465 s Legato_Vel_Delta;
#X obj 1279 714 r Legato_Vel_Delta;
#X obj 1279 767 r Legato_Starting_Vel;
#X obj 635 823 s Legato_Final_Note;
#X obj 639 767 r Legato_Starting_Note;
#X obj 639 714 r Legato_Note_Delta;
#X obj 653 465 s Legato_Note_Delta;
#X obj 648 362 s Legato_Starting_Note;
#X obj 666 310 r Legato_Final_Note;
#X obj 1274 823 s Legato_Final_Vel;
#X obj 630 883 t b f;
#X obj 621 908 +;
#X obj 630 858 r BEND;
#X connect 0 0 3 0;
#X connect 1 0 0 0;
#X connect 2 0 1 0;
#X connect 3 0 4 0;
#X connect 4 0 11 0;
#X connect 5 0 9 0;
#X connect 5 1 8 0;
#X connect 5 2 7 0;
#X connect 5 3 6 0;
#X connect 6 0 0 0;
#X connect 7 0 0 0;
#X connect 8 0 9 1;
#X connect 8 0 50 0;
#X connect 9 0 10 0;
#X connect 10 0 2 0;
#X connect 10 1 49 0;
#X connect 11 0 46 0;
#X connect 11 0 54 0;
#X connect 12 0 8 1;
#X connect 13 0 12 0;
#X connect 14 0 15 1;
#X connect 15 0 18 0;
#X connect 16 0 17 0;
#X connect 17 0 18 1;
#X connect 18 0 39 0;
#X connect 18 0 40 0;
#X connect 19 0 22 0;
#X connect 20 0 19 0;
#X connect 21 0 20 0;
#X connect 22 0 23 0;
#X connect 23 0 30 0;
#X connect 24 0 28 0;
#X connect 24 1 27 0;
#X connect 24 2 26 0;
#X connect 24 3 25 0;
#X connect 25 0 19 0;
#X connect 26 0 19 0;
#X connect 27 0 28 1;
#X connect 27 0 42 0;
#X connect 28 0 29 0;
#X connect 29 0 21 0;
#X connect 29 1 43 0;
#X connect 30 0 35 0;
#X connect 30 0 52 0;
#X connect 31 0 32 0;
#X connect 32 0 27 1;
#X connect 33 0 15 0;
#X connect 36 0 2 1;
#X connect 36 0 21 1;
#X connect 37 0 22 1;
#X connect 37 0 3 1;
#X connect 38 0 14 0;
#X connect 38 0 16 0;
#X connect 39 0 5 0;
#X connect 40 0 24 0;
#X connect 41 0 27 1;
#X connect 44 0 23 1;
#X connect 45 0 30 1;
#X connect 47 0 11 1;
#X connect 48 0 4 1;
#X connect 51 0 8 1;
#X connect 53 0 54 0;
#X connect 53 1 54 1;
#X connect 54 0 34 0;
#X connect 55 0 53 0;
#X restore 1270 615 pd Legato_Note_Velocity_Live_Calcul_Patch;
#X obj 1277 588 r Legato_List_Down;
#X obj 1270 561 r Legato_List_Up;
#X obj 1247 676 s Legato_Note;
#X obj 1518 688 s Legato_Vel;
#X text 1368 481 Legato;
#X connect 1 0 2 0;
#X connect 1 0 10 0;
#X connect 3 0 4 0;
#X connect 4 0 5 0;
#X connect 6 0 7 0;
#X connect 8 0 7 0;
#X connect 9 0 6 0;
#X connect 11 0 3 0;
#X connect 16 0 17 0;
#X connect 17 0 6 1;
#X connect 18 0 20 0;
#X connect 18 1 22 0;
#X connect 19 0 24 0;
#X connect 19 1 24 1;
#X connect 20 0 24 0;
#X connect 21 0 20 1;
#X connect 22 0 24 1;
#X connect 23 0 22 1;
#X connect 24 0 25 0;
#X connect 35 0 36 0;
#X connect 37 0 40 0;
#X connect 37 1 41 0;
#X connect 38 0 37 0;
#X connect 39 0 37 0;
#X coords 0 -1 1 1 403 252 2 100 100;
#X restore 36 14 pd Central_Interface;
#N canvas -9 -9 1920 976 Legato_Datas 0;
#X obj 143 185 vsl 15 64 4 0.25 1 0 empty empty Curve 0 -9 0 10 -262144
-1 -1 3150 1;
#X msg 376 119 1;
#X obj 115 141 vsl 15 128 20 508 1 0 empty empty Legato_Slide_Time
0 -9 0 10 -262144 -1 -1 12700 1;
#X floatatom 115 277 5 0 0 0 - - -;
#X obj 115 347 s Legato_Slide_Time;
#X msg 114 77 30;
#X obj 114 29 loadbang;
#X obj 376 91 loadbang;
#X obj 211 316 s Legato_Curve_Ratio;
#X obj 145 150 bng 15 250 50 0 empty empty Reset 17 7 0 10 -262144
-1 -1;
#X obj 116 106 bng 15 250 50 0 empty empty Reset 17 7 0 10 -262144
-1 -1;
#X connect 0 0 8 0;
#X connect 1 0 0 0;
#X connect 2 0 3 0;
#X connect 3 0 4 0;
#X connect 5 0 2 0;
#X connect 6 0 5 0;
#X connect 7 0 1 0;
#X connect 9 0 1 0;
#X connect 10 0 5 0;
#X coords 0 -1 1 1 114 213 2 100 100;
#X restore 292 491 pd Legato_Datas;
#N canvas -9 -9 1920 976 Master_Volume 0;
#X obj 151 135 vsl 30 256 0 0.8 0 0 empty empty Master_volume -40 -15
0 18 -262144 -1 -1 9700 1;
#X obj 143 541 s MASTER;
#X floatatom 151 403 5 0 0 0 - - -;
#X connect 0 0 1 0;
#X connect 0 0 2 0;
#X coords 0 -1 1 1 153 338 2 100 100;
#X restore 36 491 pd Master_Volume;
#N canvas -9 -9 1920 976 Main_Output 0;
#X obj 568 821 r MASTER;
#X obj 570 906 dac~ 1 2;
#X obj 557 780 s~ SCOP;
#X obj 400 847 *~;
#X obj 775 847 *~;
#X obj 400 810 +~;
#X obj 775 810 +~;
#X obj 796 464 +~;
#N canvas -9 -9 1920 976 delay 0;
#X obj 116 88 inlet~;
#X obj 116 554 outlet~;
#X obj 506 88 inlet~;
#X obj 506 554 outlet~;
#X obj 506 314 *~;
#X obj 524 285 r Delay_Dry;
#X obj 116 314 *~;
#X obj 134 285 r Delay_Dry;
#N canvas -9 -9 1920 976 Delay_Subpatch 0;
#X obj 40 38 r Delay_Wet;
#X obj 40 64 != 0;
#X obj 40 90 switch~;
#X obj 324 905 outlet~;
#X obj 1034 905 outlet~;
#X obj 324 55 inlet~;
#X obj 1034 55 inlet~;
#N canvas -9 -9 1920 976 Normal_Delay 0;
#X obj 122 57 inlet~;
#X obj 932 57 inlet~;
#X obj 122 143 *~;
#X obj 932 128 *~;
#X obj 122 339 +~;
#X obj 932 314 +~;
#X obj 839 128 *~;
#X obj 212 141 *~;
#X obj 1334 185 +;
#X obj 1351 155 t b f;
#X obj 1334 211 switch~;
#X obj 140 116 r Normal;
#X obj 230 114 r Invert;
#X obj 857 101 r Invert;
#X obj 950 101 r Normal;
#X obj 1351 127 r Normal;
#X obj 1334 100 r Invert;
#X obj 122 653 sig~;
#X obj 122 516 *~ 0.5;
#X obj 211 489 r Delay_Volume_Decay;
#X obj 122 626 r Delay_Time;
#X obj 122 745 outlet~;
#X obj 932 653 sig~;
#X obj 932 516 *~ 0.5;
#X obj 1021 489 r Delay_Volume_Decay;
#X obj 932 626 r Delay_Time;
#X obj 932 745 outlet~;
#X obj 932 543 delwrite~ Delay_Normal_R 5000;
#X obj 932 679 vd~ Delay_Normal_R;
#X obj 944 706 s~ Delay_Normal_R_Loop;
#X obj 982 463 r~ Delay_Normal_R_Loop;
#X obj 122 543 delwrite~ Delay_Normal_L 5000;
#X obj 122 679 vd~ Delay_Normal_L;
#X obj 134 706 s~ Delay_Normal_L_Loop;
#X obj 172 463 r~ Delay_Normal_L_Loop;
#X connect 0 0 2 0;
#X connect 0 0 6 0;
#X connect 1 0 3 0;
#X connect 1 0 7 0;
#X connect 2 0 4 0;
#X connect 3 0 5 0;
#X connect 4 0 18 0;
#X connect 5 0 23 0;
#X connect 6 0 5 1;
#X connect 7 0 4 1;
#X connect 8 0 10 0;
#X connect 9 0 8 0;
#X connect 9 1 8 1;
#X connect 11 0 2 1;
#X connect 12 0 7 1;
#X connect 13 0 6 1;
#X connect 14 0 3 1;
#X connect 15 0 9 0;
#X connect 16 0 8 0;
#X connect 17 0 32 0;
#X connect 18 0 31 0;
#X connect 19 0 18 1;
#X connect 20 0 17 0;
#X connect 22 0 28 0;
#X connect 23 0 27 0;
#X connect 24 0 23 1;
#X connect 25 0 22 0;
#X connect 28 0 26 0;
#X connect 28 0 29 0;
#X connect 30 0 23 0;
#X connect 32 0 21 0;
#X connect 32 0 33 0;
#X connect 34 0 18 0;
#X restore 649 231 pd Normal_Delay;
#N canvas -9 -9 1920 976 Pingpong_Delay 0;
#X obj 122 347 *~;
#X obj 932 367 *~;
#X obj 1334 185 +;
#X obj 1351 155 t b f;
#X obj 1334 211 switch~;
#X obj 140 320 r Pingpong_Normal;
#X obj 950 339 r Pingpong_Invert;
#X obj 122 64 inlet~;
#X obj 932 74 inlet~;
#X obj 551 134 +~;
#X obj 1334 100 r Pingpong_Normal;
#X obj 1351 127 r Pingpong_Invert;
#X obj 122 653 sig~;
#X obj 122 516 *~ 0.5;
#X obj 211 489 r Delay_Volume_Decay;
#X obj 122 626 r Delay_Time;
#X obj 122 745 outlet~;
#X obj 932 653 sig~;
#X obj 932 516 *~ 0.5;
#X obj 1021 489 r Delay_Volume_Decay;
#X obj 932 626 r Delay_Time;
#X obj 932 745 outlet~;
#X obj 122 679 vd~ Delay_Pingpong_L;
#X obj 134 705 s~ Delay_Pingpong_L_Loop;
#X obj 944 706 s~ Delay_Pingpong_R_Loop;
#X obj 932 543 delwrite~ Delay_Pingpong_R 5000;
#X obj 122 543 delwrite~ Delay_Pingpong_L 5000;
#X obj 932 679 vd~ Delay_Pingpong_R;
#X obj 172 463 r~ Delay_Pingpong_R_Loop;
#X obj 982 463 r~ Delay_Pingpong_L_Loop;
#X text 1368 468 The R delay is sent to the L \, then the L is sent
to the R \, and so on. It creates the ping pong effect \, but it cannot
be done without summing the original signals.;
#X connect 0 0 13 0;
#X connect 1 0 18 0;
#X connect 2 0 4 0;
#X connect 3 0 2 0;
#X connect 3 1 2 1;
#X connect 5 0 0 1;
#X connect 6 0 1 1;
#X connect 7 0 9 0;
#X connect 8 0 9 1;
#X connect 9 0 0 0;
#X connect 9 0 1 0;
#X connect 10 0 2 0;
#X connect 11 0 3 0;
#X connect 12 0 22 0;
#X connect 13 0 26 0;
#X connect 14 0 13 1;
#X connect 15 0 12 0;
#X connect 17 0 27 0;
#X connect 18 0 25 0;
#X connect 19 0 18 1;
#X connect 20 0 17 0;
#X connect 22 0 16 0;
#X connect 22 0 23 0;
#X connect 27 0 21 0;
#X connect 27 0 24 0;
#X connect 28 0 13 0;
#X connect 29 0 18 0;
#X restore 643 297 pd Pingpong_Delay;
#X obj 342 527 == 0;
#N canvas -9 -9 1920 976 Delay_L_Offset_Subpatch 0;
#X obj 469 124 switch~;
#X obj 154 229 sig~;
#X obj 154 202 r Delay_L_Offset;
#X obj 154 331 outlet~;
#X obj 154 86 inlet~;
#X obj 469 45 inlet;
#X obj 154 119 delwrite~ Delay_L_Offset_Signal 550;
#X obj 154 255 vd~ Delay_L_Offset_Signal;
#X connect 1 0 7 0;
#X connect 2 0 1 0;
#X connect 4 0 6 0;
#X connect 5 0 0 0;
#X connect 7 0 3 0;
#X restore 477 583 pd Delay_L_Offset_Subpatch;
#X obj 495 527 != 0;
#X obj 477 555 *~;
#X obj 324 554 *~;
#X obj 495 501 r Delay_L_Offset;
#X obj 477 419 +~;
#X obj 929 501 r Delay_R_Offset;
#X obj 929 527 == 0;
#X obj 1052 527 != 0;
#X obj 1034 555 *~;
#X obj 911 554 *~;
#X obj 911 419 +~;
#X obj 342 501 r Delay_L_Offset;
#N canvas -9 -9 1920 976 Delay_R_Offset_Subpatch 0;
#X obj 469 124 switch~;
#X obj 154 229 sig~;
#X obj 154 331 outlet~;
#X obj 154 86 inlet~;
#X obj 469 45 inlet;
#X obj 154 119 delwrite~ Delay_R_Offset_Signal 550;
#X obj 154 255 vd~ Delay_R_Offset_Signal;
#X obj 154 202 r Delay_R_Offset;
#X connect 1 0 6 0;
#X connect 3 0 5 0;
#X connect 4 0 0 0;
#X connect 6 0 2 0;
#X connect 7 0 1 0;
#X restore 1034 583 pd Delay_R_Offset_Subpatch;
#X obj 1052 501 r Delay_R_Offset;
#N canvas -9 -9 1920 976 Delay_Panning 0;
#X obj 99 101 inlet~;
#X obj 664 93 inlet~;
#X obj 99 315 *~;
#X obj 172 345 *~;
#X obj 529 315 *~;
#X obj 664 345 *~;
#X obj 99 397 +~;
#X obj 646 392 +~;
#X obj 99 426 outlet~;
#X obj 646 420 outlet~;
#X obj 202 580 clip 0 1;
#X obj 413 579 clip -1 0;
#X obj 429 611 + 1;
#X obj 202 636 - 1;
#X obj 413 669 * -1;
#X obj 202 663 * -1;
#X obj 212 607 s Delay_L_to_R_output;
#X obj 202 690 s Delay_L_to_L_output;
#X obj 429 637 s Delay_R_to_R_output;
#X obj 320 523 r Delay_Pan;
#X obj 682 318 r Delay_R_to_R_output;
#X obj 117 288 r Delay_L_to_L_output;
#X obj 547 288 r Delay_L_to_R_output;
#X obj 413 696 s Delay_R_to_L_output;
#X obj 190 318 r Delay_R_to_L_output;
#X connect 0 0 2 0;
#X connect 0 0 4 0;
#X connect 1 0 3 0;
#X connect 1 0 5 0;
#X connect 2 0 6 0;
#X connect 3 0 6 1;
#X connect 4 0 7 0;
#X connect 5 0 7 1;
#X connect 6 0 8 0;
#X connect 7 0 9 0;
#X connect 10 0 13 0;
#X connect 10 0 16 0;
#X connect 11 0 12 0;
#X connect 11 0 14 0;
#X connect 12 0 18 0;
#X connect 13 0 15 0;
#X connect 14 0 23 0;
#X connect 15 0 17 0;
#X connect 19 0 10 0;
#X connect 19 0 11 0;
#X connect 20 0 5 1;
#X connect 21 0 2 1;
#X connect 22 0 4 1;
#X connect 24 0 3 1;
#X restore 648 661 pd Delay_Panning;
#X text 1295 567 The offsets are added after the delay \, and if no
offset is required \, the subpatches get deactivated.;
#X text 814 259 if a normal delay if chosen \, the other patch gets
deactivated \, and vice versa.;
#X text 821 654 Since the panning only affects the delay \, it is included
in the delay subpatch in order to be deactivated if needed;
#X obj 585 754 hip~;
#X obj 641 700 r Delay_Lowcut_Freq;
#X obj 815 754 hip~;
#X connect 0 0 1 0;
#X connect 1 0 2 0;
#X connect 5 0 8 0;
#X connect 5 0 7 0;
#X connect 6 0 8 1;
#X connect 6 0 7 1;
#X connect 7 0 15 1;
#X connect 7 1 21 1;
#X connect 8 0 15 0;
#X connect 8 1 21 0;
#X connect 9 0 13 1;
#X connect 10 0 25 0;
#X connect 11 0 12 1;
#X connect 11 0 10 1;
#X connect 12 0 10 0;
#X connect 13 0 25 0;
#X connect 14 0 11 0;
#X connect 15 0 12 0;
#X connect 15 0 13 0;
#X connect 16 0 17 0;
#X connect 17 0 20 1;
#X connect 18 0 19 1;
#X connect 18 0 23 1;
#X connect 19 0 23 0;
#X connect 20 0 25 1;
#X connect 21 0 19 0;
#X connect 21 0 20 0;
#X connect 22 0 9 0;
#X connect 23 0 25 1;
#X connect 24 0 18 0;
#X connect 25 0 29 0;
#X connect 25 1 31 0;
#X connect 29 0 3 0;
#X connect 30 0 29 1;
#X connect 30 0 31 1;
#X connect 31 0 4 0;
#X restore 253 312 pd Delay_Subpatch;
#X obj 186 484 *~;
#X obj 426 484 *~;
#X obj 204 455 r Delay_Wet;
#X obj 444 455 r Delay_Wet;
#X text 606 75 The delay is in a separate subpatch \, so that the switch
can be deactivated to gain performance;
#X text 1130 63 Volume decay is the factor each signal loop is multiplied
by;
#X obj 901 401 cnv 15 401 223 empty empty empty 20 12 0 14 -204800
-66577 0;
#X obj 994 419 hsl 86 19 0.01 0.99 0 0 empty empty Volume_Decay_(%)
-2 -8 0 10 -262144 -1 -1 4250 1;
#X obj 994 459 hsl 86 19 20 2000 1 0 empty empty Delay_Time_(ms) -2
-8 0 10 -262144 -1 -1 4250 1;
#N canvas 109 49 1447 804 Delay_offset 0;
#X obj 257 216 hsl 86 19 1 500 1 0 empty empty L_Offset_in_ms -2 -8
0 10 -262144 -1 -1 0 1;
#X obj 257 255 hsl 86 20 1 500 1 0 empty empty R_Offset_in_ms -2 -8
0 10 -262144 -1 -1 0 1;
#X obj 642 487 t b f b;
#X obj 261 449 spigot;
#X msg 320 423 0, f 1;
#X msg 300 423 1, f 1;
#X obj 261 484 t b f b;
#X obj 642 455 spigot;
#X msg 702 421 0, f 1;
#X msg 678 421 1, f 1;
#X floatatom 349 215 5 0 0 0 - - -;
#X floatatom 349 255 5 0 0 0 - - -;
#X obj 29 427 s Delay_L_Offset;
#X obj 27 466 s Delay_R_Offset;
#X obj 393 314 r Delay_uni_offset;
#X obj 195 301 - 1;
#X obj 191 247 - 1;
#X obj 284 514 s Delay_L_Offset_inside_value;
#X obj 665 517 s Delay_R_Offset_inside_value;
#X obj 129 66 r Delay_L_Offset_inside_value;
#X obj 179 94 r Delay_R_Offset_inside_value;
#X obj 458 147 loadbang;
#X obj 458 173 t b b;
#X connect 0 0 3 0;
#X connect 0 0 16 0;
#X connect 1 0 15 0;
#X connect 1 0 7 0;
#X connect 2 0 5 0;
#X connect 2 1 18 0;
#X connect 2 2 4 0;
#X connect 3 0 6 0;
#X connect 4 0 3 1;
#X connect 5 0 3 1;
#X connect 6 0 9 0;
#X connect 6 1 17 0;
#X connect 6 2 8 0;
#X connect 7 0 2 0;
#X connect 8 0 7 1;
#X connect 9 0 7 1;
#X connect 14 0 3 1;
#X connect 14 0 7 1;
#X connect 15 0 13 0;
#X connect 15 0 11 0;
#X connect 16 0 12 0;
#X connect 16 0 10 0;
#X connect 19 0 1 0;
#X connect 20 0 0 0;
#X connect 21 0 22 0;
#X connect 22 0 0 0;
#X connect 22 0 1 0;
#X connect 22 1 5 0;
#X coords 0 -1 1 1 138 78 2 250 200;
#X restore 1037 533 pd Delay_offset;
#X floatatom 1085 459 5 0 0 0 - - -;
#X obj 1191 561 tgl 30 0 empty empty Uni_offset 32 7 0 10 -262144 -1
-1 1 1;
#X msg 1364 631 1;
#X obj 1364 605 loadbang;
#N canvas -9 -9 1920 976 Delay_Type 0;
#X obj 210 209 vradio 20 1 0 4 empty empty empty 0 -8 0 10 -262144
-1 -1 0;
#X obj 186 429 spigot;
#X obj 186 375 == 0;
#X obj 186 402 t b f;
#X obj 242 429 spigot;
#X obj 242 402 t b f;
#X obj 492 430 spigot;
#X obj 492 403 t b f;
#X obj 242 375 == 1;
#X obj 492 376 == 2;
#X obj 544 431 spigot;
#X obj 544 404 t b f;
#X obj 544 377 == 3;
#X msg 186 595 1;
#X msg 226 595 0;
#X msg 246 535 1;
#X msg 286 535 0;
#X text 238 208 Normal;
#X text 237 229 Invert;
#X text 238 249 Ping Pong;
#X text 238 269 Ping Pong Invert;
#X msg 507 590 1;
#X msg 547 590 0;
#X msg 567 530 1;
#X msg 607 530 0;
#X obj 507 616 s Pingpong_Normal;
#X obj 186 621 s Normal;
#X obj 246 561 s Invert;
#X obj 567 556 s Pingpong_Invert;
#X obj 229 87 loadbang;
#X msg 229 113 0;
#X connect 0 0 2 0;
#X connect 0 0 8 0;
#X connect 0 0 9 0;
#X connect 0 0 12 0;
#X connect 1 0 13 0;
#X connect 1 0 16 0;
#X connect 1 0 22 0;
#X connect 1 0 24 0;
#X connect 2 0 3 0;
#X connect 3 0 1 0;
#X connect 3 1 1 1;
#X connect 4 0 15 0;
#X connect 4 0 14 0;
#X connect 4 0 22 0;
#X connect 4 0 24 0;
#X connect 5 0 4 0;
#X connect 5 1 4 1;
#X connect 6 0 21 0;
#X connect 6 0 24 0;
#X connect 6 0 16 0;
#X connect 6 0 14 0;
#X connect 7 0 6 0;
#X connect 7 1 6 1;
#X connect 8 0 5 0;
#X connect 9 0 7 0;
#X connect 10 0 23 0;
#X connect 10 0 22 0;
#X connect 10 0 16 0;
#X connect 10 0 14 0;
#X connect 11 0 10 0;
#X connect 11 1 10 1;
#X connect 12 0 11 0;
#X connect 13 0 26 0;
#X connect 14 0 26 0;
#X connect 15 0 27 0;
#X connect 16 0 27 0;
#X connect 21 0 25 0;
#X connect 22 0 25 0;
#X connect 23 0 28 0;
#X connect 24 0 28 0;
#X connect 29 0 30 0;
#X connect 30 0 0 0;
#X coords 0 -1 1 1 161 101 2 200 200;
#X restore 1138 416 pd Delay_Type;
#X obj 661 615 s Delay_Wet;
#X obj 686 783 s Delay_Volume_Decay;
#X obj 664 578 s Delay_Dry;
#X msg 1068 323 200;
#X floatatom 1085 419 5 0 0 0 - - -;
#X obj 1292 676 s Delay_uni_offset;
#X obj 681 823 s Delay_Time;
#X obj 1115 264 loadbang;
#X msg 1017 319 0.5;
#X obj 910 558 hsl 64 19 -1 1 0 0 empty empty Pan -2 -8 0 10 -262144
-1 -1 3150 1;
#X obj 790 614 s Delay_Pan;
#X obj 911 322 loadbang;
#X msg 916 362 1;
#X msg 871 346 0;
#X obj 936 583 bng 15 250 50 0 empty empty empty 17 7 0 10 -262144
-1 -1;
#X msg 869 557 0;
#X obj 914 420 vsl 15 96 0 1 0 0 empty empty Dry 0 -9 0 10 -262144
-1 -1 9500 1;
#X obj 954 420 vsl 15 96 0 1 0 0 empty empty Wet 0 -9 0 10 -262144
-1 -1 0 1;
#X obj 994 499 hsl 86 19 20 10000 1 0 empty empty Lowcut_Freq -2 -8
0 10 -262144 -1 -1 1253 1;
#X floatatom 1085 499 5 0 0 0 - - -;
#X obj 839 506 loadbang;
#X obj 674 856 s Delay_Lowcut_Freq;
#X msg 1126 325 50;
#X obj 1122 358 * 100;
#X obj 1122 384 int;
#X connect 0 0 6 0;
#X connect 0 0 8 0;
#X connect 2 0 4 0;
#X connect 2 0 8 1;
#X connect 4 0 3 0;
#X connect 5 0 4 1;
#X connect 6 0 1 0;
#X connect 7 0 6 1;
#X connect 8 0 9 0;
#X connect 8 1 10 0;
#X connect 9 0 1 0;
#X connect 10 0 3 0;
#X connect 11 0 9 1;
#X connect 12 0 10 1;
#X connect 16 0 25 0;
#X connect 16 0 47 0;
#X connect 17 0 19 0;
#X connect 17 0 30 0;
#X connect 20 0 29 0;
#X connect 21 0 20 0;
#X connect 22 0 21 0;
#X connect 27 0 17 0;
#X connect 31 0 32 0;
#X connect 31 0 27 0;
#X connect 31 0 46 0;
#X connect 32 0 16 0;
#X connect 33 0 34 0;
#X connect 35 0 36 0;
#X connect 35 0 37 0;
#X connect 36 0 40 0;
#X connect 37 0 41 0;
#X connect 38 0 39 0;
#X connect 39 0 33 0;
#X connect 40 0 26 0;
#X connect 41 0 24 0;
#X connect 42 0 43 0;
#X connect 42 0 45 0;
#X connect 44 0 39 0;
#X connect 46 0 42 0;
#X connect 47 0 48 0;
#X connect 48 0 28 0;
#X coords 0 -1 1 1 403 225 2 900 400;
#X restore 400 500 pd delay test;
#X obj 400 464 +~;
#X obj 557 755 *~ 1;
#X obj 525 326 r Pulse1_Master;
#X obj 528 243 r Pulse2_Master;
#X obj 536 157 r Saw1_Master;
#X obj 533 70 r Saw2_Master;
#X obj 531 407 r Sine_Master;
#X obj 456 384 r~ Output_Sine_L;
#X obj 716 384 r~ Output_Sine_R;
#X obj 456 440 *~;
#X obj 716 440 *~;
#X obj 455 46 r~ Output_Saw2_L;
#X obj 715 46 r~ Output_Saw2_R;
#X obj 455 102 *~;
#X obj 715 102 *~;
#X obj 456 189 *~;
#X obj 716 189 *~;
#X obj 456 217 r~ Output_Pulse2_L;
#X obj 716 217 r~ Output_Pulse2_R;
#X obj 456 273 *~;
#X obj 716 273 *~;
#X obj 456 300 r~ Output_Pulse1_L;
#X obj 716 300 r~ Output_Pulse1_R;
#X obj 456 356 *~;
#X obj 716 356 *~;
#X obj 456 133 r~ Output_Saw1_L;
#X obj 716 133 r~ Output_Saw1_R;
#X connect 0 0 3 1;
#X connect 0 0 4 1;
#X connect 3 0 1 0;
#X connect 4 0 1 1;
#X connect 5 0 3 0;
#X connect 5 0 10 0;
#X connect 6 0 4 0;
#X connect 6 0 10 0;
#X connect 7 0 8 1;
#X connect 8 0 5 0;
#X connect 8 1 6 0;
#X connect 9 0 8 0;
#X connect 10 0 2 0;
#X connect 11 0 32 1;
#X connect 11 0 33 1;
#X connect 12 0 28 1;
#X connect 12 0 29 1;
#X connect 13 0 24 1;
#X connect 13 0 25 1;
#X connect 14 0 22 1;
#X connect 14 0 23 1;
#X connect 15 0 18 1;
#X connect 15 0 19 1;
#X connect 16 0 18 0;
#X connect 17 0 19 0;
#X connect 18 0 9 1;
#X connect 19 0 7 1;
#X connect 20 0 22 0;
#X connect 21 0 23 0;
#X connect 22 0 9 0;
#X connect 23 0 7 0;
#X connect 24 0 9 0;
#X connect 25 0 7 0;
#X connect 26 0 28 0;
#X connect 27 0 29 0;
#X connect 28 0 9 0;
#X connect 29 0 7 0;
#X connect 30 0 32 0;
#X connect 31 0 33 0;
#X connect 32 0 9 0;
#X connect 33 0 7 0;
#X connect 34 0 24 0;
#X connect 35 0 25 0;
#X coords 0 -1 1 1 403 225 2 400 500;
#X restore 36 266 pd Main_Output;
#X coords 0 976 1 975 85 60 0;
