#N canvas -9 -9 1920 976 12;
#X obj 1158 929 s~ Output_Pulse1_L;
#X obj 1309 929 s~ Output_Pulse1_R;
#X obj 1158 897 *~;
#X obj 1309 897 *~;
#N canvas -9 -9 1920 976 Pulse1_ADSR_Datas 0;
#X msg 248 144 100;
#X msg 278 144 0.7;
#X msg 308 144 200;
#X obj 284 84 loadbang;
#X obj 405 261 s Pulse1_Attack;
#X obj 717 261 s Pulse1_Decay_Volume;
#X obj 1029 261 s Pulse1_Release;
#X obj 873 261 s Pulse1_Sustain;
#X obj 561 261 s Pulse1_Decay;
#X obj 200 264 f;
#X obj 230 264 f;
#X obj 260 264 f;
#X obj 290 264 f;
#X obj 320 264 f;
#X msg 218 144 20, f 2;
#X msg 338 144 100;
#X obj 230 316 s Visual_Pulse1_Decay;
#X obj 200 291 s Visual_Pulse1_Attack;
#X obj 290 366 s Visual_Pulse1_Sustain;
#X obj 320 391 s Visual_Pulse1_Release;
#X obj 171 191 r Init_Pulse1;
#X obj 1038 111 r Pulse1_Osc_Spigot;
#X obj 1029 137 spigot;
#X obj 1029 86 r ADSR_Release;
#X obj 882 111 r Pulse1_Osc_Spigot;
#X obj 873 137 spigot;
#X obj 873 86 r ADSR_Sustain;
#X obj 726 111 r Pulse1_Osc_Spigot;
#X obj 717 137 spigot;
#X obj 717 86 r ADSR_Decay_Volume;
#X obj 570 111 r Pulse1_Osc_Spigot;
#X obj 561 137 spigot;
#X obj 561 86 r ADSR_Decay;
#X obj 414 111 r Pulse1_Osc_Spigot;
#X obj 405 137 spigot;
#X obj 405 86 r ADSR_Attack;
#X obj 260 341 s Visual_Pulse1_Decay_Volume;
#X text 115 11 Memory SubPatch about the ADSR datas for PULSE 1;
#X connect 0 0 8 0;
#X connect 0 0 10 1;
#X connect 1 0 5 0;
#X connect 1 0 11 1;
#X connect 2 0 7 0;
#X connect 2 0 12 1;
#X connect 3 0 14 0;
#X connect 3 0 0 0;
#X connect 3 0 2 0;
#X connect 3 0 15 0;
#X connect 3 0 1 0;
#X connect 9 0 17 0;
#X connect 10 0 16 0;
#X connect 11 0 36 0;
#X connect 12 0 18 0;
#X connect 13 0 19 0;
#X connect 14 0 4 0;
#X connect 14 0 9 1;
#X connect 15 0 6 0;
#X connect 15 0 13 1;
#X connect 20 0 9 0;
#X connect 20 0 10 0;
#X connect 20 0 11 0;
#X connect 20 0 12 0;
#X connect 20 0 13 0;
#X connect 21 0 22 1;
#X connect 22 0 6 0;
#X connect 22 0 13 1;
#X connect 23 0 22 0;
#X connect 24 0 25 1;
#X connect 25 0 7 0;
#X connect 25 0 12 1;
#X connect 26 0 25 0;
#X connect 27 0 28 1;
#X connect 28 0 5 0;
#X connect 28 0 11 1;
#X connect 29 0 28 0;
#X connect 30 0 31 1;
#X connect 31 0 10 1;
#X connect 31 0 8 0;
#X connect 32 0 31 0;
#X connect 33 0 34 1;
#X connect 34 0 4 0;
#X connect 34 0 9 1;
#X connect 35 0 34 0;
#X restore 69 175 pd Pulse1_ADSR_Datas;
#N canvas -9 -9 1920 976 Pulse1_Unison_Datas 0;
#N canvas 341 0 1143 976 Pulse1_osc0_datas 0;
#X obj 297 38 >= 2;
#X obj 363 109 - 1;
#X obj 363 135 abs;
#X obj 296 246 spigot;
#X obj 297 215 t b f;
#X obj 363 187 spigot;
#X obj 363 161 t b f;
#X msg 363 221 0.5;
#X obj 294 840 s Pulse1_osc0_left;
#X obj 456 841 s Pulse1_osc0_right;
#X obj 368 630 * 0.5;
#X obj 294 674 t b f;
#X obj 456 674 t b f;
#X obj 294 700 +;
#X msg 296 344 0.5;
#X obj 456 700 -;
#X obj 368 593 r Pulse1_Unison_stereo;
#X obj 294 746 spigot;
#X msg 397 295 0;
#X msg 328 300 1;
#X obj 456 744 spigot;
#X obj 296 272 t b b;
#X obj 297 11 r Pulse1_Unison;
#X obj 358 339 s Pulse1_osc0_gate;
#X obj 495 718 r Pulse1_osc0_gate;
#X obj 333 719 r Pulse1_osc0_gate;
#X obj 48 342 r Pulse1_Detune;
#X obj 48 490 *;
#X obj 144 375 t b f;
#X obj 189 421 *;
#X obj 189 297 r Pulse1_Phase;
#X obj 48 606 s Pulse1_osc0_Detune;
#X obj 190 477 s Pulse1_osc0_Phase;
#X obj 382 782 r Pulse1_osc0_data_communicaton;
#X obj 363 253 s Pulse1_osc0_data_communicaton;
#X msg 144 342 -0.5;
#X obj 54 553 spigot;
#X obj 122 524 r Pulse1_osc0_gate;
#X connect 0 0 1 0;
#X connect 0 0 4 0;
#X connect 1 0 2 0;
#X connect 2 0 6 0;
#X connect 3 0 21 0;
#X connect 3 0 35 0;
#X connect 4 0 3 0;
#X connect 4 1 3 1;
#X connect 5 0 7 0;
#X connect 5 0 18 0;
#X connect 6 0 5 0;
#X connect 6 1 5 1;
#X connect 7 0 34 0;
#X connect 10 0 11 0;
#X connect 10 0 12 0;
#X connect 11 0 13 0;
#X connect 11 1 13 1;
#X connect 12 0 15 0;
#X connect 12 1 15 1;
#X connect 13 0 17 0;
#X connect 14 0 13 0;
#X connect 14 0 15 0;
#X connect 15 0 20 0;
#X connect 16 0 10 0;
#X connect 17 0 8 0;
#X connect 18 0 23 0;
#X connect 19 0 23 0;
#X connect 20 0 9 0;
#X connect 21 0 14 0;
#X connect 21 1 19 0;
#X connect 22 0 0 0;
#X connect 24 0 20 1;
#X connect 25 0 17 1;
#X connect 26 0 27 0;
#X connect 27 0 36 0;
#X connect 28 0 27 0;
#X connect 28 0 29 0;
#X connect 28 1 27 1;
#X connect 28 1 29 1;
#X connect 29 0 32 0;
#X connect 30 0 29 0;
#X connect 33 0 9 0;
#X connect 33 0 8 0;
#X connect 35 0 28 0;
#X connect 36 0 31 0;
#X connect 37 0 36 1;
#X restore 77 535 pd Pulse1_osc0_datas;
#N canvas 653 1 1209 976 Pulse1_osc1_datas 0;
#X obj 178 162 - 1;
#X obj 174 247 /;
#X obj 178 188 t b f;
#X msg 172 218 1, f 1;
#X obj 49 393 -;
#X obj 49 341 t b f;
#X msg 49 367 1;
#X obj 178 79 t f f;
#X obj 216 485 t b f;
#X obj 216 432 - 0.5;
#X obj 216 539 + 0.5;
#X obj 216 513 *;
#X obj 49 472 t b f;
#X obj 49 419 - 0.5;
#X obj 49 526 + 0.5;
#X obj 49 500 *;
#X obj 216 565 s Pulse1_osc1_right;
#X obj 49 553 s Pulse1_osc1_left;
#X obj 248 147 s Pulse1_osc1_uni_gate;
#X obj 248 121 >= 2;
#X obj 49 446 r Pulse1_Unison_stereo;
#X obj 216 459 r Pulse1_Unison_stereo;
#X obj 178 53 r Pulse1_Unison;
#X obj 392 393 r Pulse1_Detune;
#X obj 392 541 *;
#X obj 428 497 t b f;
#X obj 428 471 - 0.5;
#X obj 473 543 *;
#X obj 473 419 r Pulse1_Phase;
#X obj 392 567 s Pulse1_osc1_Detune;
#X obj 473 599 s Pulse1_osc1_Phase;
#X floatatom 423 650 5 0 0 0 - - -;
#X connect 0 0 2 0;
#X connect 1 0 9 0;
#X connect 1 0 5 0;
#X connect 1 0 26 0;
#X connect 2 0 3 0;
#X connect 2 1 1 1;
#X connect 3 0 1 0;
#X connect 4 0 13 0;
#X connect 5 0 6 0;
#X connect 5 1 4 1;
#X connect 6 0 4 0;
#X connect 7 0 0 0;
#X connect 7 1 19 0;
#X connect 8 0 11 0;
#X connect 8 1 11 1;
#X connect 9 0 11 0;
#X connect 10 0 16 0;
#X connect 11 0 10 0;
#X connect 12 0 15 0;
#X connect 12 1 15 1;
#X connect 13 0 15 0;
#X connect 14 0 17 0;
#X connect 15 0 14 0;
#X connect 19 0 18 0;
#X connect 20 0 12 0;
#X connect 21 0 8 0;
#X connect 22 0 7 0;
#X connect 23 0 24 0;
#X connect 24 0 29 0;
#X connect 24 0 31 0;
#X connect 25 0 24 0;
#X connect 25 0 27 0;
#X connect 25 1 24 1;
#X connect 25 1 27 1;
#X connect 26 0 25 0;
#X connect 27 0 30 0;
#X connect 28 0 27 0;
#X restore 77 564 pd Pulse1_osc1_datas;
#N canvas 584 19 725 976 Pulse1_osc2_datas 0;
#X obj 112 127 - 1;
#X obj 108 212 /;
#X obj 112 153 t b f;
#X msg 106 183 1, f 1;
#X obj 42 338 -;
#X obj 42 286 t b f;
#X msg 42 312 1;
#X obj 106 250 * 2;
#X obj 189 499 s Pulse1_osc2_right;
#X obj 42 498 s Pulse1_osc2_left;
#X obj 112 44 t f f;
#X obj 225 161 s Pulse1_osc2_uni_gate;
#X obj 225 135 >= 3;
#X obj 189 419 t b f;
#X obj 189 366 - 0.5;
#X obj 189 473 + 0.5;
#X obj 189 447 *;
#X obj 42 417 t b f;
#X obj 42 364 - 0.5;
#X obj 42 471 + 0.5;
#X obj 42 445 *;
#X obj 42 391 r Pulse1_Unison_stereo;
#X obj 189 393 r Pulse1_Unison_stereo;
#X obj 112 18 r Pulse1_Unison;
#X obj 447 286 r Pulse1_Detune;
#X obj 447 434 *;
#X obj 483 390 t b f;
#X obj 483 364 - 0.5;
#X obj 528 435 *;
#X obj 528 311 r Pulse1_Phase;
#X obj 447 460 s Pulse1_osc2_Detune;
#X obj 528 486 s Pulse1_osc2_Phase;
#X connect 0 0 2 0;
#X connect 1 0 7 0;
#X connect 2 0 3 0;
#X connect 2 1 1 1;
#X connect 3 0 1 0;
#X connect 4 0 18 0;
#X connect 5 0 6 0;
#X connect 5 1 4 1;
#X connect 6 0 4 0;
#X connect 7 0 5 0;
#X connect 7 0 14 0;
#X connect 7 0 27 0;
#X connect 10 0 0 0;
#X connect 10 1 12 0;
#X connect 12 0 11 0;
#X connect 13 0 16 0;
#X connect 13 1 16 1;
#X connect 14 0 16 0;
#X connect 15 0 8 0;
#X connect 16 0 15 0;
#X connect 17 0 20 0;
#X connect 17 1 20 1;
#X connect 18 0 20 0;
#X connect 19 0 9 0;
#X connect 20 0 19 0;
#X connect 21 0 17 0;
#X connect 22 0 13 0;
#X connect 23 0 10 0;
#X connect 24 0 25 0;
#X connect 25 0 30 0;
#X connect 26 0 25 0;
#X connect 26 0 28 0;
#X connect 26 1 25 1;
#X connect 26 1 28 1;
#X connect 27 0 26 0;
#X connect 28 0 31 0;
#X connect 29 0 28 0;
#X restore 77 593 pd Pulse1_osc2_datas;
#N canvas 683 90 910 809 Pulse1_osc3_datas 0;
#X obj 142 152 - 1;
#X obj 138 237 /;
#X obj 142 178 t b f;
#X msg 136 208 1, f 1;
#X obj 72 363 -;
#X obj 72 311 t b f;
#X msg 72 337 1;
#X obj 142 69 t f f;
#X obj 219 443 t b f;
#X obj 219 390 - 0.5;
#X obj 219 497 + 0.5;
#X obj 219 471 *;
#X obj 72 442 t b f;
#X obj 72 389 - 0.5;
#X obj 72 496 + 0.5;
#X obj 72 470 *;
#X obj 255 160 >= 4;
#X obj 255 186 s Pulse1_osc3_uni_gate;
#X obj 136 275 * 3;
#X obj 72 522 s Pulse1_osc3_left;
#X obj 219 523 s Pulse1_osc3_right;
#X obj 219 417 r Pulse1_Unison_stereo;
#X obj 72 416 r Pulse1_Unison_stereo;
#X obj 142 43 r Pulse1_Unison;
#X obj 429 290 r Pulse1_Detune;
#X obj 429 438 *;
#X obj 465 394 t b f;
#X obj 465 368 - 0.5;
#X obj 510 440 *;
#X obj 510 316 r Pulse1_Phase;
#X obj 429 464 s Pulse1_osc3_Detune;
#X obj 510 489 s Pulse1_osc3_Phase;
#X connect 0 0 2 0;
#X connect 1 0 18 0;
#X connect 2 0 3 0;
#X connect 2 1 1 1;
#X connect 3 0 1 0;
#X connect 4 0 13 0;
#X connect 5 0 6 0;
#X connect 5 1 4 1;
#X connect 6 0 4 0;
#X connect 7 0 0 0;
#X connect 7 1 16 0;
#X connect 8 0 11 0;
#X connect 8 1 11 1;
#X connect 9 0 11 0;
#X connect 10 0 20 0;
#X connect 11 0 10 0;
#X connect 12 0 15 0;
#X connect 12 1 15 1;
#X connect 13 0 15 0;
#X connect 14 0 19 0;
#X connect 15 0 14 0;
#X connect 16 0 17 0;
#X connect 18 0 5 0;
#X connect 18 0 9 0;
#X connect 18 0 27 0;
#X connect 21 0 8 0;
#X connect 22 0 12 0;
#X connect 23 0 7 0;
#X connect 24 0 25 0;
#X connect 25 0 30 0;
#X connect 26 0 25 0;
#X connect 26 0 28 0;
#X connect 26 1 25 1;
#X connect 26 1 28 1;
#X connect 27 0 26 0;
#X connect 28 0 31 0;
#X connect 29 0 28 0;
#X restore 227 535 pd Pulse1_osc3_datas;
#N canvas 745 5 878 976 Pulse1_osc4_datas 0;
#X obj 185 144 - 1;
#X obj 181 229 /;
#X obj 185 170 t b f;
#X msg 179 200 1, f 1;
#X obj 115 355 -;
#X obj 115 303 t b f;
#X msg 115 329 1;
#X obj 185 61 t f f;
#X obj 262 435 t b f;
#X obj 262 382 - 0.5;
#X obj 262 489 + 0.5;
#X obj 262 463 *;
#X obj 115 434 t b f;
#X obj 115 381 - 0.5;
#X obj 115 488 + 0.5;
#X obj 115 462 *;
#X obj 298 152 >= 5;
#X obj 298 178 s Pulse1_osc4_uni_gate;
#X obj 262 515 s Pulse1_osc4_right;
#X obj 115 514 s Pulse1_osc4_left;
#X obj 115 408 r Pulse1_Unison_stereo;
#X obj 262 409 r Pulse1_Unison_stereo;
#X obj 179 267 * 4;
#X obj 185 35 r Pulse1_Unison;
#X obj 517 330 r Pulse1_Detune;
#X obj 517 478 *;
#X obj 553 434 t b f;
#X obj 553 408 - 0.5;
#X obj 598 480 *;
#X obj 598 356 r Pulse1_Phase;
#X obj 517 504 s Pulse1_osc4_Detune;
#X obj 598 526 s Pulse1_osc4_Phase;
#X connect 0 0 2 0;
#X connect 1 0 22 0;
#X connect 2 0 3 0;
#X connect 2 1 1 1;
#X connect 3 0 1 0;
#X connect 4 0 13 0;
#X connect 5 0 6 0;
#X connect 5 1 4 1;
#X connect 6 0 4 0;
#X connect 7 0 0 0;
#X connect 7 1 16 0;
#X connect 8 0 11 0;
#X connect 8 1 11 1;
#X connect 9 0 11 0;
#X connect 10 0 18 0;
#X connect 11 0 10 0;
#X connect 12 0 15 0;
#X connect 12 1 15 1;
#X connect 13 0 15 0;
#X connect 14 0 19 0;
#X connect 15 0 14 0;
#X connect 16 0 17 0;
#X connect 20 0 12 0;
#X connect 21 0 8 0;
#X connect 22 0 5 0;
#X connect 22 0 9 0;
#X connect 22 0 27 0;
#X connect 23 0 7 0;
#X connect 24 0 25 0;
#X connect 25 0 30 0;
#X connect 26 0 25 0;
#X connect 26 0 28 0;
#X connect 26 1 25 1;
#X connect 26 1 28 1;
#X connect 27 0 26 0;
#X connect 28 0 31 0;
#X connect 29 0 28 0;
#X restore 227 564 pd Pulse1_osc4_datas;
#N canvas 658 42 652 976 Pulse1_osc5_datas 0;
#X obj 151 141 - 1;
#X obj 147 226 /;
#X obj 151 167 t b f;
#X msg 145 197 1, f 1;
#X obj 81 352 -;
#X obj 81 300 t b f;
#X msg 81 326 1;
#X obj 151 58 t f f;
#X obj 228 433 t b f;
#X obj 228 380 - 0.5;
#X obj 228 487 + 0.5;
#X obj 228 461 *;
#X obj 81 431 t b f;
#X obj 81 378 - 0.5;
#X obj 81 485 + 0.5;
#X obj 81 459 *;
#X obj 81 405 r Pulse1_Unison_stereo;
#X obj 228 407 r Pulse1_Unison_stereo;
#X obj 228 513 s Pulse1_osc5_right;
#X obj 81 512 s Pulse1_osc5_left;
#X obj 264 175 s Pulse1_osc5_uni_gate;
#X obj 147 252 * 5;
#X obj 264 149 >= 6;
#X obj 151 32 r Pulse1_Unison;
#X obj 420 308 r Pulse1_Detune;
#X obj 420 456 *;
#X obj 456 412 t b f;
#X obj 456 386 - 0.5;
#X obj 501 458 *;
#X obj 501 334 r Pulse1_Phase;
#X obj 420 482 s Pulse1_osc5_Detune;
#X obj 501 514 s Pulse1_osc5_Phase;
#X connect 0 0 2 0;
#X connect 1 0 21 0;
#X connect 2 0 3 0;
#X connect 2 1 1 1;
#X connect 3 0 1 0;
#X connect 4 0 13 0;
#X connect 5 0 6 0;
#X connect 5 1 4 1;
#X connect 6 0 4 0;
#X connect 7 0 0 0;
#X connect 7 1 22 0;
#X connect 8 0 11 0;
#X connect 8 1 11 1;
#X connect 9 0 11 0;
#X connect 10 0 18 0;
#X connect 11 0 10 0;
#X connect 12 0 15 0;
#X connect 12 1 15 1;
#X connect 13 0 15 0;
#X connect 14 0 19 0;
#X connect 15 0 14 0;
#X connect 16 0 12 0;
#X connect 17 0 8 0;
#X connect 21 0 9 0;
#X connect 21 0 5 0;
#X connect 21 0 27 0;
#X connect 22 0 20 0;
#X connect 23 0 7 0;
#X connect 24 0 25 0;
#X connect 25 0 30 0;
#X connect 26 0 25 0;
#X connect 26 0 28 0;
#X connect 26 1 25 1;
#X connect 26 1 28 1;
#X connect 27 0 26 0;
#X connect 28 0 31 0;
#X connect 29 0 28 0;
#X restore 227 593 pd Pulse1_osc5_datas;
#N canvas -32 0 737 976 Pulse1_osc7_datas 0;
#X obj 147 138 - 1;
#X obj 143 223 /;
#X obj 147 164 t b f;
#X msg 141 194 1, f 1;
#X obj 77 349 -;
#X obj 77 297 t b f;
#X msg 77 323 1;
#X obj 147 55 t f f;
#X obj 224 429 t b f;
#X obj 224 376 - 0.5;
#X obj 224 483 + 0.5;
#X obj 224 457 *;
#X obj 77 428 t b f;
#X obj 77 375 - 0.5;
#X obj 77 482 + 0.5;
#X obj 77 456 *;
#X obj 224 403 r Pulse1_Unison_stereo;
#X obj 77 402 r Pulse1_Unison_stereo;
#X obj 260 146 >= 8;
#X obj 260 172 s Pulse1_osc7_uni_gate;
#X obj 77 508 s Pulse1_osc7_left;
#X obj 224 509 s Pulse1_osc7_right;
#X obj 141 261 * 7;
#X obj 147 29 r Pulse1_Unison;
#X obj 451 283 r Pulse1_Detune;
#X obj 451 431 *;
#X obj 487 387 t b f;
#X obj 487 361 - 0.5;
#X obj 532 433 *;
#X obj 532 309 r Pulse1_Phase;
#X obj 451 457 s Pulse1_osc7_Detune;
#X obj 532 483 s Pulse1_osc7_Phase;
#X connect 0 0 2 0;
#X connect 1 0 22 0;
#X connect 2 0 3 0;
#X connect 2 1 1 1;
#X connect 3 0 1 0;
#X connect 4 0 13 0;
#X connect 5 0 6 0;
#X connect 5 1 4 1;
#X connect 6 0 4 0;
#X connect 7 0 0 0;
#X connect 7 1 18 0;
#X connect 8 0 11 0;
#X connect 8 1 11 1;
#X connect 9 0 11 0;
#X connect 10 0 21 0;
#X connect 11 0 10 0;
#X connect 12 0 15 0;
#X connect 12 1 15 1;
#X connect 13 0 15 0;
#X connect 14 0 20 0;
#X connect 15 0 14 0;
#X connect 16 0 8 0;
#X connect 17 0 12 0;
#X connect 18 0 19 0;
#X connect 22 0 5 0;
#X connect 22 0 9 0;
#X connect 22 0 27 0;
#X connect 23 0 7 0;
#X connect 24 0 25 0;
#X connect 25 0 30 0;
#X connect 26 0 25 0;
#X connect 26 0 28 0;
#X connect 26 1 25 1;
#X connect 26 1 28 1;
#X connect 27 0 26 0;
#X connect 28 0 31 0;
#X connect 29 0 28 0;
#X restore 377 564 pd Pulse1_osc7_datas;
#N canvas 638 16 819 976 Pulse1_osc8_datas 0;
#X obj 440 73 - 1;
#X obj 440 99 abs;
#X obj 157 137 spigot;
#X obj 158 106 t b f;
#X obj 440 151 spigot;
#X obj 440 125 t b f;
#X obj 169 424 t b f;
#X obj 339 398 * 0.5;
#X obj 339 424 t b f;
#X obj 339 371 r Pulse1_Unison_stereo;
#X obj 169 371 r Pulse1_Unison_stereo;
#X obj 157 566 spigot;
#X msg 440 183 0;
#X msg 324 229 1;
#X obj 339 564 spigot;
#X obj 157 163 t b b;
#X obj 158 52 == 9;
#X obj 158 79 s Pulse1_osc8_uni_gate;
#X obj 169 398 * 0.5;
#X msg 157 305 0.5;
#X obj 157 450 -;
#X obj 339 450 +;
#X obj 339 621 s Pulse1_osc8_right;
#X obj 157 620 s Pulse1_osc8_left;
#X obj 158 25 r Pulse1_Unison;
#X obj 569 360 r Pulse1_Detune;
#X obj 569 508 *;
#X obj 605 464 t b f;
#X obj 605 438 - 0.5;
#X obj 650 510 *;
#X obj 650 386 r Pulse1_Phase;
#X obj 569 534 s Pulse1_osc8_Detune;
#X obj 650 560 s Pulse1_osc8_Phase;
#X obj 440 209 s Pulse1_osc8_data_communicaton;
#X obj 243 489 r Pulse1_osc8_data_communicaton;
#X connect 0 0 1 0;
#X connect 1 0 5 0;
#X connect 2 0 15 0;
#X connect 3 0 2 0;
#X connect 3 1 2 1;
#X connect 4 0 12 0;
#X connect 5 0 4 0;
#X connect 5 1 4 1;
#X connect 6 0 20 0;
#X connect 6 1 20 1;
#X connect 7 0 8 0;
#X connect 8 0 21 0;
#X connect 8 1 21 1;
#X connect 9 0 7 0;
#X connect 10 0 18 0;
#X connect 11 0 23 0;
#X connect 12 0 33 0;
#X connect 13 0 33 0;
#X connect 13 0 28 0;
#X connect 14 0 22 0;
#X connect 15 0 19 0;
#X connect 15 1 13 0;
#X connect 16 0 0 0;
#X connect 16 0 3 0;
#X connect 16 0 17 0;
#X connect 18 0 6 0;
#X connect 19 0 20 0;
#X connect 19 0 21 0;
#X connect 20 0 11 0;
#X connect 21 0 14 0;
#X connect 24 0 16 0;
#X connect 25 0 26 0;
#X connect 26 0 31 0;
#X connect 27 0 26 0;
#X connect 27 0 29 0;
#X connect 27 1 26 1;
#X connect 27 1 29 1;
#X connect 28 0 27 0;
#X connect 29 0 32 0;
#X connect 30 0 29 0;
#X connect 34 0 11 1;
#X connect 34 0 14 1;
#X restore 377 593 pd Pulse1_osc8_datas;
#N canvas -72 0 774 976 Pulse1_osc6_datas 0;
#X obj 138 143 - 1;
#X obj 134 228 /;
#X obj 138 169 t b f;
#X msg 132 199 1, f 1;
#X obj 68 354 -;
#X obj 68 302 t b f;
#X msg 68 328 1;
#X obj 138 60 t f f;
#X obj 215 435 t b f;
#X obj 215 382 - 0.5;
#X obj 215 489 + 0.5;
#X obj 215 463 *;
#X obj 68 433 t b f;
#X obj 68 380 - 0.5;
#X obj 68 487 + 0.5;
#X obj 68 461 *;
#X obj 68 407 r Pulse1_Unison_stereo;
#X obj 215 409 r Pulse1_Unison_stereo;
#X obj 251 151 >= 7;
#X obj 132 266 * 6;
#X obj 215 515 s Pulse1_osc6_right;
#X obj 68 514 s Pulse1_osc6_left;
#X obj 251 177 s Pulse1_osc6_uni_gate;
#X obj 138 34 r Pulse1_Unison;
#X obj 512 242 r Pulse1_Detune;
#X obj 512 390 *;
#X obj 548 346 t b f;
#X obj 548 320 - 0.5;
#X obj 593 392 *;
#X obj 593 268 r Pulse1_Phase;
#X obj 512 416 s Pulse1_osc6_Detune;
#X obj 593 444 s Pulse1_osc6_Phase;
#X connect 0 0 2 0;
#X connect 1 0 19 0;
#X connect 2 0 3 0;
#X connect 2 1 1 1;
#X connect 3 0 1 0;
#X connect 4 0 13 0;
#X connect 5 0 6 0;
#X connect 5 1 4 1;
#X connect 6 0 4 0;
#X connect 7 0 0 0;
#X connect 7 1 18 0;
#X connect 8 0 11 0;
#X connect 8 1 11 1;
#X connect 9 0 11 0;
#X connect 10 0 20 0;
#X connect 11 0 10 0;
#X connect 12 0 15 0;
#X connect 12 1 15 1;
#X connect 13 0 15 0;
#X connect 14 0 21 0;
#X connect 15 0 14 0;
#X connect 16 0 12 0;
#X connect 17 0 8 0;
#X connect 18 0 22 0;
#X connect 19 0 5 0;
#X connect 19 0 9 0;
#X connect 19 0 27 0;
#X connect 23 0 7 0;
#X connect 24 0 25 0;
#X connect 25 0 30 0;
#X connect 26 0 25 0;
#X connect 26 0 28 0;
#X connect 26 1 25 1;
#X connect 26 1 28 1;
#X connect 27 0 26 0;
#X connect 28 0 31 0;
#X connect 29 0 28 0;
#X restore 377 535 pd Pulse1_osc6_datas;
#X msg 911 143 0.5;
#X msg 675 143 0.25;
#X obj 477 107 loadbang;
#X obj 207 261 !=;
#X obj 168 287 spigot;
#X obj 168 235 t f f;
#X obj 168 209 + 1;
#X msg 118 81 0;
#X obj 692 311 s Pulse1_Phase;
#X obj 927 311 s Pulse1_Unison_stereo;
#X obj 168 313 s Pulse1_Unison;
#X obj 448 312 f;
#X obj 662 311 f;
#X obj 897 311 f;
#X obj 448 338 s Visual_Pulse1_Detune;
#X obj 662 337 s Visual_Pulse1_Phase;
#X obj 897 337 s Visual_Pulse1_Unison_stereo;
#X obj 78 339 s Visual_Pulse1_Unison;
#X obj 78 313 f;
#X obj 118 55 loadbang;
#X obj 207 153 r Pulse1_Osc_Spigot;
#X obj 168 179 spigot;
#X obj 168 128 r Unison_Voices;
#X obj 78 154 r Init_Pulse1;
#X obj 505 234 r Pulse1_Osc_Spigot;
#X obj 466 260 spigot;
#X obj 448 184 r Init_Pulse1;
#X obj 466 209 r Detune;
#X obj 731 259 r Pulse1_Osc_Spigot;
#X obj 692 285 spigot;
#X obj 692 234 r Uni_Phase;
#X obj 662 187 r Init_Pulse1;
#X obj 897 181 r Init_Pulse1;
#X obj 498 286 - 0.01;
#X obj 498 312 s Pulse1_Detune;
#X obj 979 253 r Pulse1_Osc_Spigot;
#X obj 940 278 spigot;
#X obj 940 228 r Unison_stereo;
#X text 533 533 Each oscillator needs special settings depending of
the parameters of the unison. A phase \, stereo offset \, detuning
\, for each osc. Some variable are also needed inside the algorithm
of the patches. They are calculated in these subpatches;
#X text 115 11 Memory SubPatch about the unison datas for PULSE 1;
#X msg 477 143 0.05;
#X connect 9 0 18 0;
#X connect 9 0 22 1;
#X connect 10 0 17 0;
#X connect 10 0 21 1;
#X connect 11 0 9 0;
#X connect 11 0 49 0;
#X connect 11 0 10 0;
#X connect 12 0 13 1;
#X connect 13 0 12 1;
#X connect 13 0 19 0;
#X connect 14 0 13 0;
#X connect 14 1 12 0;
#X connect 15 0 14 0;
#X connect 16 0 15 0;
#X connect 16 0 27 1;
#X connect 20 0 23 0;
#X connect 21 0 24 0;
#X connect 22 0 25 0;
#X connect 27 0 26 0;
#X connect 28 0 16 0;
#X connect 29 0 30 1;
#X connect 30 0 15 0;
#X connect 30 0 27 1;
#X connect 31 0 30 0;
#X connect 32 0 27 0;
#X connect 33 0 34 1;
#X connect 34 0 20 1;
#X connect 34 0 42 0;
#X connect 35 0 20 0;
#X connect 36 0 34 0;
#X connect 37 0 38 1;
#X connect 38 0 17 0;
#X connect 38 0 21 1;
#X connect 39 0 38 0;
#X connect 40 0 21 0;
#X connect 41 0 22 0;
#X connect 42 0 43 0;
#X connect 44 0 45 1;
#X connect 45 0 18 0;
#X connect 45 0 22 1;
#X connect 46 0 45 0;
#X connect 49 0 42 0;
#X connect 49 0 20 1;
#X restore 69 226 pd Pulse1_Unison_Datas;
#N canvas -9 -9 1920 976 Pulse1_FX_Filter_Datas 0;
#X obj 59 195 loadbang;
#X obj 59 321 f;
#X obj 126 271 r Pulse1_Osc_Spigot;
#X obj 87 296 spigot;
#X obj 28 163 r Init_Pulse1;
#X obj 87 246 r FX_Filter_Freq;
#X obj 87 321 s Pulse1_FX_Filter_Freq;
#X obj 59 346 s Visual_Pulse1_FX_Filter_Freq;
#X obj 299 195 loadbang;
#X obj 299 321 f;
#X obj 366 271 r Pulse1_Osc_Spigot;
#X obj 327 296 spigot;
#X obj 268 163 r Init_Pulse1;
#X obj 327 246 r FX_Filter_Width;
#X obj 327 321 s Pulse1_FX_Filter_Width;
#X obj 299 346 s Visual_Pulse1_FX_Filter_Width;
#X obj 539 195 loadbang;
#X obj 539 321 f;
#X obj 606 271 r Pulse1_Osc_Spigot;
#X obj 567 296 spigot;
#X obj 508 163 r Init_Pulse1;
#X obj 567 321 s Pulse1_FX_Filter_Res;
#X obj 539 346 s Visual_Pulse1_FX_Filter_Res;
#X obj 567 246 r FX_Filter_Resonance;
#X obj 769 195 loadbang;
#X obj 769 321 f;
#X obj 836 271 r Pulse1_Osc_Spigot;
#X obj 797 296 spigot;
#X obj 738 163 r Init_Pulse1;
#X obj 797 321 s Pulse1_FX_Filter_Decay_Time;
#X obj 769 346 s Visual_Pulse1_FX_Filter_Decay_Time;
#X obj 797 246 r FX_Filter_Decay_Time;
#X obj 1049 195 loadbang;
#X obj 1049 321 f;
#X obj 1116 271 r Pulse1_Osc_Spigot;
#X obj 1077 296 spigot;
#X obj 1018 163 r Init_Pulse1;
#X msg 539 221 1;
#X msg 1049 221 1;
#X obj 1329 195 loadbang;
#X obj 1329 321 f;
#X obj 1396 271 r Pulse1_Osc_Spigot;
#X obj 1357 296 spigot;
#X obj 1298 163 r Init_Pulse1;
#X msg 1329 221 1;
#X obj 1357 321 s Pulse1_FX_Filter_Indice_Courbe;
#X obj 1329 346 s Visual_Pulse1_FX_Filter_Indice_Courbe;
#X obj 1077 246 r FX_Filter_Kb_Track;
#X obj 1077 321 s Pulse1_FX_Filter_Kb_Track;
#X obj 1049 346 s Visual_Pulse1_FX_Filter_Kb_Track;
#X msg 59 221 0;
#X obj 1357 246 r FX_Filter_Indice_Courbe;
#X msg 769 221 400;
#X obj 1049 625 loadbang;
#X obj 1049 751 f;
#X obj 1116 701 r Pulse1_Osc_Spigot;
#X obj 1077 726 spigot;
#X obj 1018 593 r Init_Pulse1;
#X obj 1077 676 r FX_Filter_Bypass;
#X obj 1077 751 s Pulse1_FX_Filter_Bypass;
#X obj 1049 776 s Visual_Pulse1_FX_Filter_Bypass;
#X msg 1049 651 1;
#X msg 299 221 4;
#X text 115 11 Memory SubPatch about the filters datas for PULSE 1
;
#X obj 103 662 loadbang;
#X obj 103 788 f;
#X obj 131 763 spigot;
#X obj 383 662 loadbang;
#X obj 383 788 f;
#X obj 411 763 spigot;
#X obj 663 662 loadbang;
#X obj 663 788 f;
#X obj 691 763 spigot;
#X msg 103 688 1;
#X msg 383 688 0;
#X msg 663 688 0;
#X obj 131 713 r FX_Filter_Lowpass_On;
#X obj 411 713 r FX_Filter_Highpass_On;
#X obj 691 713 r FX_Filter_Bandpass_On;
#X obj 72 630 r Init_Pulse1;
#X obj 352 630 r Init_Pulse1;
#X obj 632 630 r Init_Pulse1;
#X obj 170 738 r Pulse1_Osc_Spigot;
#X obj 450 738 r Pulse1_Osc_Spigot;
#X obj 730 738 r Pulse1_Osc_Spigot;
#X obj 383 813 s Visual_Pulse1_FX_Filter_Highpass_On;
#X obj 663 813 s Visual_Pulse1_FX_Filter_Bandpass_On;
#X obj 691 788 s Pulse1_FX_Filter_Bandpass_On;
#X obj 131 788 s Pulse1_FX_Filter_Lowpass_On;
#X obj 411 788 s Pulse1_FX_Filter_Highpass_On;
#X obj 102 813 s Visual_Pulse1_FX_Filter_Lowpass_On;
#X connect 0 0 50 0;
#X connect 1 0 7 0;
#X connect 2 0 3 1;
#X connect 3 0 1 1;
#X connect 3 0 6 0;
#X connect 4 0 1 0;
#X connect 5 0 3 0;
#X connect 8 0 62 0;
#X connect 9 0 15 0;
#X connect 10 0 11 1;
#X connect 11 0 9 1;
#X connect 11 0 14 0;
#X connect 12 0 9 0;
#X connect 13 0 11 0;
#X connect 16 0 37 0;
#X connect 17 0 22 0;
#X connect 18 0 19 1;
#X connect 19 0 17 1;
#X connect 19 0 21 0;
#X connect 20 0 17 0;
#X connect 23 0 19 0;
#X connect 24 0 52 0;
#X connect 25 0 30 0;
#X connect 26 0 27 1;
#X connect 27 0 25 1;
#X connect 27 0 29 0;
#X connect 28 0 25 0;
#X connect 31 0 27 0;
#X connect 32 0 38 0;
#X connect 33 0 49 0;
#X connect 34 0 35 1;
#X connect 35 0 33 1;
#X connect 35 0 48 0;
#X connect 36 0 33 0;
#X connect 37 0 17 1;
#X connect 37 0 21 0;
#X connect 38 0 33 1;
#X connect 38 0 48 0;
#X connect 39 0 44 0;
#X connect 40 0 46 0;
#X connect 41 0 42 1;
#X connect 42 0 40 1;
#X connect 42 0 45 0;
#X connect 43 0 40 0;
#X connect 44 0 40 1;
#X connect 44 0 45 0;
#X connect 47 0 35 0;
#X connect 50 0 1 1;
#X connect 50 0 6 0;
#X connect 51 0 42 0;
#X connect 52 0 25 1;
#X connect 52 0 29 0;
#X connect 53 0 61 0;
#X connect 54 0 60 0;
#X connect 55 0 56 1;
#X connect 56 0 54 1;
#X connect 56 0 59 0;
#X connect 57 0 54 0;
#X connect 58 0 56 0;
#X connect 61 0 54 1;
#X connect 61 0 59 0;
#X connect 62 0 9 1;
#X connect 62 0 14 0;
#X connect 64 0 73 0;
#X connect 65 0 90 0;
#X connect 66 0 65 1;
#X connect 66 0 88 0;
#X connect 67 0 74 0;
#X connect 68 0 85 0;
#X connect 69 0 68 1;
#X connect 69 0 89 0;
#X connect 70 0 75 0;
#X connect 71 0 86 0;
#X connect 72 0 71 1;
#X connect 72 0 87 0;
#X connect 73 0 65 1;
#X connect 73 0 88 0;
#X connect 74 0 68 1;
#X connect 74 0 89 0;
#X connect 75 0 71 1;
#X connect 75 0 87 0;
#X connect 76 0 66 0;
#X connect 77 0 69 0;
#X connect 78 0 72 0;
#X connect 79 0 65 0;
#X connect 80 0 68 0;
#X connect 81 0 71 0;
#X connect 82 0 66 1;
#X connect 83 0 69 1;
#X connect 84 0 72 1;
#X restore 69 277 pd Pulse1_FX_Filter_Datas;
#X obj 719 571 != 0;
#X obj 719 616 switch~;
#X obj 640 559 loadbang;
#X msg 640 585 0;
#X text 67 48 Memory SubPatches are used to keep datas \, in order
to later send them to the graphic interface.;
#N canvas -9 -9 1920 976 Pulse1_Various_Datas 0;
#X obj 788 75 loadbang;
#X obj 858 178 - 1;
#X obj 858 203 * -1;
#X obj 311 42 loadbang;
#X obj 578 228 s Pulse1_Inv_Pha;
#X obj 103 228 s Pulse1_Master;
#X obj 858 228 s Pulse1_No_Sus_On;
#X obj 896 183 s Pulse1_Hold_Sus_On;
#X msg 788 100 1;
#X obj 73 228 f;
#X obj 280 228 f;
#X obj 280 253 s Visual_Pulse1_Value;
#X obj 73 253 s Visual_Pulse1_Master;
#X obj 548 228 f;
#X obj 548 253 s Visual_Pulse1_Inv_Pha;
#X msg 548 70 0;
#X obj 548 44 loadbang;
#X obj 788 228 f;
#X obj 788 253 s Visual_Pulse1_Hold_Sustain;
#X obj 73 128 r Init_Pulse1;
#X obj 897 100 r Pulse1_Osc_Spigot;
#X obj 858 125 spigot;
#X obj 858 75 r Hold_Sustain;
#X obj 617 125 r Pulse1_Osc_Spigot;
#X obj 578 150 spigot;
#X obj 578 100 r Osc_Inv_Phase;
#X obj 378 118 r Pulse1_Osc_Spigot;
#X obj 339 143 spigot;
#X obj 339 93 r Osc_Mod_Value;
#X obj 142 178 r Pulse1_Osc_Spigot;
#X obj 103 203 spigot;
#X obj 103 153 r Osc_Master_Volume;
#X obj 280 10 r Init_Pulse1;
#X obj 492 17 r Init_Pulse1;
#X obj 774 44 r Init_Pulse1;
#X obj 578 176 - 0.5;
#X obj 578 202 * 2;
#X obj 1081 102 loadbang;
#X obj 1081 228 f;
#X obj 1148 178 r Pulse1_Osc_Spigot;
#X obj 1109 203 spigot;
#X obj 1050 70 r Init_Pulse1;
#X obj 1109 153 r Max_Velocity;
#X msg 1081 128 0;
#X obj 1109 228 s Pulse1_Max_Velocity;
#X obj 1081 253 s Visual_Pulse1_Max_Velocity;
#X obj 1321 228 f;
#X obj 1388 178 r Pulse1_Osc_Spigot;
#X obj 1349 203 spigot;
#X obj 1321 129 r Init_Pulse1;
#X obj 1581 228 f;
#X obj 1648 178 r Pulse1_Osc_Spigot;
#X obj 1609 203 spigot;
#X obj 1581 129 r Init_Pulse1;
#X obj 1349 153 r Note_Detune;
#X obj 1349 228 s Pulse1_Note_Detune;
#X obj 1321 253 s Visual_Pulse1_Note_Detune;
#X obj 1609 153 r Coarse;
#X obj 1609 228 s Pulse1_Coarse;
#X obj 1581 253 s Visual_Pulse1_Coarse;
#X text 310 285 PWM value;
#X obj 62 578 f;
#X msg 88 470 0;
#X obj 88 444 loadbang;
#X obj 157 525 r Pulse1_Osc_Spigot;
#X obj 118 550 spigot;
#X obj 62 417 r Init_Pulse1;
#X obj 118 500 r Panning_Value;
#X obj 62 603 s Visual_Pulse1_Panning_Value;
#X obj 118 578 s Pulse1_Panning_Value;
#X msg 311 68 0;
#X obj 339 169 * 14;
#X obj 339 195 + 2;
#X obj 339 228 s Pulse1_Pulse_Value;
#X obj 532 578 f;
#X msg 558 470 0;
#X obj 558 444 loadbang;
#X obj 627 525 r Pulse1_Osc_Spigot;
#X obj 588 550 spigot;
#X obj 532 417 r Init_Pulse1;
#X obj 588 500 r Mode;
#X obj 588 578 s Pulse1_Mode;
#X obj 532 603 s Visual_Pulse1_Mode;
#X obj 385 698 r BEND;
#X obj 385 777 +;
#X obj 405 751 t b f;
#X obj 65 777 +;
#X obj 72 752 t b f;
#X text 539 802 A global pitch offset value;
#X obj 65 700 r Pulse1_Note_Detune;
#X obj 72 726 r Pulse1_Coarse;
#X obj 65 803 s Pulse1_Note_Detune_Coarse;
#X obj 405 724 r Pulse1_Note_Detune_Coarse;
#X obj 385 803 s Pulse1_Note_Offset;
#X connect 0 0 8 0;
#X connect 1 0 2 0;
#X connect 2 0 6 0;
#X connect 3 0 70 0;
#X connect 8 0 1 0;
#X connect 8 0 7 0;
#X connect 8 0 17 1;
#X connect 9 0 12 0;
#X connect 10 0 11 0;
#X connect 13 0 14 0;
#X connect 15 0 35 0;
#X connect 15 0 13 1;
#X connect 16 0 15 0;
#X connect 17 0 18 0;
#X connect 19 0 9 0;
#X connect 20 0 21 1;
#X connect 21 0 7 0;
#X connect 21 0 1 0;
#X connect 21 0 17 1;
#X connect 22 0 21 0;
#X connect 23 0 24 1;
#X connect 24 0 13 1;
#X connect 24 0 35 0;
#X connect 25 0 24 0;
#X connect 26 0 27 1;
#X connect 27 0 10 1;
#X connect 27 0 71 0;
#X connect 28 0 27 0;
#X connect 29 0 30 1;
#X connect 30 0 9 1;
#X connect 30 0 5 0;
#X connect 31 0 30 0;
#X connect 32 0 10 0;
#X connect 33 0 13 0;
#X connect 34 0 17 0;
#X connect 35 0 36 0;
#X connect 36 0 4 0;
#X connect 37 0 43 0;
#X connect 38 0 45 0;
#X connect 39 0 40 1;
#X connect 40 0 38 1;
#X connect 40 0 44 0;
#X connect 41 0 38 0;
#X connect 42 0 40 0;
#X connect 43 0 38 1;
#X connect 43 0 44 0;
#X connect 46 0 56 0;
#X connect 47 0 48 1;
#X connect 48 0 46 1;
#X connect 48 0 55 0;
#X connect 49 0 46 0;
#X connect 50 0 59 0;
#X connect 51 0 52 1;
#X connect 52 0 50 1;
#X connect 52 0 58 0;
#X connect 53 0 50 0;
#X connect 54 0 48 0;
#X connect 57 0 52 0;
#X connect 61 0 68 0;
#X connect 62 0 61 1;
#X connect 62 0 69 0;
#X connect 63 0 62 0;
#X connect 64 0 65 1;
#X connect 65 0 61 1;
#X connect 65 0 69 0;
#X connect 66 0 61 0;
#X connect 67 0 65 0;
#X connect 70 0 10 1;
#X connect 70 0 71 0;
#X connect 71 0 72 0;
#X connect 72 0 73 0;
#X connect 74 0 82 0;
#X connect 75 0 74 1;
#X connect 75 0 81 0;
#X connect 76 0 75 0;
#X connect 77 0 78 1;
#X connect 78 0 74 1;
#X connect 78 0 81 0;
#X connect 79 0 74 0;
#X connect 80 0 78 0;
#X connect 83 0 84 0;
#X connect 84 0 93 0;
#X connect 85 0 84 0;
#X connect 85 1 84 1;
#X connect 86 0 91 0;
#X connect 87 0 86 0;
#X connect 87 1 86 1;
#X connect 89 0 86 0;
#X connect 90 0 87 0;
#X connect 92 0 85 0;
#X restore 69 125 pd Pulse1_Various_Datas;
#X text 67 372 Running: Clicking "Pulse2" for example will lock the
input for the data \, and send the recorded datas to the user interface
;
#X text 711 651 Si (master + Les send de la matrice FM) sont =/= 0
\, on active le DSP pour le patch et donc tout les subpatchs, f 27
;
#X obj 1244 45 r Pulse1_Max_Velocity;
#X obj 1287 90 - 1;
#X obj 1287 116 * -1;
#X obj 1248 131 spigot;
#X obj 1158 156 unpack;
#X obj 1158 234 pack;
#X obj 1158 131 spigot;
#X obj 1158 45 r Note_On;
#X obj 1197 181 != 0;
#X obj 1197 206 * 111;
#N canvas -9 -9 1920 976 Pulse1_FX_Dist_Datas 0;
#X obj 79 85 loadbang;
#X obj 79 211 f;
#X obj 146 161 r Pulse1_Osc_Spigot;
#X obj 107 186 spigot;
#X obj 48 53 r Init_Pulse1;
#X msg 79 111 1;
#X obj 79 655 loadbang;
#X obj 79 781 f;
#X obj 146 731 r Pulse1_Osc_Spigot;
#X obj 107 756 spigot;
#X obj 48 623 r Init_Pulse1;
#X obj 107 136 r Dist1_Gain;
#X obj 107 211 s Pulse1_Dist1_Gain;
#X obj 79 236 s Visual_Pulse1_Dist1_Gain;
#X msg 79 681 200;
#X obj 359 655 loadbang;
#X obj 359 781 f;
#X obj 426 731 r Pulse1_Osc_Spigot;
#X obj 387 756 spigot;
#X obj 328 623 r Init_Pulse1;
#X msg 359 681 1;
#X obj 639 655 loadbang;
#X obj 639 781 f;
#X obj 706 731 r Pulse1_Osc_Spigot;
#X obj 667 756 spigot;
#X obj 608 623 r Init_Pulse1;
#X msg 639 681 1;
#X obj 1059 95 loadbang;
#X obj 1059 221 f;
#X obj 1126 171 r Pulse1_Osc_Spigot;
#X obj 1087 196 spigot;
#X obj 1028 63 r Init_Pulse1;
#X obj 1339 95 loadbang;
#X obj 1339 221 f;
#X obj 1406 171 r Pulse1_Osc_Spigot;
#X obj 1367 196 spigot;
#X obj 1308 63 r Init_Pulse1;
#X obj 1087 146 r Dist1_Switch;
#X obj 1087 221 s Pulse1_Dist1_Switch;
#X obj 1059 246 s Visual_Pulse1_Dist1_Switch;
#X obj 1339 246 s Visual_Pulse1_Dist2_Switch;
#X obj 1367 221 s Pulse1_Dist2_Switch;
#X obj 1367 144 r Dist2_Switch;
#X msg 1339 121 0;
#X msg 1059 121 1;
#X obj 1189 655 loadbang;
#X obj 1189 781 f;
#X obj 1256 731 r Pulse1_Osc_Spigot;
#X obj 1217 756 spigot;
#X obj 1158 623 r Init_Pulse1;
#X obj 1217 781 s Pulse1_Dist_Bypass;
#X obj 1189 806 s Visual_Pulse1_Dist_Bypass;
#X obj 1217 704 r Dist_Bypass;
#X msg 1189 681 1;
#X obj 359 806 s Visual_Pulse1_Dist3_Low_Gain;
#X obj 387 781 s Pulse1_Dist3_Low_Gain;
#X obj 667 781 s Pulse1_Dist3_High_Gain;
#X obj 639 806 s Visual_Pulse1_Dist3_High_Gain;
#X obj 79 806 s Visual_Pulse1_Dist3_Freq_Split;
#X obj 107 781 s Pulse1_Dist3_Freq_Split;
#X obj 387 704 r Dist3_Low_Gain;
#X obj 667 704 r Dist3_High_Gain;
#X obj 107 706 r Dist3_Freq_Split;
#X obj 79 395 loadbang;
#X obj 79 521 f;
#X obj 146 471 r Pulse1_Osc_Spigot;
#X obj 107 496 spigot;
#X obj 48 363 r Init_Pulse1;
#X msg 79 421 1;
#X obj 107 444 r Dist2_Gain;
#X obj 107 521 s Pulse1_Dist2_Gain;
#X obj 79 546 s Visual_Pulse1_Dist2_Gain;
#X obj 1619 95 loadbang;
#X obj 1619 221 f;
#X obj 1686 171 r Pulse1_Osc_Spigot;
#X obj 1647 196 spigot;
#X obj 1588 63 r Init_Pulse1;
#X msg 1619 121 0;
#X obj 1619 246 s Visual_Pulse1_Dist3_Switch;
#X obj 1647 221 s Pulse1_Dist3_Switch;
#X obj 1647 144 r Dist3_Switch;
#X obj 1429 655 loadbang;
#X obj 1429 781 f;
#X obj 1496 731 r Pulse1_Osc_Spigot;
#X obj 1457 756 spigot;
#X obj 1398 623 r Init_Pulse1;
#X msg 1429 681 1;
#X obj 1429 806 s Visual_Pulse1_Out_Gain;
#X obj 1457 781 s Pulse1_Out_Gain;
#X obj 1457 704 r Out_Gain;
#X connect 0 0 5 0;
#X connect 1 0 13 0;
#X connect 2 0 3 1;
#X connect 3 0 1 1;
#X connect 3 0 12 0;
#X connect 4 0 1 0;
#X connect 5 0 1 1;
#X connect 5 0 12 0;
#X connect 6 0 14 0;
#X connect 7 0 58 0;
#X connect 8 0 9 1;
#X connect 9 0 7 1;
#X connect 9 0 59 0;
#X connect 10 0 7 0;
#X connect 11 0 3 0;
#X connect 14 0 7 1;
#X connect 14 0 59 0;
#X connect 15 0 20 0;
#X connect 16 0 54 0;
#X connect 17 0 18 1;
#X connect 18 0 16 1;
#X connect 18 0 55 0;
#X connect 19 0 16 0;
#X connect 20 0 16 1;
#X connect 20 0 55 0;
#X connect 21 0 26 0;
#X connect 22 0 57 0;
#X connect 23 0 24 1;
#X connect 24 0 22 1;
#X connect 24 0 56 0;
#X connect 25 0 22 0;
#X connect 26 0 22 1;
#X connect 26 0 56 0;
#X connect 27 0 44 0;
#X connect 28 0 39 0;
#X connect 29 0 30 1;
#X connect 30 0 28 1;
#X connect 30 0 38 0;
#X connect 31 0 28 0;
#X connect 32 0 43 0;
#X connect 33 0 40 0;
#X connect 34 0 35 1;
#X connect 35 0 33 1;
#X connect 35 0 41 0;
#X connect 36 0 33 0;
#X connect 37 0 30 0;
#X connect 42 0 35 0;
#X connect 43 0 33 1;
#X connect 43 0 41 0;
#X connect 44 0 28 1;
#X connect 44 0 38 0;
#X connect 45 0 53 0;
#X connect 46 0 51 0;
#X connect 47 0 48 1;
#X connect 48 0 46 1;
#X connect 48 0 50 0;
#X connect 49 0 46 0;
#X connect 52 0 48 0;
#X connect 53 0 46 1;
#X connect 53 0 50 0;
#X connect 60 0 18 0;
#X connect 61 0 24 0;
#X connect 62 0 9 0;
#X connect 63 0 68 0;
#X connect 64 0 71 0;
#X connect 65 0 66 1;
#X connect 66 0 64 1;
#X connect 66 0 70 0;
#X connect 67 0 64 0;
#X connect 68 0 64 1;
#X connect 68 0 70 0;
#X connect 69 0 66 0;
#X connect 72 0 77 0;
#X connect 73 0 78 0;
#X connect 74 0 75 1;
#X connect 75 0 73 1;
#X connect 75 0 79 0;
#X connect 76 0 73 0;
#X connect 77 0 73 1;
#X connect 77 0 79 0;
#X connect 80 0 75 0;
#X connect 81 0 86 0;
#X connect 82 0 87 0;
#X connect 83 0 84 1;
#X connect 84 0 82 1;
#X connect 84 0 88 0;
#X connect 85 0 82 0;
#X connect 86 0 82 1;
#X connect 86 0 88 0;
#X connect 89 0 84 0;
#X restore 69 328 pd Pulse1_FX_Dist_Datas;
#N canvas 735 85 1030 499 Pulse1_Panning 0;
#X obj 99 101 inlet~;
#X obj 664 93 inlet~;
#X obj 99 315 *~;
#X obj 172 345 *~;
#X obj 529 315 *~;
#X obj 664 345 *~;
#X obj 99 397 +~;
#X obj 646 392 +~;
#X obj 99 426 outlet~;
#X obj 646 420 outlet~;
#X obj 117 288 r Pulse1_L_to_L_output;
#X obj 190 318 r Pulse1_R_to_L_output;
#X obj 682 318 r Pulse1_R_to_R_output;
#X obj 547 288 r Pulse1_L_to_R_output;
#X obj 1179 236 clip 0 1;
#X obj 1390 235 clip -1 0;
#X obj 1406 267 + 1;
#X obj 1179 292 - 1;
#X obj 1390 325 * -1;
#X obj 1179 319 * -1;
#X obj 1179 346 s Pulse1_L_to_L_output;
#X obj 1406 293 s Pulse1_R_to_R_output;
#X obj 1189 263 s Pulse1_L_to_R_output;
#X obj 1297 179 r Pulse1_Panning_Value;
#X obj 1390 352 s Pulse1_R_to_L_output;
#X connect 0 0 2 0;
#X connect 0 0 4 0;
#X connect 1 0 3 0;
#X connect 1 0 5 0;
#X connect 2 0 6 0;
#X connect 3 0 6 1;
#X connect 4 0 7 0;
#X connect 5 0 7 1;
#X connect 6 0 8 0;
#X connect 7 0 9 0;
#X connect 10 0 2 1;
#X connect 11 0 3 1;
#X connect 12 0 5 1;
#X connect 13 0 4 1;
#X connect 14 0 17 0;
#X connect 14 0 22 0;
#X connect 15 0 16 0;
#X connect 15 0 18 0;
#X connect 16 0 21 0;
#X connect 17 0 19 0;
#X connect 18 0 24 0;
#X connect 19 0 20 0;
#X connect 23 0 14 0;
#X connect 23 0 15 0;
#X restore 1158 715 pd Pulse1_Panning;
#X obj 1229 775 * -1;
#X obj 1229 801 + 1;
#X obj 1229 749 r Pulse1_Mute;
#X obj 719 539 r Pulse1_Master;
#X obj 452 717 r Pulse1_Mode;
#X obj 562 839 t b f;
#X obj 562 866 spigot;
#X obj 562 813 != 0;
#X obj 562 892 s Pulse1_Polyphonic_Mode_Reset;
#X obj 322 839 t b f;
#X obj 322 866 spigot;
#X obj 322 892 s Pulse1_Monophonic_Mode_Reset;
#X obj 322 813 != 1;
#X obj 1158 670 *~;
#X obj 1295 670 *~;
#X obj 1283 296 int;
#X obj 1283 270 - 1;
#X obj 1283 322 + 1;
#X obj 1158 383 spigot;
#X obj 1158 491 spigot;
#X obj 1197 465 == 0;
#X obj 1385 303 r Legato_Note;
#X obj 1486 492 spigot;
#X obj 1486 303 r Legato_Vel;
#X obj 1385 492 spigot;
#X obj 1454 459 == 1;
#X obj 1385 383 spigot;
#X obj 1486 383 spigot;
#X obj 1158 522 clone Pulse1_Polyphonie.cl 109;
#X obj 1385 522 Pulse1_Monophonie;
#X obj 1454 434 r Pulse1_Mode;
#X obj 1197 439 r Pulse1_Mode;
#X obj 1283 245 r Pulse1_Master;
#X obj 1225 630 r Pulse1_Out_Gain;
#X connect 2 0 0 0;
#X connect 3 0 1 0;
#X connect 7 0 8 0;
#X connect 9 0 10 0;
#X connect 10 0 8 0;
#X connect 15 0 16 0;
#X connect 15 0 21 1;
#X connect 16 0 17 0;
#X connect 17 0 18 1;
#X connect 18 0 45 0;
#X connect 19 0 20 0;
#X connect 19 1 23 0;
#X connect 20 0 45 0;
#X connect 21 0 19 0;
#X connect 22 0 21 0;
#X connect 22 0 18 0;
#X connect 23 0 24 0;
#X connect 24 0 20 1;
#X connect 26 0 2 0;
#X connect 26 1 3 0;
#X connect 27 0 28 0;
#X connect 28 0 2 1;
#X connect 28 0 3 1;
#X connect 29 0 27 0;
#X connect 30 0 7 0;
#X connect 31 0 34 0;
#X connect 31 0 39 0;
#X connect 32 0 33 0;
#X connect 32 1 33 1;
#X connect 33 0 35 0;
#X connect 34 0 32 0;
#X connect 36 0 37 0;
#X connect 36 1 37 1;
#X connect 37 0 38 0;
#X connect 39 0 36 0;
#X connect 40 0 26 0;
#X connect 41 0 26 1;
#X connect 42 0 44 0;
#X connect 43 0 42 0;
#X connect 44 0 45 1;
#X connect 44 0 53 1;
#X connect 44 0 54 1;
#X connect 45 0 46 0;
#X connect 46 0 55 0;
#X connect 47 0 46 1;
#X connect 48 0 53 0;
#X connect 49 0 56 1;
#X connect 50 0 54 0;
#X connect 51 0 56 0;
#X connect 52 0 51 1;
#X connect 52 0 49 1;
#X connect 53 0 51 0;
#X connect 54 0 49 0;
#X connect 55 0 40 0;
#X connect 55 1 41 0;
#X connect 56 0 40 0;
#X connect 56 1 41 0;
#X connect 57 0 52 0;
#X connect 58 0 47 0;
#X connect 59 0 43 0;
#X connect 60 0 40 1;
#X connect 60 0 41 1;
