#N canvas -9 -9 1920 976 12;
#X obj 1209 398 *~;
#X obj 448 679 != 0;
#X obj 409 705 spigot;
#X obj 409 653 t f f;
#X obj 409 731 t f b b;
#X obj 409 626 spigot;
#X obj 432 783 s \$0_Pulse2_No_Sus_Note_Trigger;
#X obj 455 757 s \$0_Pulse2_No_Sus_DSP_On;
#X obj 448 600 r Pulse2_No_Sus_On;
#X obj 97 592 spigot;
#X obj 136 566 r Pulse2_Hold_Sus_On;
#X obj 53 689 != 0;
#X obj 14 715 spigot;
#X obj 14 663 t f f;
#X obj 14 741 t f b b;
#X obj 37 793 s \$0_Pulse2_Hold_Sus_Note_Trigger;
#X obj 60 767 s \$0_Pulse2_Hold_Sus_DSP_On;
#X obj 97 672 spigot;
#X obj 136 646 == 0;
#X obj 97 729 s \$0_Pulse2_Hold_Sus_Note_Release_Trigger;
#X obj 97 620 t b f;
#N canvas 398 88 1187 875 Pulse2_oscs 0;
#N canvas 2 17 1391 889 Pulse2_osc0 0;
#X obj 182 267 sig~;
#X obj 125 825 *~;
#X obj 276 851 outlet~;
#X obj 276 824 *~;
#X obj 125 852 outlet~;
#X obj 294 798 r Pulse2_osc0_right;
#X obj 143 797 r Pulse2_osc0_left;
#X obj 95 28 inlet;
#X obj 182 166 t b f;
#X obj 182 200 +;
#X obj 182 226 mtof;
#X obj 200 603 r Pulse2_Unison;
#X obj 182 629 /~;
#X obj 232 223 r \$0_Pulse2_No_Sus_Note_Trigger;
#X obj 232 197 r \$0_Pulse2_Hold_Sus_Note_Trigger;
#X obj 232 308 f;
#X obj 182 137 r Pulse2_osc0_Detune;
#X obj 250 250 r Pulse2_osc0_Phase;
#X obj 250 276 t b f;
#X obj 182 389 phasor~;
#X obj 182 442 -~ 1;
#X obj 182 415 *~;
#X obj 200 468 abs~;
#X obj 182 494 /~;
#X obj 226 415 r Pulse2_Pulse_Value;
#X connect 0 0 19 0;
#X connect 1 0 4 0;
#X connect 3 0 2 0;
#X connect 5 0 3 1;
#X connect 6 0 1 1;
#X connect 7 0 9 0;
#X connect 8 0 9 0;
#X connect 8 1 9 1;
#X connect 9 0 10 0;
#X connect 10 0 0 0;
#X connect 11 0 12 1;
#X connect 12 0 1 0;
#X connect 12 0 3 0;
#X connect 13 0 15 0;
#X connect 14 0 15 0;
#X connect 15 0 19 1;
#X connect 16 0 8 0;
#X connect 17 0 18 0;
#X connect 18 0 15 0;
#X connect 18 1 15 1;
#X connect 19 0 21 0;
#X connect 20 0 22 0;
#X connect 20 0 23 0;
#X connect 21 0 20 0;
#X connect 22 0 23 1;
#X connect 23 0 12 0;
#X connect 24 0 21 1;
#X restore 151 438 pd Pulse2_osc0;
#N canvas 7 0 1387 976 Pulse2_osc1 0;
#X obj 181 299 sig~;
#X obj 75 28 inlet;
#X obj 125 765 *~;
#X obj 276 764 *~;
#X obj 200 583 r Pulse2_Unison;
#X obj 182 609 /~;
#X obj 143 737 r Pulse2_osc1_left;
#X obj 294 738 r Pulse2_osc1_right;
#X obj 181 179 t b f;
#X obj 181 205 +;
#X obj 181 231 mtof;
#X obj 125 844 outlet~;
#X obj 125 817 *~;
#X obj 143 790 r Pulse2_osc1_uni_gate;
#X obj 275 844 outlet~;
#X obj 275 817 *~;
#X obj 293 790 r Pulse2_osc1_uni_gate;
#X obj 664 214 switch~;
#X msg 664 185 1;
#X obj 865 165 loadbang;
#X msg 865 193 0;
#X obj 664 98 r \$0_Pulse2_No_Sus_DSP_On;
#X obj 865 137 r \$0_Pulse2_No_Sus_DSP_Off;
#X obj 865 110 r \$0_Pulse2_Hold_Sus_DSP_Off;
#X obj 664 71 r \$0_Pulse2_Hold_Sus_DSP_On;
#X obj 865 82 r Pulse2_No_Sus_On;
#X obj 703 129 r Pulse2_osc1_uni_gate;
#X obj 178 145 r Pulse2_osc1_Detune;
#X obj 664 156 spigot;
#X obj 227 308 f;
#X obj 245 276 t b f;
#X obj 181 389 phasor~;
#X obj 181 442 -~ 1;
#X obj 181 415 *~;
#X obj 199 468 abs~;
#X obj 181 494 /~;
#X obj 245 250 r Pulse2_osc1_Phase;
#X obj 227 223 r \$0_Pulse2_No_Sus_Note_Trigger;
#X obj 227 197 r \$0_Pulse2_Hold_Sus_Note_Trigger;
#X obj 225 415 r Pulse2_Pulse_Value;
#X connect 0 0 31 0;
#X connect 1 0 9 0;
#X connect 2 0 12 0;
#X connect 3 0 15 0;
#X connect 4 0 5 1;
#X connect 5 0 2 0;
#X connect 5 0 3 0;
#X connect 6 0 2 1;
#X connect 7 0 3 1;
#X connect 8 0 9 0;
#X connect 8 1 9 1;
#X connect 9 0 10 0;
#X connect 10 0 0 0;
#X connect 12 0 11 0;
#X connect 13 0 12 1;
#X connect 15 0 14 0;
#X connect 16 0 15 1;
#X connect 18 0 17 0;
#X connect 19 0 20 0;
#X connect 20 0 17 0;
#X connect 21 0 28 0;
#X connect 22 0 20 0;
#X connect 23 0 20 0;
#X connect 24 0 28 0;
#X connect 25 0 20 0;
#X connect 26 0 28 1;
#X connect 27 0 8 0;
#X connect 28 0 18 0;
#X connect 29 0 31 1;
#X connect 30 0 29 0;
#X connect 30 1 29 1;
#X connect 31 0 33 0;
#X connect 32 0 34 0;
#X connect 32 0 35 0;
#X connect 33 0 32 0;
#X connect 34 0 35 1;
#X connect 35 0 5 0;
#X connect 36 0 30 0;
#X connect 37 0 29 0;
#X connect 38 0 29 0;
#X connect 39 0 33 1;
#X restore 252 438 pd Pulse2_osc1;
#N canvas -9 -9 1920 976 Pulse2_osc2 0;
#X obj 182 290 sig~;
#X obj 84 119 inlet;
#X obj 182 263 mtof;
#X obj 125 675 *~;
#X obj 276 674 *~;
#X obj 200 552 r Pulse2_Unison;
#X obj 182 579 /~;
#X obj 143 647 r Pulse2_osc2_left;
#X obj 294 648 r Pulse2_osc2_right;
#X obj 182 210 t b f;
#X obj 182 236 +;
#X obj 125 754 outlet~;
#X obj 125 727 *~;
#X obj 275 754 outlet~;
#X obj 275 727 *~;
#X obj 143 700 r Pulse2_osc2_uni_gate;
#X obj 293 700 r Pulse2_osc2_uni_gate;
#X obj 582 235 switch~;
#X msg 582 206 1;
#X obj 783 186 loadbang;
#X msg 783 214 0;
#X obj 582 119 r \$0_Pulse2_No_Sus_DSP_On;
#X obj 783 158 r \$0_Pulse2_No_Sus_DSP_Off;
#X obj 783 131 r \$0_Pulse2_Hold_Sus_DSP_Off;
#X obj 582 92 r \$0_Pulse2_Hold_Sus_DSP_On;
#X obj 783 103 r Pulse2_No_Sus_On;
#X obj 621 150 r Pulse2_osc2_uni_gate;
#X obj 305 200 r \$0_Pulse2_No_Sus_Note_Trigger;
#X obj 304 168 r \$0_Pulse2_Hold_Sus_Note_Trigger;
#X obj 232 274 f;
#X obj 582 177 spigot;
#X obj 181 137 r Pulse2_osc2_Detune;
#X obj 265 244 r Pulse2_osc2_Phase;
#X obj 182 389 phasor~;
#X obj 182 442 -~ 1;
#X obj 182 415 *~;
#X obj 200 468 abs~;
#X obj 182 494 /~;
#X obj 226 415 r Pulse2_Pulse_Value;
#X connect 0 0 33 0;
#X connect 1 0 10 0;
#X connect 2 0 0 0;
#X connect 3 0 12 0;
#X connect 4 0 14 0;
#X connect 5 0 6 1;
#X connect 6 0 3 0;
#X connect 6 0 4 0;
#X connect 7 0 3 1;
#X connect 8 0 4 1;
#X connect 9 0 10 0;
#X connect 9 1 10 1;
#X connect 10 0 2 0;
#X connect 12 0 11 0;
#X connect 14 0 13 0;
#X connect 15 0 12 1;
#X connect 16 0 14 1;
#X connect 18 0 17 0;
#X connect 19 0 20 0;
#X connect 20 0 17 0;
#X connect 21 0 30 0;
#X connect 22 0 20 0;
#X connect 23 0 20 0;
#X connect 24 0 30 0;
#X connect 25 0 20 0;
#X connect 26 0 30 1;
#X connect 27 0 29 0;
#X connect 28 0 29 0;
#X connect 29 0 33 1;
#X connect 30 0 18 0;
#X connect 31 0 9 0;
#X connect 32 0 29 1;
#X connect 33 0 35 0;
#X connect 34 0 36 0;
#X connect 34 0 37 0;
#X connect 35 0 34 0;
#X connect 36 0 37 1;
#X connect 37 0 6 0;
#X connect 38 0 35 1;
#X restore 353 438 pd Pulse2_osc2;
#X text 557 58 note;
#N canvas -9 -9 1920 976 Pulse2_osc3 0;
#X obj 181 287 +~;
#X obj 181 259 sig~;
#X obj 75 28 inlet;
#X obj 124 765 *~;
#X obj 275 764 *~;
#X obj 181 649 /~;
#X obj 142 737 r Pulse2_osc3_left;
#X obj 293 738 r Pulse2_osc3_right;
#X obj 181 179 t b f;
#X obj 181 205 +;
#X obj 124 844 outlet~;
#X obj 124 817 *~;
#X obj 274 844 outlet~;
#X obj 274 817 *~;
#X obj 142 790 r Pulse2_osc3_uni_gate;
#X obj 292 790 r Pulse2_osc3_uni_gate;
#X obj 181 231 mtof;
#X obj 199 622 r Pulse2_Unison;
#X obj 614 197 switch~;
#X msg 614 168 1;
#X obj 815 148 loadbang;
#X msg 815 176 0;
#X obj 614 81 r \$0_Pulse2_No_Sus_DSP_On;
#X obj 815 120 r \$0_Pulse2_No_Sus_DSP_Off;
#X obj 815 93 r \$0_Pulse2_Hold_Sus_DSP_Off;
#X obj 614 54 r \$0_Pulse2_Hold_Sus_DSP_On;
#X obj 815 65 r Pulse2_No_Sus_On;
#X obj 653 112 r Pulse2_osc3_uni_gate;
#X obj 614 139 spigot;
#X obj 183 145 r Pulse2_osc3_Detune;
#X obj 227 308 f;
#X obj 245 276 t b f;
#X obj 181 389 phasor~;
#X obj 181 442 -~ 1;
#X obj 181 415 *~;
#X obj 199 468 abs~;
#X obj 181 494 /~;
#X obj 227 223 r \$0_Pulse2_No_Sus_Note_Trigger;
#X obj 227 197 r \$0_Pulse2_Hold_Sus_Note_Trigger;
#X obj 225 415 r Pulse2_Pulse_Value;
#X obj 245 250 r Pulse2_osc3_Phase;
#X connect 0 0 32 0;
#X connect 1 0 0 0;
#X connect 2 0 9 0;
#X connect 3 0 11 0;
#X connect 4 0 13 0;
#X connect 5 0 3 0;
#X connect 5 0 4 0;
#X connect 6 0 3 1;
#X connect 7 0 4 1;
#X connect 8 0 9 0;
#X connect 8 1 9 1;
#X connect 9 0 16 0;
#X connect 11 0 10 0;
#X connect 13 0 12 0;
#X connect 14 0 11 1;
#X connect 15 0 13 1;
#X connect 16 0 1 0;
#X connect 17 0 5 1;
#X connect 19 0 18 0;
#X connect 20 0 21 0;
#X connect 21 0 18 0;
#X connect 22 0 28 0;
#X connect 23 0 21 0;
#X connect 24 0 21 0;
#X connect 25 0 28 0;
#X connect 26 0 21 0;
#X connect 27 0 28 1;
#X connect 28 0 19 0;
#X connect 29 0 8 0;
#X connect 30 0 32 1;
#X connect 31 0 30 0;
#X connect 31 1 30 1;
#X connect 32 0 34 0;
#X connect 33 0 35 0;
#X connect 33 0 36 0;
#X connect 34 0 33 0;
#X connect 35 0 36 1;
#X connect 36 0 5 0;
#X connect 37 0 30 0;
#X connect 38 0 30 0;
#X connect 39 0 34 1;
#X connect 40 0 31 0;
#X restore 454 438 pd Pulse2_osc3;
#N canvas -9 -9 1920 976 Pulse2_osc4 0;
#X obj 181 278 sig~;
#X obj 82 48 inlet;
#X obj 125 755 *~;
#X obj 276 754 *~;
#X obj 182 649 /~;
#X obj 181 179 t b f;
#X obj 181 205 +;
#X obj 125 834 outlet~;
#X obj 125 807 *~;
#X obj 275 834 outlet~;
#X obj 275 807 *~;
#X obj 143 780 r Pulse2_osc4_uni_gate;
#X obj 293 780 r Pulse2_osc4_uni_gate;
#X obj 200 622 r Pulse2_Unison;
#X obj 181 231 mtof;
#X obj 604 246 switch~;
#X msg 604 217 1;
#X obj 805 197 loadbang;
#X msg 805 225 0;
#X obj 604 130 r \$0_Pulse2_No_Sus_DSP_On;
#X obj 805 169 r \$0_Pulse2_No_Sus_DSP_Off;
#X obj 805 142 r \$0_Pulse2_Hold_Sus_DSP_Off;
#X obj 604 103 r \$0_Pulse2_Hold_Sus_DSP_On;
#X obj 805 114 r Pulse2_No_Sus_On;
#X obj 643 161 r Pulse2_osc4_uni_gate;
#X obj 604 188 spigot;
#X obj 181 134 r Pulse2_osc4_Detune;
#X obj 143 727 r Pulse2_osc4_left;
#X obj 294 728 r Pulse2_osc4_right;
#X obj 227 308 f;
#X obj 245 276 t b f;
#X obj 181 389 phasor~;
#X obj 181 442 -~ 1;
#X obj 181 415 *~;
#X obj 199 468 abs~;
#X obj 181 494 /~;
#X obj 227 223 r \$0_Pulse2_No_Sus_Note_Trigger;
#X obj 227 197 r \$0_Pulse2_Hold_Sus_Note_Trigger;
#X obj 225 415 r Pulse2_Pulse_Value;
#X obj 245 250 r Pulse2_osc4_Phase;
#X connect 0 0 31 0;
#X connect 1 0 6 0;
#X connect 2 0 8 0;
#X connect 3 0 10 0;
#X connect 4 0 2 0;
#X connect 4 0 3 0;
#X connect 5 0 6 0;
#X connect 5 1 6 1;
#X connect 6 0 14 0;
#X connect 8 0 7 0;
#X connect 10 0 9 0;
#X connect 11 0 8 1;
#X connect 12 0 10 1;
#X connect 13 0 4 1;
#X connect 14 0 0 0;
#X connect 16 0 15 0;
#X connect 17 0 18 0;
#X connect 18 0 15 0;
#X connect 19 0 25 0;
#X connect 20 0 18 0;
#X connect 21 0 18 0;
#X connect 22 0 25 0;
#X connect 23 0 18 0;
#X connect 24 0 25 1;
#X connect 25 0 16 0;
#X connect 26 0 5 0;
#X connect 27 0 2 1;
#X connect 28 0 3 1;
#X connect 29 0 31 1;
#X connect 30 0 29 0;
#X connect 30 1 29 1;
#X connect 31 0 33 0;
#X connect 32 0 34 0;
#X connect 32 0 35 0;
#X connect 33 0 32 0;
#X connect 34 0 35 1;
#X connect 35 0 4 0;
#X connect 36 0 29 0;
#X connect 37 0 29 0;
#X connect 38 0 33 1;
#X connect 39 0 30 0;
#X restore 555 438 pd Pulse2_osc4;
#N canvas 69 51 1047 889 Pulse2_osc5 0;
#X obj 181 259 sig~;
#X obj 75 28 inlet;
#X obj 125 705 *~;
#X obj 276 704 *~;
#X obj 182 589 /~;
#X obj 181 179 t b f;
#X obj 181 205 +;
#X obj 125 784 outlet~;
#X obj 125 757 *~;
#X obj 275 784 outlet~;
#X obj 275 757 *~;
#X obj 143 730 r Pulse2_osc5_uni_gate;
#X obj 293 730 r Pulse2_osc5_uni_gate;
#X obj 200 562 r Pulse2_Unison;
#X obj 181 231 mtof;
#X obj 660 191 switch~;
#X msg 660 162 1;
#X obj 861 142 loadbang;
#X msg 861 170 0;
#X obj 660 75 r \$0_Pulse2_No_Sus_DSP_On;
#X obj 861 114 r \$0_Pulse2_No_Sus_DSP_Off;
#X obj 861 87 r \$0_Pulse2_Hold_Sus_DSP_Off;
#X obj 660 48 r \$0_Pulse2_Hold_Sus_DSP_On;
#X obj 861 59 r Pulse2_No_Sus_On;
#X obj 699 106 r Pulse2_osc5_uni_gate;
#X obj 660 133 spigot;
#X obj 183 86 r Pulse2_osc5_Detune;
#X obj 143 677 r Pulse2_osc5_left;
#X obj 294 678 r Pulse2_osc5_right;
#X obj 227 308 f;
#X obj 245 276 t b f;
#X obj 181 389 phasor~;
#X obj 181 442 -~ 1;
#X obj 181 415 *~;
#X obj 199 468 abs~;
#X obj 181 494 /~;
#X obj 227 223 r \$0_Pulse2_No_Sus_Note_Trigger;
#X obj 227 197 r \$0_Pulse2_Hold_Sus_Note_Trigger;
#X obj 225 415 r Pulse2_Pulse_Value;
#X obj 245 250 r Pulse2_osc5_Phase;
#X connect 0 0 31 0;
#X connect 1 0 6 0;
#X connect 2 0 8 0;
#X connect 3 0 10 0;
#X connect 4 0 2 0;
#X connect 4 0 3 0;
#X connect 5 0 6 0;
#X connect 5 1 6 1;
#X connect 6 0 14 0;
#X connect 8 0 7 0;
#X connect 10 0 9 0;
#X connect 11 0 8 1;
#X connect 12 0 10 1;
#X connect 13 0 4 1;
#X connect 14 0 0 0;
#X connect 16 0 15 0;
#X connect 17 0 18 0;
#X connect 18 0 15 0;
#X connect 19 0 25 0;
#X connect 20 0 18 0;
#X connect 21 0 18 0;
#X connect 22 0 25 0;
#X connect 23 0 18 0;
#X connect 24 0 25 1;
#X connect 25 0 16 0;
#X connect 26 0 5 0;
#X connect 27 0 2 1;
#X connect 28 0 3 1;
#X connect 29 0 31 1;
#X connect 30 0 29 0;
#X connect 30 1 29 1;
#X connect 31 0 33 0;
#X connect 32 0 34 0;
#X connect 32 0 35 0;
#X connect 33 0 32 0;
#X connect 34 0 35 1;
#X connect 35 0 4 0;
#X connect 36 0 29 0;
#X connect 37 0 29 0;
#X connect 38 0 33 1;
#X connect 39 0 30 0;
#X restore 656 438 pd Pulse2_osc5;
#N canvas 387 75 1023 889 Pulse2_osc6 0;
#X obj 182 278 sig~;
#X obj 109 159 inlet;
#X obj 182 252 mtof;
#X obj 125 725 *~;
#X obj 276 724 *~;
#X obj 182 619 /~;
#X obj 182 199 t b f;
#X obj 182 225 +;
#X obj 125 804 outlet~;
#X obj 125 777 *~;
#X obj 275 804 outlet~;
#X obj 275 777 *~;
#X obj 143 750 r Pulse2_osc6_uni_gate;
#X obj 293 750 r Pulse2_osc6_uni_gate;
#X obj 200 592 r Pulse2_Unison;
#X obj 617 218 switch~;
#X msg 617 189 1;
#X obj 818 169 loadbang;
#X msg 818 197 0;
#X obj 617 102 r \$0_Pulse2_No_Sus_DSP_On;
#X obj 818 141 r \$0_Pulse2_No_Sus_DSP_Off;
#X obj 818 114 r \$0_Pulse2_Hold_Sus_DSP_Off;
#X obj 617 75 r \$0_Pulse2_Hold_Sus_DSP_On;
#X obj 818 86 r Pulse2_No_Sus_On;
#X obj 656 133 r Pulse2_osc6_uni_gate;
#X obj 617 160 spigot;
#X obj 177 101 r Pulse2_osc6_Detune;
#X obj 143 697 r Pulse2_osc6_left;
#X obj 294 698 r Pulse2_osc6_right;
#X obj 227 308 f;
#X obj 245 276 t b f;
#X obj 181 389 phasor~;
#X obj 181 442 -~ 1;
#X obj 181 415 *~;
#X obj 199 468 abs~;
#X obj 181 494 /~;
#X obj 227 223 r \$0_Pulse2_No_Sus_Note_Trigger;
#X obj 227 197 r \$0_Pulse2_Hold_Sus_Note_Trigger;
#X obj 225 415 r Pulse2_Pulse_Value;
#X obj 245 250 r Pulse2_osc6_Phase;
#X connect 0 0 31 0;
#X connect 1 0 7 0;
#X connect 2 0 0 0;
#X connect 3 0 9 0;
#X connect 4 0 11 0;
#X connect 5 0 3 0;
#X connect 5 0 4 0;
#X connect 6 0 7 0;
#X connect 6 1 7 1;
#X connect 7 0 2 0;
#X connect 9 0 8 0;
#X connect 11 0 10 0;
#X connect 12 0 9 1;
#X connect 13 0 11 1;
#X connect 14 0 5 1;
#X connect 16 0 15 0;
#X connect 17 0 18 0;
#X connect 18 0 15 0;
#X connect 19 0 25 0;
#X connect 20 0 18 0;
#X connect 21 0 18 0;
#X connect 22 0 25 0;
#X connect 23 0 18 0;
#X connect 24 0 25 1;
#X connect 25 0 16 0;
#X connect 26 0 6 0;
#X connect 27 0 3 1;
#X connect 28 0 4 1;
#X connect 29 0 31 1;
#X connect 30 0 29 0;
#X connect 30 1 29 1;
#X connect 31 0 33 0;
#X connect 32 0 34 0;
#X connect 32 0 35 0;
#X connect 33 0 32 0;
#X connect 34 0 35 1;
#X connect 35 0 5 0;
#X connect 36 0 29 0;
#X connect 37 0 29 0;
#X connect 38 0 33 1;
#X connect 39 0 30 0;
#X restore 757 439 pd Pulse2_osc6;
#N canvas 161 32 1559 889 Pulse2_osc7 0;
#X obj 181 259 sig~;
#X obj 75 28 inlet;
#X obj 181 232 mtof;
#X obj 125 735 *~;
#X obj 276 734 *~;
#X obj 182 609 /~;
#X obj 181 179 t b f;
#X obj 181 205 +;
#X obj 125 814 outlet~;
#X obj 125 787 *~;
#X obj 275 814 outlet~;
#X obj 275 787 *~;
#X obj 143 760 r Pulse2_osc7_uni_gate;
#X obj 293 760 r Pulse2_osc7_uni_gate;
#X obj 200 582 r Pulse2_Unison;
#X obj 1045 186 switch~;
#X msg 1045 157 1;
#X obj 1246 137 loadbang;
#X msg 1246 165 0;
#X obj 1045 70 r \$0_Pulse2_No_Sus_DSP_On;
#X obj 1246 109 r \$0_Pulse2_No_Sus_DSP_Off;
#X obj 1246 82 r \$0_Pulse2_Hold_Sus_DSP_Off;
#X obj 1045 43 r \$0_Pulse2_Hold_Sus_DSP_On;
#X obj 1246 54 r Pulse2_No_Sus_On;
#X obj 1084 101 r Pulse2_osc7_uni_gate;
#X obj 1045 128 spigot;
#X obj 174 92 r Pulse2_osc7_Detune;
#X obj 143 707 r Pulse2_osc7_left;
#X obj 294 708 r Pulse2_osc7_right;
#X obj 227 308 f;
#X obj 245 276 t b f;
#X obj 181 389 phasor~;
#X obj 181 442 -~ 1;
#X obj 181 415 *~;
#X obj 199 468 abs~;
#X obj 181 494 /~;
#X obj 227 223 r \$0_Pulse2_No_Sus_Note_Trigger;
#X obj 227 197 r \$0_Pulse2_Hold_Sus_Note_Trigger;
#X obj 225 415 r Pulse2_Pulse_Value;
#X obj 245 250 r Pulse2_osc7_Phase;
#X connect 0 0 31 0;
#X connect 1 0 7 0;
#X connect 2 0 0 0;
#X connect 3 0 9 0;
#X connect 4 0 11 0;
#X connect 5 0 3 0;
#X connect 5 0 4 0;
#X connect 6 0 7 0;
#X connect 6 1 7 1;
#X connect 7 0 2 0;
#X connect 9 0 8 0;
#X connect 11 0 10 0;
#X connect 12 0 9 1;
#X connect 13 0 11 1;
#X connect 14 0 5 1;
#X connect 16 0 15 0;
#X connect 17 0 18 0;
#X connect 18 0 15 0;
#X connect 19 0 25 0;
#X connect 20 0 18 0;
#X connect 21 0 18 0;
#X connect 22 0 25 0;
#X connect 23 0 18 0;
#X connect 24 0 25 1;
#X connect 25 0 16 0;
#X connect 26 0 6 0;
#X connect 27 0 3 1;
#X connect 28 0 4 1;
#X connect 29 0 31 1;
#X connect 30 0 29 0;
#X connect 30 1 29 1;
#X connect 31 0 33 0;
#X connect 32 0 34 0;
#X connect 32 0 35 0;
#X connect 33 0 32 0;
#X connect 34 0 35 1;
#X connect 35 0 5 0;
#X connect 36 0 29 0;
#X connect 37 0 29 0;
#X connect 38 0 33 1;
#X connect 39 0 30 0;
#X restore 858 439 pd Pulse2_osc7;
#N canvas 1 9 1106 976 Pulse2_osc8 0;
#X obj 182 278 sig~;
#X obj 114 135 inlet;
#X obj 182 249 mtof;
#X obj 125 745 *~;
#X obj 276 744 *~;
#X obj 182 619 /~;
#X obj 182 190 t b f;
#X obj 182 216 +;
#X obj 294 718 r Pulse2_osc8_right;
#X obj 125 824 outlet~;
#X obj 125 797 *~;
#X obj 275 824 outlet~;
#X obj 275 797 *~;
#X obj 143 770 r Pulse2_osc8_uni_gate;
#X obj 293 770 r Pulse2_osc8_uni_gate;
#X obj 200 592 r Pulse2_Unison;
#X obj 742 263 switch~;
#X msg 742 234 1;
#X obj 943 214 loadbang;
#X msg 943 242 0;
#X obj 742 147 r \$0_Pulse2_No_Sus_DSP_On;
#X obj 943 186 r \$0_Pulse2_No_Sus_DSP_Off;
#X obj 943 159 r \$0_Pulse2_Hold_Sus_DSP_Off;
#X obj 742 120 r \$0_Pulse2_Hold_Sus_DSP_On;
#X obj 943 131 r Pulse2_No_Sus_On;
#X obj 781 178 r Pulse2_osc8_uni_gate;
#X obj 742 205 spigot;
#X obj 177 49 r Pulse2_osc8_Detune;
#X obj 143 717 r Pulse2_osc8_left;
#X obj 227 308 f;
#X obj 245 276 t b f;
#X obj 181 389 phasor~;
#X obj 181 442 -~ 1;
#X obj 181 415 *~;
#X obj 199 468 abs~;
#X obj 181 494 /~;
#X obj 227 223 r \$0_Pulse2_No_Sus_Note_Trigger;
#X obj 227 197 r \$0_Pulse2_Hold_Sus_Note_Trigger;
#X obj 225 415 r Pulse2_Pulse_Value;
#X obj 245 250 r Pulse2_osc8_Phase;
#X connect 0 0 31 0;
#X connect 1 0 7 0;
#X connect 2 0 0 0;
#X connect 3 0 10 0;
#X connect 4 0 12 0;
#X connect 5 0 3 0;
#X connect 5 0 4 0;
#X connect 6 0 7 0;
#X connect 6 1 7 1;
#X connect 7 0 2 0;
#X connect 8 0 4 1;
#X connect 10 0 9 0;
#X connect 12 0 11 0;
#X connect 13 0 10 1;
#X connect 14 0 12 1;
#X connect 15 0 5 1;
#X connect 17 0 16 0;
#X connect 18 0 19 0;
#X connect 19 0 16 0;
#X connect 20 0 26 0;
#X connect 21 0 19 0;
#X connect 22 0 19 0;
#X connect 23 0 26 0;
#X connect 24 0 19 0;
#X connect 25 0 26 1;
#X connect 26 0 17 0;
#X connect 27 0 6 0;
#X connect 28 0 3 1;
#X connect 29 0 31 1;
#X connect 30 0 29 0;
#X connect 30 1 29 1;
#X connect 31 0 33 0;
#X connect 32 0 34 0;
#X connect 32 0 35 0;
#X connect 33 0 32 0;
#X connect 34 0 35 1;
#X connect 35 0 5 0;
#X connect 36 0 29 0;
#X connect 37 0 29 0;
#X connect 38 0 33 1;
#X connect 39 0 30 0;
#X restore 959 439 pd Pulse2_osc8;
#X obj 151 700 outlet~;
#X obj 1033 699 outlet~;
#X obj 555 87 r \$0_Pulse2_Note_Offseted;
#X connect 0 0 10 0;
#X connect 0 1 11 0;
#X connect 1 0 10 0;
#X connect 1 1 11 0;
#X connect 2 0 10 0;
#X connect 2 1 11 0;
#X connect 4 0 10 0;
#X connect 4 1 11 0;
#X connect 5 0 10 0;
#X connect 5 1 11 0;
#X connect 6 0 10 0;
#X connect 6 1 11 0;
#X connect 7 0 10 0;
#X connect 7 1 11 0;
#X connect 8 0 10 0;
#X connect 8 1 11 0;
#X connect 9 0 10 0;
#X connect 9 1 11 0;
#X connect 12 0 0 0;
#X connect 12 0 1 0;
#X connect 12 0 2 0;
#X connect 12 0 4 0;
#X connect 12 0 5 0;
#X connect 12 0 6 0;
#X connect 12 0 7 0;
#X connect 12 0 8 0;
#X connect 12 0 9 0;
#X restore 1209 283 pd Pulse2_oscs;
#X obj 1479 398 *~;
#X obj 97 79 inlet;
#X obj 1209 29 r Pulse2_Note_Offset;
#X obj 1228 161 t b f;
#X obj 1209 187 +;
#X obj 1717 48 loadbang;
#X obj 1717 74 \$1;
#X obj 1717 100 s \$0_Pulse2_Note;
#X obj 1228 135 r \$0_Pulse2_Note;
#X text 773 387 The DSP on/off program is in the ADSR enveloppe subpatch
\, since the time in which the DSP is activated depends on the time
of the ADSR;
#X obj 634 154 switch~;
#X msg 634 105 1;
#X obj 835 105 loadbang;
#X msg 835 133 0;
#X obj 634 78 r \$0_Pulse2_No_Sus_DSP_On;
#X obj 835 77 r \$0_Pulse2_No_Sus_DSP_Off;
#X obj 835 50 r \$0_Pulse2_Hold_Sus_DSP_Off;
#X obj 634 51 r \$0_Pulse2_Hold_Sus_DSP_On;
#X obj 835 22 r Pulse2_No_Sus_On;
#X obj 1209 105 spigot;
#X obj 1209 75 f;
#X obj 1375 55 r \$0_Pulse2_No_Sus_Note_Trigger;
#X obj 1375 82 r \$0_Pulse2_Hold_Sus_Note_Trigger;
#X obj 1209 898 outlet~;
#X obj 1479 898 outlet~;
#X obj 1209 474 *~;
#X obj 1479 474 *~;
#X obj 1227 443 r Pulse2_Inv_Pha;
#X obj 1497 443 r Pulse2_Inv_Pha;
#N canvas -9 -9 1920 976 \$0_Pulse2_FX_Filter 0;
#X obj 775 28 r \$0_Pulse2_No_Sus_Note_Trigger;
#X obj 806 4 r \$0_Pulse2_Hold_Sus_Note_Trigger;
#X obj 1140 386 inlet~;
#X obj 1354 890 outlet~;
#X obj 476 384 inlet~;
#X obj 260 890 outlet~;
#X obj 820 187 r Pulse2_FX_Filter_Decay_Time;
#X obj 795 239 list;
#X msg 820 213 0 \$1;
#X obj 777 130 t b b;
#X msg 809 156 1, f 2;
#X obj 821 363 r Pulse2_FX_Filter_Indice_Courbe;
#X obj 802 414 /;
#X obj 821 389 t b f;
#X obj 802 312 loadbang;
#X msg 802 337 1;
#X text 817 440 Shape the line as the filter_enveloppe;
#X obj 795 616 +;
#X obj 795 536 r Pulse2_FX_Filter_Freq;
#X obj 813 588 t b f;
#X obj 795 475 r Pulse2_FX_Filter_Width;
#N canvas -9 -9 1920 976 \$0_Pulse2_FX_Filters_Lowpass_Highpass_Bandpass
0;
#X obj 153 431 vcf~, f 8;
#X obj 206 387 r Pulse2_FX_Filter_Res;
#X obj 929 179 inlet~, f 8;
#X obj 929 431 vcf~, f 8;
#X obj 153 787 outlet~, f 8;
#X obj 929 787 outlet~, f 8;
#X obj 153 179 inlet~, f 8;
#X obj 982 742 *~;
#X obj 929 717 *~;
#X obj 1000 717 r Pulse2_FX_Filter_Lowpass_On;
#X obj 947 692 r Pulse2_FX_Filter_Bandpass_On;
#X obj 206 742 *~;
#X obj 153 717 *~;
#X obj 224 717 r Pulse2_FX_Filter_Lowpass_On;
#X obj 171 692 r Pulse2_FX_Filter_Bandpass_On;
#X obj 1340 285 spigot;
#X obj 1340 366 switch~;
#X msg 1340 310 1;
#X obj 1638 306 loadbang;
#X msg 1621 330 0;
#X obj 1340 77 r \$0_Pulse2_No_Sus_DSP_On;
#X obj 1621 77 r \$0_Pulse2_No_Sus_DSP_Off;
#X obj 1621 107 r \$0_Pulse2_Hold_Sus_DSP_Off;
#X obj 1380 52 r \$0_Pulse2_Hold_Sus_DSP_On;
#X obj 1621 52 r Pulse2_No_Sus_On;
#X obj 1621 275 spigot;
#X obj 1379 206 r Pulse2_FX_Filter_Bypass;
#X obj 1379 231 - 1;
#X obj 1379 256 * -1;
#X obj 1660 179 r Pulse2_FX_Filter_Bypass;
#X obj 1660 204 - 1;
#X obj 1660 229 * -1;
#X obj 892 692 *~;
#X obj 436 742 *~;
#X obj 454 717 r Pulse2_FX_Filter_Highpass_On;
#X obj 910 667 r Pulse2_FX_Filter_Highpass_On;
#X obj 982 387 r Pulse2_FX_Filter_Res;
#X obj 481 276 mtof~;
#N canvas -9 -9 1920 976 Pulse2_Highpass_Patch 0;
#X obj 83 256 vcf~, f 10;
#X obj 65 339 hip~, f 6;
#X obj 65 366 hip~, f 6;
#X obj 65 313 +~;
#X obj 83 282 *~ 2.5;
#X obj 557 256 vcf~, f 10;
#X obj 539 339 hip~, f 6;
#X obj 539 366 hip~, f 6;
#X obj 539 313 +~;
#X obj 557 282 *~ 2.5;
#X obj 313 282 mtof;
#X obj 313 256 - 1;
#X obj 294 187 r Pulse2_FX_Filter_Res;
#X obj 65 107 inlet~;
#X obj 540 99 inlet~;
#X text 116 106 L input;
#X text 602 99 R input;
#X obj 263 87 inlet~;
#X obj 1340 496 switch~;
#X obj 1339 459 r Pulse2_FX_Filter_Highpass_On;
#X obj 65 613 outlet~;
#X obj 616 552 outlet~;
#X obj 313 231 snapshot~;
#X obj 263 113 mtof~;
#X obj 342 59 r Pulse2_FX_Filter_Highpass_On;
#X obj 359 126 metro 200;
#X connect 0 0 4 0;
#X connect 1 0 2 0;
#X connect 2 0 20 0;
#X connect 3 0 1 0;
#X connect 4 0 3 1;
#X connect 5 0 9 0;
#X connect 6 0 7 0;
#X connect 7 0 21 0;
#X connect 8 0 6 0;
#X connect 9 0 8 1;
#X connect 10 0 1 1;
#X connect 10 0 2 1;
#X connect 10 0 7 1;
#X connect 10 0 6 1;
#X connect 11 0 10 0;
#X connect 12 0 0 2;
#X connect 12 0 5 2;
#X connect 13 0 3 0;
#X connect 13 0 0 0;
#X connect 14 0 8 0;
#X connect 14 0 5 0;
#X connect 17 0 22 0;
#X connect 17 0 23 0;
#X connect 19 0 18 0;
#X connect 22 0 11 0;
#X connect 23 0 0 1;
#X connect 23 0 5 1;
#X connect 24 0 25 0;
#X connect 25 0 22 0;
#X restore 469 423 pd Pulse2_Highpass_Patch;
#X obj 500 215 clip~ 15 130;
#X obj 500 179 inlet~;
#X connect 0 0 12 0;
#X connect 0 1 11 0;
#X connect 1 0 0 2;
#X connect 2 0 3 0;
#X connect 2 0 38 2;
#X connect 3 0 8 0;
#X connect 3 1 7 0;
#X connect 6 0 0 0;
#X connect 6 0 38 0;
#X connect 7 0 5 0;
#X connect 8 0 5 0;
#X connect 9 0 7 1;
#X connect 10 0 8 1;
#X connect 11 0 4 0;
#X connect 12 0 4 0;
#X connect 13 0 11 1;
#X connect 14 0 12 1;
#X connect 15 0 17 0;
#X connect 17 0 16 0;
#X connect 18 0 19 0;
#X connect 19 0 16 0;
#X connect 20 0 15 0;
#X connect 21 0 25 0;
#X connect 22 0 25 0;
#X connect 23 0 15 0;
#X connect 24 0 25 0;
#X connect 25 0 19 0;
#X connect 26 0 27 0;
#X connect 27 0 28 0;
#X connect 28 0 15 1;
#X connect 29 0 30 0;
#X connect 30 0 31 0;
#X connect 31 0 25 1;
#X connect 31 0 19 0;
#X connect 32 0 5 0;
#X connect 33 0 4 0;
#X connect 34 0 33 1;
#X connect 35 0 32 1;
#X connect 36 0 3 2;
#X connect 37 0 0 1;
#X connect 37 0 3 1;
#X connect 38 0 33 0;
#X connect 38 1 32 0;
#X connect 39 0 37 0;
#X connect 39 0 38 1;
#X connect 40 0 39 0;
#X restore 607 735 pd \$0_Pulse2_FX_Filters_Lowpass_Highpass_Bandpass
;
#X obj 777 642 +~;
#X obj 777 501 *~;
#X obj 777 440 pow~;
#X obj 777 274 line~;
#X obj 1335 119 r Pulse2_FX_Filter_Bypass;
#X obj 1335 145 * -1;
#X obj 1335 171 + 1;
#X obj 1335 197 switch~;
#X obj 813 562 r \$0_Pulse2_Note_Offseted;
#X connect 0 0 9 0;
#X connect 1 0 9 0;
#X connect 2 0 21 2;
#X connect 4 0 21 0;
#X connect 6 0 8 0;
#X connect 7 0 25 0;
#X connect 8 0 7 1;
#X connect 9 0 7 0;
#X connect 9 1 10 0;
#X connect 10 0 25 0;
#X connect 11 0 13 0;
#X connect 12 0 24 1;
#X connect 13 0 12 0;
#X connect 13 1 12 1;
#X connect 14 0 15 0;
#X connect 15 0 12 0;
#X connect 17 0 22 1;
#X connect 18 0 17 0;
#X connect 19 0 17 0;
#X connect 19 1 17 1;
#X connect 20 0 23 1;
#X connect 21 0 5 0;
#X connect 21 1 3 0;
#X connect 22 0 21 1;
#X connect 23 0 22 0;
#X connect 24 0 23 0;
#X connect 25 0 24 0;
#X connect 26 0 27 0;
#X connect 27 0 28 0;
#X connect 28 0 29 0;
#X connect 30 0 19 0;
#X restore 1282 570 pd \$0_Pulse2_FX_Filter;
#N canvas -9 -9 1920 976 Pulse2_Distortion_Patch 0;
#X obj 80 845 outlet~;
#X obj 427 307 *~;
#X obj 427 637 *~;
#X obj 564 307 *~;
#X obj 599 636 *~;
#X obj 992 846 outlet~;
#X text 133 71 L input;
#X text 1044 80 R input;
#X obj 81 74 inlet~;
#X obj 991 81 inlet~;
#N canvas 33 50 1442 852 Pulse2_Dual_Distortion 0;
#X obj 49 21 inlet~;
#X obj 48 770 outlet~;
#X obj 48 364 lop~;
#X obj 254 366 hip~;
#X obj 254 482 hip~;
#X obj 48 480 lop~;
#X obj 87 461 / 0.9;
#X obj 293 463 * 0.9;
#X obj 48 537 *~;
#X obj 254 538 *~;
#X obj 254 614 clip~ -0.5 0.5;
#X obj 48 614 clip~ -0.5 0.5;
#X obj 708 20 inlet~;
#X obj 708 760 outlet~;
#X obj 708 374 lop~;
#X obj 924 376 hip~;
#X obj 924 502 hip~;
#X obj 708 500 lop~;
#X obj 747 481 / 0.9;
#X obj 974 481 * 0.9;
#X obj 708 557 *~;
#X obj 924 558 *~;
#X obj 924 624 clip~ -0.5 0.5;
#X obj 708 624 clip~ -0.5 0.5;
#X text 950 27 This distortion subpatch split the signal in two parts
\, with a low pass and a highpass filter \, and adds two different
distortion on each part.;
#X obj 1159 198 switch~;
#X obj 1159 172 r Pulse2_Dist3_Switch;
#X obj 747 306 r Pulse2_Dist3_Freq_Split;
#X obj 87 296 r Pulse2_Dist3_Freq_Split;
#X obj 272 507 r Pulse2_Dist3_High_Gain;
#X obj 66 506 r Pulse2_Dist3_Low_Gain;
#X obj 726 526 r Pulse2_Dist3_Low_Gain;
#X obj 942 527 r Pulse2_Dist3_High_Gain;
#X connect 0 0 2 0;
#X connect 0 0 3 0;
#X connect 2 0 5 0;
#X connect 3 0 4 0;
#X connect 4 0 9 0;
#X connect 5 0 8 0;
#X connect 6 0 5 1;
#X connect 7 0 4 1;
#X connect 8 0 11 0;
#X connect 9 0 10 0;
#X connect 10 0 1 0;
#X connect 11 0 1 0;
#X connect 12 0 15 0;
#X connect 12 0 14 0;
#X connect 14 0 17 0;
#X connect 15 0 16 0;
#X connect 16 0 21 0;
#X connect 17 0 20 0;
#X connect 18 0 17 1;
#X connect 19 0 16 1;
#X connect 20 0 23 0;
#X connect 21 0 22 0;
#X connect 22 0 13 0;
#X connect 23 0 13 0;
#X connect 26 0 25 0;
#X connect 27 0 14 1;
#X connect 27 0 15 1;
#X connect 27 0 18 0;
#X connect 27 0 19 0;
#X connect 28 0 2 1;
#X connect 28 0 3 1;
#X connect 28 0 6 0;
#X connect 28 0 7 0;
#X connect 29 0 9 1;
#X connect 30 0 8 1;
#X connect 31 0 20 1;
#X connect 32 0 21 1;
#X coords 0 852 1 851 201 113 0;
#X restore 427 668 pd Pulse2_Dual_Distortion;
#N canvas -9 -9 1920 976 Pulse2_Distortion 0;
#X obj 85 260 *~;
#X obj 85 306 clip~ -0.5 0.5;
#X obj 84 443 lop~;
#X obj 218 369 - 1;
#X obj 218 395 * -250;
#X obj 218 422 + 18000;
#X obj 84 54 inlet~;
#X obj 84 469 outlet~;
#X obj 394 54 inlet~;
#X obj 395 260 *~;
#X obj 395 306 clip~ -0.5 0.5;
#X obj 394 443 lop~;
#X obj 528 395 * -250;
#X obj 528 422 + 18000;
#X obj 394 469 outlet~;
#X obj 528 369 - 1;
#X text 522 255 Amplification of signal;
#X text 520 304 Clipping/overdrive/distortion;
#X text 605 380 Lowpass filter: in order to cut a bit of the high end
created by the distortion The more the signal is amplified \, the more
the high are cut.;
#X obj 233 167 r Pulse2_Dist1_Gain;
#X obj 842 109 switch~;
#X obj 842 83 r Pulse2_Dist1_Switch;
#X connect 0 0 1 0;
#X connect 1 0 2 0;
#X connect 2 0 7 0;
#X connect 3 0 4 0;
#X connect 4 0 5 0;
#X connect 5 0 2 1;
#X connect 6 0 0 0;
#X connect 8 0 9 0;
#X connect 9 0 10 0;
#X connect 10 0 11 0;
#X connect 11 0 14 0;
#X connect 12 0 13 0;
#X connect 13 0 11 1;
#X connect 15 0 12 0;
#X connect 19 0 0 1;
#X connect 19 0 3 0;
#X connect 19 0 15 0;
#X connect 19 0 9 1;
#X connect 21 0 20 0;
#X coords 0 976 1 975 70 112 0;
#X restore 427 338 pd Pulse2_Distortion;
#X obj 476 257 r Pulse2_Dist1_Switch;
#X obj 1279 127 r Pulse2_Dist_Bypass;
#X obj 1279 153 * -1;
#X obj 1279 179 + 1;
#X obj 1279 205 switch~;
#X obj 427 467 *~;
#X obj 564 467 *~;
#N canvas -9 -9 1920 976 Pulse2_Sqrt_Distortion 0;
#X obj 84 54 inlet~;
#X obj 84 469 outlet~;
#X obj 394 54 inlet~;
#X obj 394 469 outlet~;
#X obj 842 109 switch~;
#X obj 842 83 r Pulse2_Dist2_Switch;
#X obj 84 177 clip~ -1 0;
#X obj 164 177 clip~ 0 1;
#X obj 84 203 *~ -1;
#X obj 84 289 pow~;
#X obj 84 315 *~ -1;
#X obj 164 289 pow~;
#X obj 124 242 r Pulse2_Dist2_Gain;
#X obj 394 177 clip~ -1 0;
#X obj 474 177 clip~ 0 1;
#X obj 394 203 *~ -1;
#X obj 394 289 pow~;
#X obj 394 315 *~ -1;
#X obj 474 289 pow~;
#X obj 434 242 r Pulse2_Dist2_Gain;
#X connect 0 0 6 0;
#X connect 0 0 7 0;
#X connect 2 0 13 0;
#X connect 2 0 14 0;
#X connect 5 0 4 0;
#X connect 6 0 8 0;
#X connect 7 0 11 0;
#X connect 8 0 9 0;
#X connect 9 0 10 0;
#X connect 10 0 1 0;
#X connect 11 0 1 0;
#X connect 12 0 9 1;
#X connect 12 0 11 1;
#X connect 13 0 15 0;
#X connect 14 0 18 0;
#X connect 15 0 16 0;
#X connect 16 0 17 0;
#X connect 17 0 3 0;
#X connect 18 0 3 0;
#X connect 19 0 16 1;
#X connect 19 0 18 1;
#X coords 0 976 1 975 70 112 0;
#X restore 427 498 pd Pulse2_Sqrt_Distortion;
#X obj 476 417 r Pulse2_Dist2_Switch;
#X obj 511 572 r Pulse2_Dist3_Switch;
#X connect 1 0 11 0;
#X connect 2 0 10 0;
#X connect 3 0 11 1;
#X connect 4 0 10 1;
#X connect 8 0 1 0;
#X connect 8 0 2 0;
#X connect 8 0 17 0;
#X connect 9 0 3 0;
#X connect 9 0 4 0;
#X connect 9 0 18 0;
#X connect 10 0 0 0;
#X connect 10 1 5 0;
#X connect 11 0 0 0;
#X connect 11 1 5 0;
#X connect 12 0 1 1;
#X connect 12 0 3 1;
#X connect 13 0 14 0;
#X connect 14 0 15 0;
#X connect 15 0 16 0;
#X connect 17 0 19 0;
#X connect 18 0 19 1;
#X connect 19 0 0 0;
#X connect 19 1 5 0;
#X connect 20 0 17 1;
#X connect 20 0 18 1;
#X connect 21 0 2 1;
#X connect 21 0 4 1;
#X restore 1271 736 pd Pulse2_Distortion_Patch;
#X obj 1209 736 *~;
#X obj 1479 736 *~;
#X obj 1227 709 r Pulse2_Dist_Bypass;
#X obj 1497 709 r Pulse2_Dist_Bypass;
#X obj 1479 570 *~;
#X obj 1497 540 r Pulse2_FX_Filter_Bypass;
#X obj 1209 570 *~;
#X obj 1227 540 r Pulse2_FX_Filter_Bypass;
#X obj 1209 637 +~;
#X obj 1479 637 +~;
#X obj 1209 861 *~;
#X obj 1479 861 *~;
#N canvas -9 -9 1920 976 \$0_Pulse2_Volume_ADSR 0;
#X obj 69 309 vline~;
#X obj 69 361 *~;
#X obj 285 147 +;
#X obj 295 122 t b f;
#X obj 295 199 t b f;
#X obj 285 224 +;
#X obj 69 257 pack f f f f f f;
#X msg 69 283 0 0 \, 1 \$2 \, \$3 \$4 \$2 \, 0 \$5 \$6;
#X obj 295 173 r Pulse2_Sustain;
#X obj 156 198 r Pulse2_Release;
#X obj 90 122 r Pulse2_Attack;
#X obj 134 172 r Pulse2_Decay;
#X obj 112 147 r Pulse2_Decay_Volume;
#X obj 285 72 r Pulse2_Attack;
#X obj 295 97 r Pulse2_Decay;
#X obj 285 302 +;
#X obj 295 250 r Pulse2_Release;
#X obj 253 384 delay;
#X obj 295 276 t b f;
#X obj 253 328 r \$0_Pulse2_No_Sus_Note_Trigger;
#X obj 253 410 s \$0_Pulse2_No_Sus_DSP_Off;
#X obj 69 96 r \$0_Pulse2_No_Sus_Note_Trigger;
#X obj 87 335 r Pulse2_No_Sus_On;
#X obj 642 193 pack f f;
#X msg 642 219 0 \$2;
#X obj 527 240 vline~;
#X obj 527 377 *~;
#X obj 527 166 pack f f f f;
#X msg 527 193 1 \$2 \, \$3 \$4 \$2;
#X obj 608 116 r Pulse2_Decay;
#X obj 581 91 r Pulse2_Decay_Volume;
#X obj 554 66 r Pulse2_Attack;
#X obj 695 168 r Pulse2_Release;
#X obj 692 356 delay;
#X obj 692 382 s \$0_Pulse2_Hold_Sus_DSP_Off;
#X obj 527 40 r \$0_Pulse2_Hold_Sus_Note_Trigger;
#X obj 642 142 r \$0_Pulse2_Hold_Sus_Note_Release_Trigger;
#X msg 692 300 stop;
#X obj 692 274 r \$0_Pulse2_Hold_Sus_Note_Trigger;
#X obj 692 247 r \$0_Pulse2_Hold_Sus_Note_Release_Trigger;
#X obj 733 300 r Pulse2_Release;
#X obj 545 351 r Pulse2_Hold_Sus_On;
#X obj 313 532 +~;
#X obj 313 584 outlet~;
#X obj 733 326 + 40;
#X obj 285 358 + 40;
#X connect 0 0 1 0;
#X connect 1 0 42 0;
#X connect 2 0 5 0;
#X connect 3 0 2 0;
#X connect 3 1 2 1;
#X connect 4 0 5 0;
#X connect 4 1 5 1;
#X connect 5 0 6 5;
#X connect 5 0 15 0;
#X connect 6 0 7 0;
#X connect 7 0 0 0;
#X connect 8 0 4 0;
#X connect 9 0 6 4;
#X connect 10 0 6 1;
#X connect 11 0 6 3;
#X connect 12 0 6 2;
#X connect 13 0 2 0;
#X connect 14 0 3 0;
#X connect 15 0 45 0;
#X connect 16 0 18 0;
#X connect 17 0 20 0;
#X connect 18 0 15 0;
#X connect 18 1 15 1;
#X connect 19 0 17 0;
#X connect 21 0 6 0;
#X connect 22 0 1 1;
#X connect 23 0 24 0;
#X connect 24 0 25 0;
#X connect 25 0 26 0;
#X connect 26 0 42 1;
#X connect 27 0 28 0;
#X connect 28 0 25 0;
#X connect 29 0 27 3;
#X connect 30 0 27 2;
#X connect 31 0 27 1;
#X connect 32 0 23 1;
#X connect 33 0 34 0;
#X connect 35 0 27 0;
#X connect 36 0 23 0;
#X connect 37 0 33 0;
#X connect 38 0 37 0;
#X connect 39 0 33 0;
#X connect 40 0 44 0;
#X connect 41 0 26 1;
#X connect 42 0 43 0;
#X connect 44 0 33 1;
#X connect 45 0 17 1;
#X restore 1310 809 pd \$0_Pulse2_Volume_ADSR;
#X obj 231 873 / 128;
#X obj 231 900 s \$0_Pulse2_Note_Vol;
#X obj 1227 345 r \$0_Pulse2_Note_Vol;
#X obj 1497 345 r \$0_Pulse2_Note_Vol;
#X obj 107 702 r Pulse2_Polyphonic_Mode_Reset;
#X obj 1209 213 s \$0_Pulse2_Note_Offseted;
#X connect 0 0 47 0;
#X connect 1 0 2 1;
#X connect 2 0 4 0;
#X connect 3 0 2 0;
#X connect 3 1 1 0;
#X connect 4 0 66 0;
#X connect 4 1 6 0;
#X connect 4 2 7 0;
#X connect 5 0 3 0;
#X connect 8 0 5 1;
#X connect 9 0 13 0;
#X connect 9 0 20 0;
#X connect 10 0 9 1;
#X connect 11 0 12 1;
#X connect 12 0 14 0;
#X connect 13 0 12 0;
#X connect 13 1 11 0;
#X connect 14 0 66 0;
#X connect 14 1 15 0;
#X connect 14 2 16 0;
#X connect 17 0 19 0;
#X connect 18 0 17 1;
#X connect 20 0 17 0;
#X connect 20 1 18 0;
#X connect 21 0 0 0;
#X connect 21 1 22 0;
#X connect 22 0 48 0;
#X connect 23 0 9 0;
#X connect 23 0 5 0;
#X connect 24 0 42 0;
#X connect 25 0 26 0;
#X connect 25 1 26 1;
#X connect 26 0 71 0;
#X connect 27 0 28 0;
#X connect 28 0 29 0;
#X connect 30 0 25 0;
#X connect 33 0 32 0;
#X connect 33 0 41 1;
#X connect 34 0 35 0;
#X connect 35 0 32 0;
#X connect 35 0 41 1;
#X connect 36 0 33 0;
#X connect 37 0 35 0;
#X connect 38 0 35 0;
#X connect 39 0 33 0;
#X connect 40 0 35 0;
#X connect 41 0 26 0;
#X connect 42 0 41 0;
#X connect 43 0 42 0;
#X connect 44 0 42 0;
#X connect 47 0 59 0;
#X connect 47 0 51 0;
#X connect 48 0 57 0;
#X connect 48 0 51 1;
#X connect 49 0 47 1;
#X connect 50 0 48 1;
#X connect 51 0 61 1;
#X connect 51 1 62 1;
#X connect 52 0 63 0;
#X connect 52 1 64 0;
#X connect 53 0 63 0;
#X connect 54 0 64 0;
#X connect 55 0 53 1;
#X connect 56 0 54 1;
#X connect 57 0 62 0;
#X connect 58 0 57 1;
#X connect 59 0 61 0;
#X connect 60 0 59 1;
#X connect 61 0 53 0;
#X connect 61 0 52 0;
#X connect 62 0 54 0;
#X connect 62 0 52 1;
#X connect 63 0 45 0;
#X connect 64 0 46 0;
#X connect 65 0 63 1;
#X connect 65 0 64 1;
#X connect 66 0 67 0;
#X connect 68 0 0 1;
#X connect 69 0 22 1;
#X connect 70 0 19 0;
