#N canvas -9 -9 1920 976 12;
#X obj 1409 528 *~;
#X obj 1409 898 outlet~;
#X obj 509 815 spigot;
#X obj 509 763 t f f;
#X obj 509 736 spigot;
#X obj 548 710 r Saw1_No_Sus_On;
#X obj 147 702 spigot;
#X obj 186 676 r Saw1_Hold_Sus_On;
#X obj 44 812 spigot;
#X obj 44 760 t f f;
#X obj 147 782 spigot;
#X obj 186 756 == 0;
#X obj 147 730 t b f;
#N canvas 398 88 1387 875 Saw1_oscs 0;
#N canvas 2 17 1391 889 Saw1_osc0 0;
#X obj 182 167 sig~;
#X obj 125 685 *~;
#X obj 276 711 outlet~;
#X obj 276 684 *~;
#X obj 125 712 outlet~;
#X obj 294 658 r Saw1_osc0_right;
#X obj 143 657 r Saw1_osc0_left;
#X obj 95 28 inlet;
#X obj 182 66 t b f;
#X obj 182 100 +;
#X obj 182 126 mtof;
#X obj 200 583 r Saw1_Unison;
#X obj 182 609 /~;
#X obj 232 208 f;
#X obj 182 37 r Saw1_osc0_Detune;
#X obj 250 150 r Saw1_osc0_Phase;
#X obj 250 176 t b f;
#X obj 182 262 phasor~;
#X obj 332 381 *~;
#X obj 331 328 *~ -1;
#X obj 182 437 +~;
#X obj 332 408 clip~ 0 1;
#X obj 331 301 -~ 1;
#X obj 182 381 -~;
#X obj 200 354 r Saw1_Mod_Value2;
#X obj 182 328 *~;
#X obj 200 301 r Saw1_Mod_Value1;
#X obj 182 408 clip~ -1 0;
#X obj 182 463 -~ 0.5;
#X obj 350 354 r Saw1_Mod_Value3;
#X obj 182 489 *~ 2;
#X obj 232 97 r Saw1_Legato_Hold_Sus_Note_Trigger;
#X obj 232 123 r Saw1_Legato_No_Sus_Note_Trigger;
#X connect 0 0 17 0;
#X connect 1 0 4 0;
#X connect 3 0 2 0;
#X connect 5 0 3 1;
#X connect 6 0 1 1;
#X connect 7 0 9 0;
#X connect 8 0 9 0;
#X connect 8 1 9 1;
#X connect 9 0 10 0;
#X connect 10 0 0 0;
#X connect 11 0 12 1;
#X connect 12 0 1 0;
#X connect 12 0 3 0;
#X connect 13 0 17 1;
#X connect 14 0 8 0;
#X connect 15 0 16 0;
#X connect 16 0 13 0;
#X connect 16 1 13 1;
#X connect 17 0 22 0;
#X connect 17 0 25 0;
#X connect 18 0 21 0;
#X connect 19 0 18 0;
#X connect 20 0 28 0;
#X connect 21 0 20 1;
#X connect 22 0 19 0;
#X connect 23 0 27 0;
#X connect 24 0 23 1;
#X connect 25 0 23 0;
#X connect 26 0 25 1;
#X connect 27 0 20 0;
#X connect 28 0 30 0;
#X connect 29 0 18 1;
#X connect 30 0 12 0;
#X connect 31 0 13 0;
#X connect 32 0 13 0;
#X restore 151 438 pd Saw1_osc0;
#N canvas 7 0 1387 976 Saw1_osc1 0;
#X obj 181 299 sig~;
#X obj 75 28 inlet;
#X obj 125 835 *~;
#X obj 276 834 *~;
#X obj 200 713 r Saw1_Unison;
#X obj 182 739 /~;
#X obj 143 807 r Saw1_osc1_left;
#X obj 294 808 r Saw1_osc1_right;
#X obj 181 179 t b f;
#X obj 181 205 +;
#X obj 181 231 mtof;
#X obj 125 914 outlet~;
#X obj 125 887 *~;
#X obj 143 860 r Saw1_osc1_uni_gate;
#X obj 275 914 outlet~;
#X obj 275 887 *~;
#X obj 293 860 r Saw1_osc1_uni_gate;
#X obj 664 214 switch~;
#X msg 664 185 1;
#X obj 895 165 loadbang;
#X msg 895 193 0;
#X obj 895 82 r Saw1_No_Sus_On;
#X obj 703 129 r Saw1_osc1_uni_gate;
#X obj 232 320 f;
#X obj 178 145 r Saw1_osc1_Detune;
#X obj 264 245 r Saw1_osc1_Phase;
#X obj 664 156 spigot;
#X obj 264 271 t b f;
#X obj 181 389 phasor~;
#X obj 331 508 *~;
#X obj 330 455 *~ -1;
#X obj 181 564 +~;
#X obj 331 535 clip~ 0 1;
#X obj 330 428 -~ 1;
#X obj 181 508 -~;
#X obj 199 481 r Saw1_Mod_Value2;
#X obj 181 455 *~;
#X obj 199 428 r Saw1_Mod_Value1;
#X obj 181 535 clip~ -1 0;
#X obj 181 590 -~ 0.5;
#X obj 349 481 r Saw1_Mod_Value3;
#X obj 181 616 *~ 2;
#X obj 242 184 r Saw1_Legato_Hold_Sus_Note_Trigger;
#X obj 242 210 r Saw1_Legato_No_Sus_Note_Trigger;
#X obj 664 71 r Saw1_Legato_Hold_Sus_DSP_On;
#X obj 664 98 r Saw1_Legato_No_Sus_DSP_On;
#X obj 895 110 r Saw1_Legato_Hold_Sus_DSP_Off;
#X obj 895 137 r Saw1_Legato_No_Sus_DSP_Off;
#X connect 0 0 28 0;
#X connect 1 0 9 0;
#X connect 2 0 12 0;
#X connect 3 0 15 0;
#X connect 4 0 5 1;
#X connect 5 0 2 0;
#X connect 5 0 3 0;
#X connect 6 0 2 1;
#X connect 7 0 3 1;
#X connect 8 0 9 0;
#X connect 8 1 9 1;
#X connect 9 0 10 0;
#X connect 10 0 0 0;
#X connect 12 0 11 0;
#X connect 13 0 12 1;
#X connect 15 0 14 0;
#X connect 16 0 15 1;
#X connect 18 0 17 0;
#X connect 19 0 20 0;
#X connect 20 0 17 0;
#X connect 21 0 20 0;
#X connect 22 0 26 1;
#X connect 23 0 28 1;
#X connect 24 0 8 0;
#X connect 25 0 27 0;
#X connect 26 0 18 0;
#X connect 27 0 23 0;
#X connect 27 1 23 1;
#X connect 28 0 33 0;
#X connect 28 0 36 0;
#X connect 29 0 32 0;
#X connect 30 0 29 0;
#X connect 31 0 39 0;
#X connect 32 0 31 1;
#X connect 33 0 30 0;
#X connect 34 0 38 0;
#X connect 35 0 34 1;
#X connect 36 0 34 0;
#X connect 37 0 36 1;
#X connect 38 0 31 0;
#X connect 39 0 41 0;
#X connect 40 0 29 1;
#X connect 41 0 5 0;
#X connect 42 0 23 0;
#X connect 43 0 23 0;
#X connect 44 0 26 0;
#X connect 45 0 26 0;
#X connect 46 0 20 0;
#X connect 47 0 20 0;
#X restore 252 438 pd Saw1_osc1;
#N canvas -9 -9 1920 976 Saw1_osc2 0;
#X obj 182 290 sig~;
#X obj 84 119 inlet;
#X obj 182 263 mtof;
#X obj 125 775 *~;
#X obj 276 774 *~;
#X obj 200 652 r Saw1_Unison;
#X obj 182 679 /~;
#X obj 143 747 r Saw1_osc2_left;
#X obj 294 748 r Saw1_osc2_right;
#X obj 182 210 t b f;
#X obj 182 236 +;
#X obj 125 854 outlet~;
#X obj 125 827 *~;
#X obj 275 854 outlet~;
#X obj 275 827 *~;
#X obj 143 800 r Saw1_osc2_uni_gate;
#X obj 293 800 r Saw1_osc2_uni_gate;
#X obj 232 274 f;
#X obj 181 137 r Saw1_osc2_Detune;
#X obj 265 244 r Saw1_osc2_Phase;
#X obj 182 364 phasor~;
#X obj 332 483 *~;
#X obj 331 430 *~ -1;
#X obj 182 539 +~;
#X obj 332 510 clip~ 0 1;
#X obj 331 403 -~ 1;
#X obj 182 483 -~;
#X obj 200 456 r Saw1_Mod_Value2;
#X obj 182 430 *~;
#X obj 200 403 r Saw1_Mod_Value1;
#X obj 182 510 clip~ -1 0;
#X obj 182 565 -~ 0.5;
#X obj 350 456 r Saw1_Mod_Value3;
#X obj 182 591 *~ 2;
#X obj 664 214 switch~;
#X msg 664 185 1;
#X obj 895 165 loadbang;
#X msg 895 193 0;
#X obj 895 82 r Saw1_No_Sus_On;
#X obj 664 156 spigot;
#X obj 242 184 r Saw1_Legato_Hold_Sus_Note_Trigger;
#X obj 242 210 r Saw1_Legato_No_Sus_Note_Trigger;
#X obj 664 71 r Saw1_Legato_Hold_Sus_DSP_On;
#X obj 664 98 r Saw1_Legato_No_Sus_DSP_On;
#X obj 895 110 r Saw1_Legato_Hold_Sus_DSP_Off;
#X obj 895 137 r Saw1_Legato_No_Sus_DSP_Off;
#X obj 703 129 r Saw1_osc2_uni_gate;
#X connect 0 0 20 0;
#X connect 1 0 10 0;
#X connect 2 0 0 0;
#X connect 3 0 12 0;
#X connect 4 0 14 0;
#X connect 5 0 6 1;
#X connect 6 0 3 0;
#X connect 6 0 4 0;
#X connect 7 0 3 1;
#X connect 8 0 4 1;
#X connect 9 0 10 0;
#X connect 9 1 10 1;
#X connect 10 0 2 0;
#X connect 12 0 11 0;
#X connect 14 0 13 0;
#X connect 15 0 12 1;
#X connect 16 0 14 1;
#X connect 17 0 20 1;
#X connect 18 0 9 0;
#X connect 19 0 17 1;
#X connect 20 0 25 0;
#X connect 20 0 28 0;
#X connect 21 0 24 0;
#X connect 22 0 21 0;
#X connect 23 0 31 0;
#X connect 24 0 23 1;
#X connect 25 0 22 0;
#X connect 26 0 30 0;
#X connect 27 0 26 1;
#X connect 28 0 26 0;
#X connect 29 0 28 1;
#X connect 30 0 23 0;
#X connect 31 0 33 0;
#X connect 32 0 21 1;
#X connect 33 0 6 0;
#X connect 35 0 34 0;
#X connect 36 0 37 0;
#X connect 37 0 34 0;
#X connect 38 0 37 0;
#X connect 39 0 35 0;
#X connect 40 0 17 0;
#X connect 41 0 17 0;
#X connect 42 0 39 0;
#X connect 43 0 39 0;
#X connect 44 0 37 0;
#X connect 45 0 37 0;
#X connect 46 0 39 1;
#X restore 353 438 pd Saw1_osc2;
#X text 557 58 note;
#N canvas -9 -9 1920 976 Saw1_osc3 0;
#X obj 181 259 sig~;
#X obj 75 28 inlet;
#X obj 125 765 *~;
#X obj 276 764 *~;
#X obj 182 669 /~;
#X obj 143 737 r Saw1_osc3_left;
#X obj 294 738 r Saw1_osc3_right;
#X obj 181 179 t b f;
#X obj 181 205 +;
#X obj 125 844 outlet~;
#X obj 125 817 *~;
#X obj 275 844 outlet~;
#X obj 275 817 *~;
#X obj 143 790 r Saw1_osc3_uni_gate;
#X obj 293 790 r Saw1_osc3_uni_gate;
#X obj 181 231 mtof;
#X obj 200 642 r Saw1_Unison;
#X obj 232 274 f;
#X obj 183 145 r Saw1_osc3_Detune;
#X obj 265 243 r Saw1_osc3_Phase;
#X obj 182 364 phasor~;
#X obj 332 483 *~;
#X obj 331 430 *~ -1;
#X obj 182 539 +~;
#X obj 332 510 clip~ 0 1;
#X obj 331 403 -~ 1;
#X obj 182 483 -~;
#X obj 200 456 r Saw1_Mod_Value2;
#X obj 182 430 *~;
#X obj 200 403 r Saw1_Mod_Value1;
#X obj 182 510 clip~ -1 0;
#X obj 182 565 -~ 0.5;
#X obj 350 456 r Saw1_Mod_Value3;
#X obj 182 591 *~ 2;
#X obj 664 214 switch~;
#X msg 664 185 1;
#X obj 895 165 loadbang;
#X msg 895 193 0;
#X obj 895 82 r Saw1_No_Sus_On;
#X obj 664 156 spigot;
#X obj 242 184 r Saw1_Legato_Hold_Sus_Note_Trigger;
#X obj 242 210 r Saw1_Legato_No_Sus_Note_Trigger;
#X obj 664 71 r Saw1_Legato_Hold_Sus_DSP_On;
#X obj 664 98 r Saw1_Legato_No_Sus_DSP_On;
#X obj 895 110 r Saw1_Legato_Hold_Sus_DSP_Off;
#X obj 895 137 r Saw1_Legato_No_Sus_DSP_Off;
#X obj 703 129 r Saw1_osc3_uni_gate;
#X connect 0 0 20 0;
#X connect 1 0 8 0;
#X connect 2 0 10 0;
#X connect 3 0 12 0;
#X connect 4 0 2 0;
#X connect 4 0 3 0;
#X connect 5 0 2 1;
#X connect 6 0 3 1;
#X connect 7 0 8 0;
#X connect 7 1 8 1;
#X connect 8 0 15 0;
#X connect 10 0 9 0;
#X connect 12 0 11 0;
#X connect 13 0 10 1;
#X connect 14 0 12 1;
#X connect 15 0 0 0;
#X connect 16 0 4 1;
#X connect 17 0 20 1;
#X connect 18 0 7 0;
#X connect 19 0 17 1;
#X connect 20 0 25 0;
#X connect 20 0 28 0;
#X connect 21 0 24 0;
#X connect 22 0 21 0;
#X connect 23 0 31 0;
#X connect 24 0 23 1;
#X connect 25 0 22 0;
#X connect 26 0 30 0;
#X connect 27 0 26 1;
#X connect 28 0 26 0;
#X connect 29 0 28 1;
#X connect 30 0 23 0;
#X connect 31 0 33 0;
#X connect 32 0 21 1;
#X connect 33 0 4 0;
#X connect 35 0 34 0;
#X connect 36 0 37 0;
#X connect 37 0 34 0;
#X connect 38 0 37 0;
#X connect 39 0 35 0;
#X connect 40 0 17 0;
#X connect 41 0 17 0;
#X connect 42 0 39 0;
#X connect 43 0 39 0;
#X connect 44 0 37 0;
#X connect 45 0 37 0;
#X connect 46 0 39 1;
#X restore 454 438 pd Saw1_osc3;
#N canvas -9 -9 1920 976 Saw1_osc4 0;
#X obj 181 278 sig~;
#X obj 82 48 inlet;
#X obj 125 785 *~;
#X obj 276 784 *~;
#X obj 182 679 /~;
#X obj 181 179 t b f;
#X obj 181 205 +;
#X obj 125 864 outlet~;
#X obj 125 837 *~;
#X obj 275 864 outlet~;
#X obj 275 837 *~;
#X obj 143 810 r Saw1_osc4_uni_gate;
#X obj 293 810 r Saw1_osc4_uni_gate;
#X obj 200 652 r Saw1_Unison;
#X obj 181 231 mtof;
#X obj 232 274 f;
#X obj 181 134 r Saw1_osc4_Detune;
#X obj 256 244 r Saw1_osc4_Phase;
#X obj 143 757 r Saw1_osc4_left;
#X obj 294 758 r Saw1_osc4_right;
#X obj 182 364 phasor~;
#X obj 332 483 *~;
#X obj 331 430 *~ -1;
#X obj 182 539 +~;
#X obj 332 510 clip~ 0 1;
#X obj 331 403 -~ 1;
#X obj 182 483 -~;
#X obj 200 456 r Saw1_Mod_Value2;
#X obj 182 430 *~;
#X obj 200 403 r Saw1_Mod_Value1;
#X obj 182 510 clip~ -1 0;
#X obj 182 565 -~ 0.5;
#X obj 350 456 r Saw1_Mod_Value3;
#X obj 182 591 *~ 2;
#X obj 664 214 switch~;
#X msg 664 185 1;
#X obj 895 165 loadbang;
#X msg 895 193 0;
#X obj 895 82 r Saw1_No_Sus_On;
#X obj 664 156 spigot;
#X obj 242 184 r Saw1_Legato_Hold_Sus_Note_Trigger;
#X obj 242 210 r Saw1_Legato_No_Sus_Note_Trigger;
#X obj 664 71 r Saw1_Legato_Hold_Sus_DSP_On;
#X obj 664 98 r Saw1_Legato_No_Sus_DSP_On;
#X obj 895 110 r Saw1_Legato_Hold_Sus_DSP_Off;
#X obj 895 137 r Saw1_Legato_No_Sus_DSP_Off;
#X obj 703 129 r Saw1_osc4_uni_gate;
#X connect 0 0 20 0;
#X connect 1 0 6 0;
#X connect 2 0 8 0;
#X connect 3 0 10 0;
#X connect 4 0 2 0;
#X connect 4 0 3 0;
#X connect 5 0 6 0;
#X connect 5 1 6 1;
#X connect 6 0 14 0;
#X connect 8 0 7 0;
#X connect 10 0 9 0;
#X connect 11 0 8 1;
#X connect 12 0 10 1;
#X connect 13 0 4 1;
#X connect 14 0 0 0;
#X connect 15 0 20 1;
#X connect 16 0 5 0;
#X connect 17 0 15 1;
#X connect 18 0 2 1;
#X connect 19 0 3 1;
#X connect 20 0 25 0;
#X connect 20 0 28 0;
#X connect 21 0 24 0;
#X connect 22 0 21 0;
#X connect 23 0 31 0;
#X connect 24 0 23 1;
#X connect 25 0 22 0;
#X connect 26 0 30 0;
#X connect 27 0 26 1;
#X connect 28 0 26 0;
#X connect 29 0 28 1;
#X connect 30 0 23 0;
#X connect 31 0 33 0;
#X connect 32 0 21 1;
#X connect 33 0 4 0;
#X connect 35 0 34 0;
#X connect 36 0 37 0;
#X connect 37 0 34 0;
#X connect 38 0 37 0;
#X connect 39 0 35 0;
#X connect 40 0 15 0;
#X connect 41 0 15 0;
#X connect 42 0 39 0;
#X connect 43 0 39 0;
#X connect 44 0 37 0;
#X connect 45 0 37 0;
#X connect 46 0 39 1;
#X restore 555 438 pd Saw1_osc4;
#N canvas -9 -9 1920 976 Saw1_osc5 0;
#X obj 181 259 sig~;
#X obj 75 28 inlet;
#X obj 125 755 *~;
#X obj 276 754 *~;
#X obj 182 649 /~;
#X obj 181 179 t b f;
#X obj 181 205 +;
#X obj 125 834 outlet~;
#X obj 125 807 *~;
#X obj 275 834 outlet~;
#X obj 275 807 *~;
#X obj 143 780 r Saw1_osc5_uni_gate;
#X obj 293 780 r Saw1_osc5_uni_gate;
#X obj 200 622 r Saw1_Unison;
#X obj 181 231 mtof;
#X obj 232 274 f;
#X obj 183 86 r Saw1_osc5_Detune;
#X obj 250 244 r Saw1_osc5_Phase;
#X obj 143 727 r Saw1_osc5_left;
#X obj 294 728 r Saw1_osc5_right;
#X obj 182 364 phasor~;
#X obj 332 483 *~;
#X obj 331 430 *~ -1;
#X obj 182 539 +~;
#X obj 332 510 clip~ 0 1;
#X obj 331 403 -~ 1;
#X obj 182 483 -~;
#X obj 200 456 r Saw1_Mod_Value2;
#X obj 182 430 *~;
#X obj 200 403 r Saw1_Mod_Value1;
#X obj 182 510 clip~ -1 0;
#X obj 182 565 -~ 0.5;
#X obj 350 456 r Saw1_Mod_Value3;
#X obj 182 591 *~ 2;
#X obj 664 214 switch~;
#X msg 664 185 1;
#X obj 895 165 loadbang;
#X msg 895 193 0;
#X obj 895 82 r Saw1_No_Sus_On;
#X obj 664 156 spigot;
#X obj 242 184 r Saw1_Legato_Hold_Sus_Note_Trigger;
#X obj 242 210 r Saw1_Legato_No_Sus_Note_Trigger;
#X obj 664 71 r Saw1_Legato_Hold_Sus_DSP_On;
#X obj 664 98 r Saw1_Legato_No_Sus_DSP_On;
#X obj 895 110 r Saw1_Legato_Hold_Sus_DSP_Off;
#X obj 895 137 r Saw1_Legato_No_Sus_DSP_Off;
#X obj 703 129 r Saw1_osc5_uni_gate;
#X connect 0 0 20 0;
#X connect 1 0 6 0;
#X connect 2 0 8 0;
#X connect 3 0 10 0;
#X connect 4 0 2 0;
#X connect 4 0 3 0;
#X connect 5 0 6 0;
#X connect 5 1 6 1;
#X connect 6 0 14 0;
#X connect 8 0 7 0;
#X connect 10 0 9 0;
#X connect 11 0 8 1;
#X connect 12 0 10 1;
#X connect 13 0 4 1;
#X connect 14 0 0 0;
#X connect 15 0 20 1;
#X connect 16 0 5 0;
#X connect 17 0 15 1;
#X connect 18 0 2 1;
#X connect 19 0 3 1;
#X connect 20 0 25 0;
#X connect 20 0 28 0;
#X connect 21 0 24 0;
#X connect 22 0 21 0;
#X connect 23 0 31 0;
#X connect 24 0 23 1;
#X connect 25 0 22 0;
#X connect 26 0 30 0;
#X connect 27 0 26 1;
#X connect 28 0 26 0;
#X connect 29 0 28 1;
#X connect 30 0 23 0;
#X connect 31 0 33 0;
#X connect 32 0 21 1;
#X connect 33 0 4 0;
#X connect 35 0 34 0;
#X connect 36 0 37 0;
#X connect 37 0 34 0;
#X connect 38 0 37 0;
#X connect 39 0 35 0;
#X connect 40 0 15 0;
#X connect 41 0 15 0;
#X connect 42 0 39 0;
#X connect 43 0 39 0;
#X connect 44 0 37 0;
#X connect 45 0 37 0;
#X connect 46 0 39 1;
#X restore 656 438 pd Saw1_osc5;
#N canvas -9 -9 1920 976 Saw1_osc6 0;
#X obj 182 306 +~;
#X obj 182 278 sig~;
#X obj 109 159 inlet;
#X obj 182 252 mtof;
#X obj 125 755 *~;
#X obj 276 754 *~;
#X obj 182 689 /~;
#X obj 182 199 t b f;
#X obj 182 225 +;
#X obj 125 834 outlet~;
#X obj 125 807 *~;
#X obj 275 834 outlet~;
#X obj 275 807 *~;
#X obj 143 780 r Saw1_osc6_uni_gate;
#X obj 293 780 r Saw1_osc6_uni_gate;
#X obj 200 662 r Saw1_Unison;
#X obj 232 274 f;
#X obj 177 101 r Saw1_osc6_Detune;
#X obj 254 243 r Saw1_osc6_Phase;
#X obj 143 727 r Saw1_osc6_left;
#X obj 294 728 r Saw1_osc6_right;
#X obj 182 364 phasor~;
#X obj 332 483 *~;
#X obj 331 430 *~ -1;
#X obj 182 539 +~;
#X obj 332 510 clip~ 0 1;
#X obj 331 403 -~ 1;
#X obj 182 483 -~;
#X obj 200 456 r Saw1_Mod_Value2;
#X obj 182 430 *~;
#X obj 200 403 r Saw1_Mod_Value1;
#X obj 182 510 clip~ -1 0;
#X obj 182 565 -~ 0.5;
#X obj 350 456 r Saw1_Mod_Value3;
#X obj 182 591 *~ 2;
#X obj 664 214 switch~;
#X msg 664 185 1;
#X obj 895 165 loadbang;
#X msg 895 193 0;
#X obj 895 82 r Saw1_No_Sus_On;
#X obj 664 156 spigot;
#X obj 242 184 r Saw1_Legato_Hold_Sus_Note_Trigger;
#X obj 242 210 r Saw1_Legato_No_Sus_Note_Trigger;
#X obj 664 71 r Saw1_Legato_Hold_Sus_DSP_On;
#X obj 664 98 r Saw1_Legato_No_Sus_DSP_On;
#X obj 895 110 r Saw1_Legato_Hold_Sus_DSP_Off;
#X obj 895 137 r Saw1_Legato_No_Sus_DSP_Off;
#X obj 703 129 r Saw1_osc6_uni_gate;
#X connect 0 0 21 0;
#X connect 1 0 0 0;
#X connect 2 0 8 0;
#X connect 3 0 1 0;
#X connect 4 0 10 0;
#X connect 5 0 12 0;
#X connect 6 0 4 0;
#X connect 6 0 5 0;
#X connect 7 0 8 0;
#X connect 7 1 8 1;
#X connect 8 0 3 0;
#X connect 10 0 9 0;
#X connect 12 0 11 0;
#X connect 13 0 10 1;
#X connect 14 0 12 1;
#X connect 15 0 6 1;
#X connect 16 0 21 1;
#X connect 17 0 7 0;
#X connect 18 0 16 1;
#X connect 19 0 4 1;
#X connect 20 0 5 1;
#X connect 21 0 26 0;
#X connect 21 0 29 0;
#X connect 22 0 25 0;
#X connect 23 0 22 0;
#X connect 24 0 32 0;
#X connect 25 0 24 1;
#X connect 26 0 23 0;
#X connect 27 0 31 0;
#X connect 28 0 27 1;
#X connect 29 0 27 0;
#X connect 30 0 29 1;
#X connect 31 0 24 0;
#X connect 32 0 34 0;
#X connect 33 0 22 1;
#X connect 34 0 6 0;
#X connect 36 0 35 0;
#X connect 37 0 38 0;
#X connect 38 0 35 0;
#X connect 39 0 38 0;
#X connect 40 0 36 0;
#X connect 41 0 16 0;
#X connect 42 0 16 0;
#X connect 43 0 40 0;
#X connect 44 0 40 0;
#X connect 45 0 38 0;
#X connect 46 0 38 0;
#X connect 47 0 40 1;
#X restore 757 439 pd Saw1_osc6;
#N canvas 161 32 1559 889 Saw1_osc7 0;
#X obj 181 259 sig~;
#X obj 75 28 inlet;
#X obj 181 232 mtof;
#X obj 125 715 *~;
#X obj 276 714 *~;
#X obj 182 619 /~;
#X obj 181 179 t b f;
#X obj 181 205 +;
#X obj 125 794 outlet~;
#X obj 125 767 *~;
#X obj 275 794 outlet~;
#X obj 275 767 *~;
#X obj 143 740 r Saw1_osc7_uni_gate;
#X obj 293 740 r Saw1_osc7_uni_gate;
#X obj 200 592 r Saw1_Unison;
#X obj 232 274 f;
#X obj 174 92 r Saw1_osc7_Detune;
#X obj 252 238 r Saw1_osc7_Phase;
#X obj 143 687 r Saw1_osc7_left;
#X obj 294 688 r Saw1_osc7_right;
#X obj 182 334 phasor~;
#X obj 332 453 *~;
#X obj 331 400 *~ -1;
#X obj 182 509 +~;
#X obj 332 480 clip~ 0 1;
#X obj 331 373 -~ 1;
#X obj 182 453 -~;
#X obj 200 426 r Saw1_Mod_Value2;
#X obj 182 400 *~;
#X obj 200 373 r Saw1_Mod_Value1;
#X obj 182 480 clip~ -1 0;
#X obj 182 535 -~ 0.5;
#X obj 350 426 r Saw1_Mod_Value3;
#X obj 182 561 *~ 2;
#X obj 664 214 switch~;
#X msg 664 185 1;
#X obj 895 165 loadbang;
#X msg 895 193 0;
#X obj 895 82 r Saw1_No_Sus_On;
#X obj 664 156 spigot;
#X obj 242 184 r Saw1_Legato_Hold_Sus_Note_Trigger;
#X obj 242 210 r Saw1_Legato_No_Sus_Note_Trigger;
#X obj 664 71 r Saw1_Legato_Hold_Sus_DSP_On;
#X obj 664 98 r Saw1_Legato_No_Sus_DSP_On;
#X obj 895 110 r Saw1_Legato_Hold_Sus_DSP_Off;
#X obj 895 137 r Saw1_Legato_No_Sus_DSP_Off;
#X obj 703 129 r Saw1_osc7_uni_gate;
#X connect 0 0 20 0;
#X connect 1 0 7 0;
#X connect 2 0 0 0;
#X connect 3 0 9 0;
#X connect 4 0 11 0;
#X connect 5 0 3 0;
#X connect 5 0 4 0;
#X connect 6 0 7 0;
#X connect 6 1 7 1;
#X connect 7 0 2 0;
#X connect 9 0 8 0;
#X connect 11 0 10 0;
#X connect 12 0 9 1;
#X connect 13 0 11 1;
#X connect 14 0 5 1;
#X connect 15 0 20 1;
#X connect 16 0 6 0;
#X connect 17 0 15 1;
#X connect 18 0 3 1;
#X connect 19 0 4 1;
#X connect 20 0 25 0;
#X connect 20 0 28 0;
#X connect 21 0 24 0;
#X connect 22 0 21 0;
#X connect 23 0 31 0;
#X connect 24 0 23 1;
#X connect 25 0 22 0;
#X connect 26 0 30 0;
#X connect 27 0 26 1;
#X connect 28 0 26 0;
#X connect 29 0 28 1;
#X connect 30 0 23 0;
#X connect 31 0 33 0;
#X connect 32 0 21 1;
#X connect 33 0 5 0;
#X connect 35 0 34 0;
#X connect 36 0 37 0;
#X connect 37 0 34 0;
#X connect 38 0 37 0;
#X connect 39 0 35 0;
#X connect 40 0 15 0;
#X connect 41 0 15 0;
#X connect 42 0 39 0;
#X connect 43 0 39 0;
#X connect 44 0 37 0;
#X connect 45 0 37 0;
#X connect 46 0 39 1;
#X restore 858 439 pd Saw1_osc7;
#N canvas 1 9 1106 976 Saw1_osc8 0;
#X obj 182 278 sig~;
#X obj 114 135 inlet;
#X obj 182 249 mtof;
#X obj 125 795 *~;
#X obj 276 794 *~;
#X obj 182 709 /~;
#X obj 182 190 t b f;
#X obj 182 216 +;
#X obj 294 768 r Saw1_osc8_right;
#X obj 125 874 outlet~;
#X obj 125 847 *~;
#X obj 275 874 outlet~;
#X obj 275 847 *~;
#X obj 143 820 r Saw1_osc8_uni_gate;
#X obj 293 820 r Saw1_osc8_uni_gate;
#X obj 200 682 r Saw1_Unison;
#X obj 232 274 f;
#X obj 177 49 r Saw1_osc8_Detune;
#X obj 251 243 r Saw1_osc8_Phase;
#X obj 143 767 r Saw1_osc8_left;
#X obj 182 364 phasor~;
#X obj 332 483 *~;
#X obj 331 430 *~ -1;
#X obj 182 539 +~;
#X obj 332 510 clip~ 0 1;
#X obj 331 403 -~ 1;
#X obj 182 483 -~;
#X obj 200 456 r Saw1_Mod_Value2;
#X obj 182 430 *~;
#X obj 200 403 r Saw1_Mod_Value1;
#X obj 182 510 clip~ -1 0;
#X obj 182 565 -~ 0.5;
#X obj 350 456 r Saw1_Mod_Value3;
#X obj 182 591 *~ 2;
#X obj 664 214 switch~;
#X msg 664 185 1;
#X obj 895 165 loadbang;
#X msg 895 193 0;
#X obj 895 82 r Saw1_No_Sus_On;
#X obj 664 156 spigot;
#X obj 242 184 r Saw1_Legato_Hold_Sus_Note_Trigger;
#X obj 242 210 r Saw1_Legato_No_Sus_Note_Trigger;
#X obj 664 71 r Saw1_Legato_Hold_Sus_DSP_On;
#X obj 664 98 r Saw1_Legato_No_Sus_DSP_On;
#X obj 895 110 r Saw1_Legato_Hold_Sus_DSP_Off;
#X obj 895 137 r Saw1_Legato_No_Sus_DSP_Off;
#X obj 703 129 r Saw1_osc8_uni_gate;
#X connect 0 0 20 0;
#X connect 1 0 7 0;
#X connect 2 0 0 0;
#X connect 3 0 10 0;
#X connect 4 0 12 0;
#X connect 5 0 3 0;
#X connect 5 0 4 0;
#X connect 6 0 7 0;
#X connect 6 1 7 1;
#X connect 7 0 2 0;
#X connect 8 0 4 1;
#X connect 10 0 9 0;
#X connect 12 0 11 0;
#X connect 13 0 10 1;
#X connect 14 0 12 1;
#X connect 15 0 5 1;
#X connect 16 0 20 1;
#X connect 17 0 6 0;
#X connect 18 0 16 1;
#X connect 19 0 3 1;
#X connect 20 0 25 0;
#X connect 20 0 28 0;
#X connect 21 0 24 0;
#X connect 22 0 21 0;
#X connect 23 0 31 0;
#X connect 24 0 23 1;
#X connect 25 0 22 0;
#X connect 26 0 30 0;
#X connect 27 0 26 1;
#X connect 28 0 26 0;
#X connect 29 0 28 1;
#X connect 30 0 23 0;
#X connect 31 0 33 0;
#X connect 32 0 21 1;
#X connect 33 0 5 0;
#X connect 35 0 34 0;
#X connect 36 0 37 0;
#X connect 37 0 34 0;
#X connect 38 0 37 0;
#X connect 39 0 35 0;
#X connect 40 0 16 0;
#X connect 41 0 16 0;
#X connect 42 0 39 0;
#X connect 43 0 39 0;
#X connect 44 0 37 0;
#X connect 45 0 37 0;
#X connect 46 0 39 1;
#X restore 959 439 pd Saw1_osc8;
#X obj 151 700 outlet~;
#X obj 1033 699 outlet~;
#X obj 555 87 r Saw1_Legato_Note;
#X connect 0 0 10 0;
#X connect 0 1 11 0;
#X connect 1 0 10 0;
#X connect 1 1 11 0;
#X connect 2 0 10 0;
#X connect 2 1 11 0;
#X connect 4 0 10 0;
#X connect 4 1 11 0;
#X connect 5 0 10 0;
#X connect 5 1 11 0;
#X connect 6 0 10 0;
#X connect 6 1 11 0;
#X connect 7 0 10 0;
#X connect 7 1 11 0;
#X connect 8 0 10 0;
#X connect 8 1 11 0;
#X connect 9 0 10 0;
#X connect 9 1 11 0;
#X connect 12 0 0 0;
#X connect 12 0 1 0;
#X connect 12 0 2 0;
#X connect 12 0 4 0;
#X connect 12 0 5 0;
#X connect 12 0 6 0;
#X connect 12 0 7 0;
#X connect 12 0 8 0;
#X connect 12 0 9 0;
#X restore 1409 302 pd Saw1_oscs;
#X obj 1679 528 *~;
#X obj 1679 898 outlet~;
#X text 950 623 The DSP on/off program is in the ADSR enveloppe subpatch
\, since the time in which the DSP is activated depends on the time
of the ADSR;
#X obj 894 154 switch~;
#X msg 894 105 1;
#X obj 1125 105 loadbang;
#X msg 1125 133 0;
#X obj 1125 22 r Saw1_No_Sus_On;
#X obj 1409 584 *~;
#X obj 1679 584 *~;
#X obj 1427 553 r Saw1_Inv_Pha;
#X obj 1697 553 r Saw1_Inv_Pha;
#N canvas -9 -9 1920 976 Saw1_Distortion_Patch 0;
#X obj 80 845 outlet~;
#X obj 427 307 *~;
#X obj 427 637 *~;
#X obj 613 307 *~;
#X obj 599 636 *~;
#X obj 992 846 outlet~;
#X text 133 71 L input;
#X text 1044 80 R input;
#X obj 81 74 inlet~;
#X obj 991 81 inlet~;
#X obj 476 257 r Saw1_Dist1_Switch;
#X obj 1279 127 r Saw1_Dist_Bypass;
#X obj 1279 153 * -1;
#X obj 1279 179 + 1;
#X obj 1279 205 switch~;
#X obj 427 467 *~;
#X obj 648 467 *~;
#X obj 476 417 r Saw1_Dist2_Switch;
#X obj 511 572 r Saw1_Dist3_Switch;
#N canvas -9 -9 1920 976 Saw1_Legato_Sqrt_Distortion 0;
#X obj 84 54 inlet~;
#X obj 84 469 outlet~;
#X obj 394 54 inlet~;
#X obj 394 469 outlet~;
#X obj 842 109 switch~;
#X obj 842 83 r Saw1_Dist2_Switch;
#X obj 84 177 clip~ -1 0;
#X obj 164 177 clip~ 0 1;
#X obj 84 203 *~ -1;
#X obj 84 289 pow~;
#X obj 84 315 *~ -1;
#X obj 164 289 pow~;
#X obj 124 242 r Saw1_Dist2_Gain;
#X obj 394 177 clip~ -1 0;
#X obj 474 177 clip~ 0 1;
#X obj 394 203 *~ -1;
#X obj 394 289 pow~;
#X obj 394 315 *~ -1;
#X obj 474 289 pow~;
#X obj 434 242 r Saw1_Dist2_Gain;
#X connect 0 0 6 0;
#X connect 0 0 7 0;
#X connect 2 0 13 0;
#X connect 2 0 14 0;
#X connect 5 0 4 0;
#X connect 6 0 8 0;
#X connect 7 0 11 0;
#X connect 8 0 9 0;
#X connect 9 0 10 0;
#X connect 10 0 1 0;
#X connect 11 0 1 0;
#X connect 12 0 9 1;
#X connect 12 0 11 1;
#X connect 13 0 15 0;
#X connect 14 0 18 0;
#X connect 15 0 16 0;
#X connect 16 0 17 0;
#X connect 17 0 3 0;
#X connect 18 0 3 0;
#X connect 19 0 16 1;
#X connect 19 0 18 1;
#X coords 0 976 1 975 70 112 0;
#X restore 427 498 pd Saw1_Legato_Sqrt_Distortion;
#N canvas 33 50 1442 852 Saw1_Legato_Dual_Distortion 0;
#X obj 49 21 inlet~;
#X obj 48 770 outlet~;
#X obj 48 364 lop~;
#X obj 254 366 hip~;
#X obj 254 482 hip~;
#X obj 48 480 lop~;
#X obj 87 461 / 0.9;
#X obj 293 463 * 0.9;
#X obj 48 537 *~;
#X obj 254 538 *~;
#X obj 254 614 clip~ -0.5 0.5;
#X obj 48 614 clip~ -0.5 0.5;
#X obj 708 20 inlet~;
#X obj 708 760 outlet~;
#X obj 708 374 lop~;
#X obj 924 376 hip~;
#X obj 924 502 hip~;
#X obj 708 500 lop~;
#X obj 747 481 / 0.9;
#X obj 974 481 * 0.9;
#X obj 708 557 *~;
#X obj 924 558 *~;
#X obj 924 624 clip~ -0.5 0.5;
#X obj 708 624 clip~ -0.5 0.5;
#X text 950 27 This distortion subpatch split the signal in two parts
\, with a low pass and a highpass filter \, and adds two different
distortion on each part.;
#X obj 1159 198 switch~;
#X obj 1159 172 r Saw1_Dist3_Switch;
#X obj 747 306 r Saw1_Dist3_Freq_Split;
#X obj 87 296 r Saw1_Dist3_Freq_Split;
#X obj 272 507 r Saw1_Dist3_High_Gain;
#X obj 66 506 r Saw1_Dist3_Low_Gain;
#X obj 726 526 r Saw1_Dist3_Low_Gain;
#X obj 942 527 r Saw1_Dist3_High_Gain;
#X connect 0 0 2 0;
#X connect 0 0 3 0;
#X connect 2 0 5 0;
#X connect 3 0 4 0;
#X connect 4 0 9 0;
#X connect 5 0 8 0;
#X connect 6 0 5 1;
#X connect 7 0 4 1;
#X connect 8 0 11 0;
#X connect 9 0 10 0;
#X connect 10 0 1 0;
#X connect 11 0 1 0;
#X connect 12 0 15 0;
#X connect 12 0 14 0;
#X connect 14 0 17 0;
#X connect 15 0 16 0;
#X connect 16 0 21 0;
#X connect 17 0 20 0;
#X connect 18 0 17 1;
#X connect 19 0 16 1;
#X connect 20 0 23 0;
#X connect 21 0 22 0;
#X connect 22 0 13 0;
#X connect 23 0 13 0;
#X connect 26 0 25 0;
#X connect 27 0 14 1;
#X connect 27 0 15 1;
#X connect 27 0 18 0;
#X connect 27 0 19 0;
#X connect 28 0 2 1;
#X connect 28 0 3 1;
#X connect 28 0 6 0;
#X connect 28 0 7 0;
#X connect 29 0 9 1;
#X connect 30 0 8 1;
#X connect 31 0 20 1;
#X connect 32 0 21 1;
#X coords 0 852 1 851 201 113 0;
#X restore 427 668 pd Saw1_Legato_Dual_Distortion;
#N canvas -9 -9 1920 976 Saw1_Legato_Distortion 0;
#X obj 85 260 *~;
#X obj 85 306 clip~ -0.5 0.5;
#X obj 84 443 lop~;
#X obj 218 369 - 1;
#X obj 218 395 * -250;
#X obj 218 422 + 18000;
#X obj 84 54 inlet~;
#X obj 84 469 outlet~;
#X obj 394 54 inlet~;
#X obj 395 260 *~;
#X obj 395 306 clip~ -0.5 0.5;
#X obj 394 443 lop~;
#X obj 528 395 * -250;
#X obj 528 422 + 18000;
#X obj 394 469 outlet~;
#X obj 528 369 - 1;
#X text 522 255 Amplification of signal;
#X text 520 304 Clipping/overdrive/distortion;
#X text 605 380 Lowpass filter: in order to cut a bit of the high end
created by the distortion The more the signal is amplified \, the more
the high are cut.;
#X obj 233 167 r Saw1_Dist1_Gain;
#X obj 842 109 switch~;
#X obj 842 83 r Saw1_Dist1_Switch;
#X connect 0 0 1 0;
#X connect 1 0 2 0;
#X connect 2 0 7 0;
#X connect 3 0 4 0;
#X connect 4 0 5 0;
#X connect 5 0 2 1;
#X connect 6 0 0 0;
#X connect 8 0 9 0;
#X connect 9 0 10 0;
#X connect 10 0 11 0;
#X connect 11 0 14 0;
#X connect 12 0 13 0;
#X connect 13 0 11 1;
#X connect 15 0 12 0;
#X connect 19 0 0 1;
#X connect 19 0 3 0;
#X connect 19 0 15 0;
#X connect 19 0 9 1;
#X connect 21 0 20 0;
#X coords 0 976 1 975 70 112 0;
#X restore 427 338 pd Saw1_Legato_Distortion;
#X connect 1 0 21 0;
#X connect 2 0 20 0;
#X connect 3 0 21 1;
#X connect 4 0 20 1;
#X connect 8 0 1 0;
#X connect 8 0 2 0;
#X connect 8 0 15 0;
#X connect 9 0 3 0;
#X connect 9 0 4 0;
#X connect 9 0 16 0;
#X connect 10 0 1 1;
#X connect 10 0 3 1;
#X connect 11 0 12 0;
#X connect 12 0 13 0;
#X connect 13 0 14 0;
#X connect 15 0 19 0;
#X connect 16 0 19 1;
#X connect 17 0 15 1;
#X connect 17 0 16 1;
#X connect 18 0 2 1;
#X connect 18 0 4 1;
#X connect 19 0 0 0;
#X connect 19 1 5 0;
#X connect 20 0 0 0;
#X connect 20 1 5 0;
#X connect 21 0 0 0;
#X connect 21 1 5 0;
#X restore 1471 766 pd Saw1_Distortion_Patch;
#X obj 1409 766 *~;
#X obj 1679 766 *~;
#X obj 1427 739 r Saw1_Dist_Bypass;
#X obj 1697 739 r Saw1_Dist_Bypass;
#X obj 1679 650 *~;
#X obj 1697 620 r Saw1_FX_Filter_Bypass;
#X obj 1409 650 *~;
#X obj 1427 620 r Saw1_FX_Filter_Bypass;
#X obj 1409 687 +~;
#X obj 1679 687 +~;
#X obj 1409 861 *~;
#X obj 1679 861 *~;
#X obj 509 897 s Saw1_Legato_No_Sus_Note_Trigger;
#X obj 541 869 s Saw1_Legato_No_Sus_DSP_On;
#X obj 44 906 s Saw1_Legato_Hold_Sus_Note_Trigger;
#X obj 76 879 s Saw1_Legato_Hold_Sus_DSP_On;
#X obj 147 839 s Saw1_Legato_Hold_Sus_Note_Release_Trigger;
#X obj 894 78 r Saw1_Legato_No_Sus_DSP_On;
#X obj 894 51 r Saw1_Legato_Hold_Sus_DSP_On;
#X obj 1125 77 r Saw1_Legato_No_Sus_DSP_Off;
#X obj 1125 50 r Saw1_Legato_Hold_Sus_DSP_Off;
#N canvas -9 -9 1920 976 Saw1_Legato_Volume_ADSR 0;
#X obj 69 309 vline~;
#X obj 69 361 *~;
#X obj 325 147 +;
#X obj 335 122 t b f;
#X obj 335 199 t b f;
#X obj 325 224 +;
#X obj 69 257 pack f f f f f f;
#X msg 69 283 0 0 \, 1 \$2 \, \$3 \$4 \$2 \, 0 \$5 \$6;
#X obj 335 173 r Saw1_Sustain;
#X obj 156 198 r Saw1_Release;
#X obj 90 122 r Saw1_Attack;
#X obj 134 172 r Saw1_Decay;
#X obj 112 147 r Saw1_Decay_Volume;
#X obj 325 72 r Saw1_Attack;
#X obj 335 97 r Saw1_Decay;
#X obj 325 302 +;
#X obj 335 250 r Saw1_Release;
#X obj 293 384 delay;
#X obj 335 276 t b f;
#X obj 87 335 r Saw1_No_Sus_On;
#X obj 732 193 pack f f;
#X msg 732 219 0 \$2;
#X obj 617 240 vline~;
#X obj 617 377 *~;
#X obj 617 166 pack f f f f;
#X msg 617 193 1 \$2 \, \$3 \$4 \$2;
#X obj 698 116 r Saw1_Decay;
#X obj 671 91 r Saw1_Decay_Volume;
#X obj 644 66 r Saw1_Attack;
#X obj 785 168 r Saw1_Release;
#X obj 792 356 delay;
#X msg 792 300 stop;
#X obj 833 300 r Saw1_Release;
#X obj 635 351 r Saw1_Hold_Sus_On;
#X obj 313 532 +~;
#X obj 313 584 outlet~;
#X obj 833 326 + 40;
#X obj 325 358 + 40;
#X obj 293 328 r Saw1_Legato_No_Sus_Note_Trigger;
#X obj 293 410 s Saw1_Legato_No_Sus_DSP_Off;
#X obj 69 96 r Saw1_Legato_No_Sus_Note_Trigger;
#X obj 792 274 r Saw1_Legato_Hold_Sus_Note_Trigger;
#X obj 792 247 r Saw1_Legato_Hold_Sus_Note_Release_Trigger;
#X obj 792 382 s Saw1_Legato_Hold_Sus_DSP_Off;
#X obj 732 142 r Saw1_Legato_Hold_Sus_Note_Release_Trigger;
#X obj 617 40 r Saw1_Legato_Hold_Sus_Note_Trigger;
#X connect 0 0 1 0;
#X connect 1 0 34 0;
#X connect 2 0 5 0;
#X connect 3 0 2 0;
#X connect 3 1 2 1;
#X connect 4 0 5 0;
#X connect 4 1 5 1;
#X connect 5 0 6 5;
#X connect 5 0 15 0;
#X connect 6 0 7 0;
#X connect 7 0 0 0;
#X connect 8 0 4 0;
#X connect 9 0 6 4;
#X connect 10 0 6 1;
#X connect 11 0 6 3;
#X connect 12 0 6 2;
#X connect 13 0 2 0;
#X connect 14 0 3 0;
#X connect 15 0 37 0;
#X connect 16 0 18 0;
#X connect 17 0 39 0;
#X connect 18 0 15 0;
#X connect 18 1 15 1;
#X connect 19 0 1 1;
#X connect 20 0 21 0;
#X connect 21 0 22 0;
#X connect 22 0 23 0;
#X connect 23 0 34 1;
#X connect 24 0 25 0;
#X connect 25 0 22 0;
#X connect 26 0 24 3;
#X connect 27 0 24 2;
#X connect 28 0 24 1;
#X connect 29 0 20 1;
#X connect 30 0 43 0;
#X connect 31 0 30 0;
#X connect 32 0 36 0;
#X connect 33 0 23 1;
#X connect 34 0 35 0;
#X connect 36 0 30 1;
#X connect 37 0 17 1;
#X connect 38 0 17 0;
#X connect 40 0 6 0;
#X connect 41 0 31 0;
#X connect 42 0 30 0;
#X connect 44 0 20 0;
#X connect 45 0 24 0;
#X restore 1510 809 pd Saw1_Legato_Volume_ADSR;
#N canvas -9 -9 1920 976 Saw1_Legato_FX_Filter 0;
#X obj 1140 386 inlet~;
#X obj 1354 890 outlet~;
#X obj 476 384 inlet~;
#X obj 260 890 outlet~;
#X obj 820 187 r Saw1_FX_Filter_Decay_Time;
#X obj 795 239 list;
#X msg 820 213 0 \$1;
#X obj 777 130 t b b;
#X msg 809 156 1, f 2;
#X obj 821 363 r Saw1_FX_Filter_Indice_Courbe;
#X obj 802 414 /;
#X obj 821 389 t b f;
#X obj 802 312 loadbang;
#X msg 802 337 1;
#X text 817 440 Shape the line as the filter_enveloppe;
#X obj 795 616 +;
#X obj 795 536 r Saw1_FX_Filter_Freq;
#X obj 813 588 t b f;
#X obj 795 475 r Saw1_FX_Filter_Width;
#X obj 777 642 +~;
#X obj 777 501 *~;
#X obj 777 440 pow~;
#X obj 777 274 line~;
#X obj 1335 119 r Saw1_FX_Filter_Bypass;
#X obj 1335 145 * -1;
#X obj 1335 171 + 1;
#X obj 1335 197 switch~;
#N canvas -9 -9 1920 976 Saw1_Legato_FX_Filters_Lowpass_Highpass_Bandpass
0;
#X obj 153 431 vcf~, f 8;
#X obj 206 387 r Saw1_FX_Filter_Res;
#X obj 929 179 inlet~, f 8;
#X obj 929 431 vcf~, f 8;
#X obj 153 787 outlet~, f 8;
#X obj 929 787 outlet~, f 8;
#X obj 153 179 inlet~, f 8;
#X obj 982 742 *~;
#X obj 929 717 *~;
#X obj 1000 717 r Saw1_FX_Filter_Lowpass_On;
#X obj 947 692 r Saw1_FX_Filter_Bandpass_On;
#X obj 206 742 *~;
#X obj 153 717 *~;
#X obj 224 717 r Saw1_FX_Filter_Lowpass_On;
#X obj 171 692 r Saw1_FX_Filter_Bandpass_On;
#X obj 1340 285 spigot;
#X obj 1340 366 switch~;
#X msg 1340 310 1;
#X obj 1638 306 loadbang;
#X msg 1621 330 0;
#X obj 1621 52 r Saw1_No_Sus_On;
#X obj 1621 275 spigot;
#X obj 1379 206 r Saw1_FX_Filter_Bypass;
#X obj 1379 231 - 1;
#X obj 1379 256 * -1;
#X obj 1660 179 r Saw1_FX_Filter_Bypass;
#X obj 1660 204 - 1;
#X obj 1660 229 * -1;
#X obj 892 692 *~;
#X obj 436 742 *~;
#X obj 454 717 r Saw1_FX_Filter_Highpass_On;
#X obj 910 667 r Saw1_FX_Filter_Highpass_On;
#X obj 982 387 r Saw1_FX_Filter_Res;
#X obj 481 276 mtof~;
#X obj 500 215 clip~ 15 130;
#X obj 500 179 inlet~;
#X obj 1380 52 r Saw1_Legato_Hold_Sus_DSP_On;
#X obj 1340 77 r Saw1_Legato_No_Sus_DSP_On;
#X obj 1621 77 r Saw1_Legato_No_Sus_DSP_Off;
#X obj 1621 107 r Saw1_Legato_Hold_Sus_DSP_Off;
#N canvas -9 -9 1920 976 Saw1_Legato_Highpass_Patch 0;
#X obj 83 256 vcf~, f 10;
#X obj 65 339 hip~, f 6;
#X obj 65 366 hip~, f 6;
#X obj 65 313 +~;
#X obj 83 282 *~ 2.5;
#X obj 557 256 vcf~, f 10;
#X obj 539 339 hip~, f 6;
#X obj 539 366 hip~, f 6;
#X obj 539 313 +~;
#X obj 557 282 *~ 2.5;
#X obj 313 282 mtof;
#X obj 313 256 - 1;
#X obj 294 187 r Saw1_FX_Filter_Res;
#X obj 65 107 inlet~;
#X obj 540 99 inlet~;
#X text 116 106 L input;
#X text 602 99 R input;
#X obj 263 87 inlet~;
#X obj 1340 496 switch~;
#X obj 1339 459 r Saw1_FX_Filter_Highpass_On;
#X obj 65 613 outlet~;
#X obj 616 552 outlet~;
#X obj 313 231 snapshot~;
#X obj 263 113 mtof~;
#X obj 342 59 r Saw1_FX_Filter_Highpass_On;
#X obj 359 126 metro 200;
#X connect 0 0 4 0;
#X connect 1 0 2 0;
#X connect 2 0 20 0;
#X connect 3 0 1 0;
#X connect 4 0 3 1;
#X connect 5 0 9 0;
#X connect 6 0 7 0;
#X connect 7 0 21 0;
#X connect 8 0 6 0;
#X connect 9 0 8 1;
#X connect 10 0 1 1;
#X connect 10 0 2 1;
#X connect 10 0 7 1;
#X connect 10 0 6 1;
#X connect 11 0 10 0;
#X connect 12 0 0 2;
#X connect 12 0 5 2;
#X connect 13 0 3 0;
#X connect 13 0 0 0;
#X connect 14 0 8 0;
#X connect 14 0 5 0;
#X connect 17 0 22 0;
#X connect 17 0 23 0;
#X connect 19 0 18 0;
#X connect 22 0 11 0;
#X connect 23 0 0 1;
#X connect 23 0 5 1;
#X connect 24 0 25 0;
#X connect 25 0 22 0;
#X restore 469 423 pd Saw1_Legato_Highpass_Patch;
#X connect 0 0 12 0;
#X connect 0 1 11 0;
#X connect 1 0 0 2;
#X connect 2 0 3 0;
#X connect 2 0 40 2;
#X connect 3 0 8 0;
#X connect 3 1 7 0;
#X connect 6 0 0 0;
#X connect 6 0 40 0;
#X connect 7 0 5 0;
#X connect 8 0 5 0;
#X connect 9 0 7 1;
#X connect 10 0 8 1;
#X connect 11 0 4 0;
#X connect 12 0 4 0;
#X connect 13 0 11 1;
#X connect 14 0 12 1;
#X connect 15 0 17 0;
#X connect 17 0 16 0;
#X connect 18 0 19 0;
#X connect 19 0 16 0;
#X connect 20 0 21 0;
#X connect 21 0 19 0;
#X connect 22 0 23 0;
#X connect 23 0 24 0;
#X connect 24 0 15 1;
#X connect 25 0 26 0;
#X connect 26 0 27 0;
#X connect 27 0 21 1;
#X connect 27 0 19 0;
#X connect 28 0 5 0;
#X connect 29 0 4 0;
#X connect 30 0 29 1;
#X connect 31 0 28 1;
#X connect 32 0 3 2;
#X connect 33 0 0 1;
#X connect 33 0 3 1;
#X connect 34 0 33 0;
#X connect 34 0 40 1;
#X connect 35 0 34 0;
#X connect 36 0 15 0;
#X connect 37 0 15 0;
#X connect 38 0 21 0;
#X connect 39 0 21 0;
#X connect 40 0 29 0;
#X connect 40 1 28 0;
#X restore 607 735 pd Saw1_Legato_FX_Filters_Lowpass_Highpass_Bandpass
;
#X obj 777 28 r Saw1_Legato_No_Sus_Note_Trigger;
#X obj 806 4 r Saw1_Legato_Hold_Sus_Note_Trigger;
#X obj 813 562 r Saw1_Legato_Note;
#X connect 0 0 27 2;
#X connect 2 0 27 0;
#X connect 4 0 6 0;
#X connect 5 0 22 0;
#X connect 6 0 5 1;
#X connect 7 0 5 0;
#X connect 7 1 8 0;
#X connect 8 0 22 0;
#X connect 9 0 11 0;
#X connect 10 0 21 1;
#X connect 11 0 10 0;
#X connect 11 1 10 1;
#X connect 12 0 13 0;
#X connect 13 0 10 0;
#X connect 15 0 19 1;
#X connect 16 0 15 0;
#X connect 17 0 15 0;
#X connect 17 1 15 1;
#X connect 18 0 20 1;
#X connect 19 0 27 1;
#X connect 20 0 19 0;
#X connect 21 0 20 0;
#X connect 22 0 21 0;
#X connect 23 0 24 0;
#X connect 24 0 25 0;
#X connect 25 0 26 0;
#X connect 27 0 3 0;
#X connect 27 1 1 0;
#X connect 28 0 7 0;
#X connect 29 0 7 0;
#X connect 30 0 17 0;
#X restore 1482 650 pd Saw1_Legato_FX_Filter;
#X obj 44 838 t b b;
#X obj 509 841 t b b;
#X obj 256 535 != 0;
#X obj 256 565 t f f;
#X obj 288 591 !=;
#X obj 256 618 spigot;
#X obj 1467 452 / 128;
#X obj 163 810 r Saw1_Monophonic_Mode_Reset;
#X obj 109 232 s Saw1_Legato_Note;
#X obj 118 173 t b f;
#X obj 109 198 +;
#X obj 256 432 r Legato_Size_List;
#X obj 438 138 - 1;
#X obj 438 163 * -1;
#X obj 399 188 spigot;
#X obj 349 138 spigot;
#X obj 349 163 != 0;
#X obj 349 188 * 111;
#X obj 438 113 r Saw1_Max_Velocity;
#X obj 256 509 spigot;
#X obj 295 484 == 1;
#X obj 295 459 r Saw1_Mode;
#X obj 118 148 r Saw1_Note_Detune_Coarse;
#X obj 109 62 inlet;
#X obj 349 62 inlet;
#X obj 349 232 s Saw1_Legato_Vel;
#X obj 1467 421 r Saw1_Legato_Vel;
#X connect 0 0 22 0;
#X connect 2 0 51 0;
#X connect 3 0 2 0;
#X connect 3 1 2 1;
#X connect 4 0 3 0;
#X connect 5 0 4 1;
#X connect 6 0 9 0;
#X connect 6 0 12 0;
#X connect 7 0 6 1;
#X connect 8 0 50 0;
#X connect 9 0 8 0;
#X connect 9 1 8 1;
#X connect 10 0 43 0;
#X connect 11 0 10 1;
#X connect 12 0 10 0;
#X connect 12 1 11 0;
#X connect 13 0 0 0;
#X connect 13 1 14 0;
#X connect 14 0 23 0;
#X connect 18 0 17 0;
#X connect 19 0 20 0;
#X connect 20 0 17 0;
#X connect 21 0 20 0;
#X connect 22 0 33 0;
#X connect 22 0 49 0;
#X connect 23 0 31 0;
#X connect 23 0 49 1;
#X connect 24 0 22 1;
#X connect 25 0 23 1;
#X connect 26 0 37 0;
#X connect 26 1 38 0;
#X connect 27 0 37 0;
#X connect 28 0 38 0;
#X connect 29 0 27 1;
#X connect 30 0 28 1;
#X connect 31 0 36 0;
#X connect 32 0 31 1;
#X connect 33 0 35 0;
#X connect 34 0 33 1;
#X connect 35 0 27 0;
#X connect 35 0 26 0;
#X connect 36 0 28 0;
#X connect 36 0 26 1;
#X connect 37 0 1 0;
#X connect 38 0 15 0;
#X connect 44 0 18 0;
#X connect 45 0 18 0;
#X connect 46 0 20 0;
#X connect 47 0 20 0;
#X connect 48 0 37 1;
#X connect 48 0 38 1;
#X connect 49 0 35 1;
#X connect 49 1 36 1;
#X connect 50 0 41 0;
#X connect 50 1 42 0;
#X connect 51 0 39 0;
#X connect 51 1 40 0;
#X connect 52 0 53 0;
#X connect 53 0 55 0;
#X connect 53 1 54 0;
#X connect 54 0 55 1;
#X connect 55 0 54 1;
#X connect 55 0 6 0;
#X connect 55 0 4 0;
#X connect 56 0 0 1;
#X connect 56 0 14 1;
#X connect 57 0 43 0;
#X connect 59 0 60 0;
#X connect 59 1 60 1;
#X connect 60 0 58 0;
#X connect 61 0 69 0;
#X connect 62 0 63 0;
#X connect 63 0 64 1;
#X connect 64 0 75 0;
#X connect 65 0 66 0;
#X connect 66 0 67 0;
#X connect 67 0 75 0;
#X connect 68 0 62 0;
#X connect 68 0 65 1;
#X connect 69 0 52 0;
#X connect 70 0 69 1;
#X connect 71 0 70 0;
#X connect 72 0 59 0;
#X connect 73 0 60 0;
#X connect 74 0 65 0;
#X connect 74 0 64 0;
#X connect 76 0 56 0;
